<?xml version="1.0" encoding="utf-8"?>
<!-- Generator: Adobe Illustrator 27.2.0, SVG Export Plug-In . SVG Version: 6.00 Build 0)  -->
<svg version="1.1" id="_Слой_2" xmlns="http://www.w3.org/2000/svg" xmlns:xlink="http://www.w3.org/1999/xlink" x="0px"
	 y="0px" viewBox="0 0 180 177.1" style="enable-background:new 0 0 180 177.1;" xml:space="preserve">
<style type="text/css">
	.st0{fill:#E9BB00;}
	.st1{fill:none;}
</style>
<path class="st1" d="M98.8,148.8l2.5-2.4c2-1.9,4-3.9,6.1-5.7c0.3-0.2,0.6-0.5,0.9-0.7c0.2-0.2,0.5-0.4,0.7-0.6
	c0.2-0.3,0.2-0.7,0-0.9c-0.3-0.3-0.8-0.3-1.2-0.4c-0.6,0-1.2,0-1.8,0c0,0.1,0,0.1-0.1,0.2c-1.6,3.1-4.9,5.5-8.8,6.4
	C98,145.8,98.5,147.3,98.8,148.8L98.8,148.8z"/>
<path class="st1" d="M69.1,148.8c-0.2,0-0.3-0.1-0.4-0.2c-1.2,1-2.5,2.1-3.6,3.2c-0.3,0.3-0.6,0.6-0.9,0.9c2.3-1.3,5.1-2.1,8-2.2
	c0.2,0,0.4,0.1,0.5,0.2c1.7-1.5,4.1-2.6,6.6-2.5c2.2,0.1,4.4,1.2,5.3,2.9c0.3-1.4,0.4-2.9,0.8-4.3C80.1,148.4,74.6,149,69.1,148.8
	L69.1,148.8z"/>
<path class="st0" d="M49.1,10.5c-1,0.4-1.9,0.9-2.7,1.5c-0.8,0.7-1.5,1.4-1.8,2.3c-0.2,0.7,0,1.7,1,1.9c0.9,0.2,1.9-0.1,2.6-0.6
	c0.8-0.7,1.3-1.6,1.7-2.5c0,0,0-0.1,0.1-0.1c-0.1-0.1-0.1-0.2-0.2-0.4C49.5,12,49.2,11.3,49.1,10.5z"/>
<path class="st0" d="M57.5,15.1c0.4-0.6,0.6-1.3,0.5-2c-0.1-0.8-0.7-1.6-1.1-2.3c0,0,0-0.1,0-0.1c-0.6,0.2-1.2,0.4-1.8,0.5
	c-0.7,0.2-0.9-0.7-0.3-0.9c1.7-0.4,3.4-1,4.8-1.9c0.7-0.4,1.3-0.8,1.8-1.2c0.5-0.4,1.1-0.9,1.3-1.6c0.2-0.5,0.1-1.1-0.5-1.5
	c-0.6-0.3-1.4-0.3-2-0.2c-1.5,0.3-2.8,1.1-3.9,2c-1.1,0.9-2,1.9-2.6,3c-0.3,0.5-1.2,0.1-0.9-0.4c0.2-0.4,0.5-0.8,0.7-1.1
	c-0.6-0.4-1.6-0.4-2.3-0.2c-0.9,0.3-1.3,1.1-1.3,1.8c0,0.7,0.2,1.5,0.5,2.2c0.2,0.6,0.4,1.2,0.7,1.7c0.5,1,1.4,2,2.6,2.5
	c0.6,0.2,1.2,0.2,1.9,0.3C56.4,15.8,57,15.7,57.5,15.1z"/>
<path class="st0" d="M106.9,91c0.1,1.3,0.1,2.5,0.2,3.8c0.9-1.7,2.1-3.3,3.6-4.8c-0.7,0.2-1.5,0.5-2.3,0.6
	C107.9,90.8,107.4,90.9,106.9,91L106.9,91z"/>
<path class="st0" d="M106.3,96.5c-0.1-0.1-0.2-0.2-0.2-0.4c-0.1-1.6-0.2-3.3-0.3-5c-0.9,0.1-1.8,0.2-2.7,0.2v0
	c0.2,2.3,0.4,4.5,0.6,6.8c0,0.1,0,0.2,0,0.2c0.9,2,1.3,4.1,1.3,6.2h0.3c-0.1-0.1-0.2-0.2-0.2-0.3c-0.1-1.3,0-2.6,0.2-3.8
	C105.4,99.1,105.8,97.8,106.3,96.5L106.3,96.5z"/>
<path class="st0" d="M97.3,90.9c0.4,0.3,0.8,0.6,1.2,0.9c1.6,1.3,2.9,2.8,4,4.4c-0.2-1.6-0.3-3.2-0.4-4.8v0
	C100.4,91.4,98.8,91.2,97.3,90.9z"/>
<path class="st0" d="M107,118.5c-1.1,0.3-1.9,0.9-3,1.3c0,0.3,0,0.7,0.1,1.1c0,0.2,0.1,0.4,0.2,0.6c0.1,0.1,0.2,0.3,0.3,0.4
	c0.1,0.1,0.2,0.1,0.4,0.2c0.2,0,0.4,0,0.6,0c0.6-0.1,1.2-0.3,1.7-0.5c0.6-0.3,1.1-0.6,1.6-0.9c0.4-0.3,0.7-0.5,0.6-0.9
	C109.3,118.7,108,118.3,107,118.5L107,118.5z"/>
<path class="st0" d="M95.1,123.8c0.1,0,0.2,0.1,0.3,0.1c0.4,0,0.7-0.1,1-0.2c0.9-0.2,1.9-0.2,2.8-0.4c0.2,0,0.4,0,0.6-0.1
	c0,0,0.1,0,0.1,0c0.1-0.1,0.2-0.3,0.3-0.4c0.2-0.4,0.2-0.8,0.2-1.2c0-0.1,0-0.2-0.1-0.4c0,0,0-0.1,0-0.1c0-0.1,0,0,0-0.1
	c0-0.1-0.1-0.2-0.2-0.2h0l-0.1-0.1h0c-0.4-0.3-1.1-0.4-1.6-0.4c-0.7-0.1-1.4,0-2.1,0c-0.5,0-1,0.2-1.5,0.3c0,0.4-0.1,0.9-0.1,1.3
	c0,0.3,0,0.6,0,0.9c0,0.2,0.1,0.5,0.2,0.6C94.9,123.6,95,123.7,95.1,123.8L95.1,123.8z"/>
<path class="st0" d="M106.5,136.1c0,0.3-0.2,0.6-0.3,0.9c0.7,0,1.4,0,2,0c0.7,0,1.3,0.3,1.6,0.8c0.3,0.4,0.4,0.9,0.2,1.4
	c-0.2,0.6-0.8,1-1.3,1.4c-1.2,1-2.4,2.1-3.5,3.2c-2.1,2-4.1,4-6.3,6.1c0,0-0.1,0.1-0.1,0.1c0,0.5,0,1,0,1.5
	c-0.1,3.1-1.4,6.1-3.3,8.8c-1.9,2.5-4.4,4.7-7.2,6.6c0,0,0,0,0,0c0.7,0.2,1.5,0.4,2.2,0.4c4.3,0.3,8.5-1.5,10.5-4.7
	c-0.3-0.2-0.6-0.4-0.9-0.6c-0.2-0.2-0.2-0.5,0-0.6c0.2-0.2,0.5-0.1,0.7,0c0.6,0.4,1.3,0.8,2,1.2c5.4,3,11.7,4.9,18.2,5.4
	c3.2,0.2,6.5,0.2,9.7-0.3c3.3-0.5,6.5-1.4,9.5-2.8c3.1-1.4,5.9-3.1,8.4-5.1c1.2-0.9,2.3-1.9,3.3-3.1c0.9-1.1,1.6-2.2,2.2-3.4
	c1.1-2.4,1.5-5.1,1.2-7.7c-0.1-1.3-0.4-2.6-0.9-3.8c-0.4-1.1-1.1-2.2-2.3-2.8c-1.4-0.6-2.9,0-4,0.8c-1.3,0.9-2.2,2.1-2.9,3.3
	c-1.4,2.6-1.8,5.5-2.4,8.2c-0.1,0.5-1.1,0.3-1-0.2c0.2-0.7,0.3-1.5,0.4-2.2c0.1-0.2,0.1-0.5,0.2-0.8c-2-0.3-4-0.4-6-0.2
	c-6.7,0.6-12.6,4.3-15.4,9.4c-0.3,0.5-1.2,0.1-0.9-0.5c0.1-0.2,0.2-0.4,0.4-0.6c0-0.1,0-0.1-0.1-0.2c-0.1-0.9-0.6-1.9-1.2-2.7
	c-0.5-0.7-1.3-1.3-2.2-1.6c-0.9-0.3-1.9-0.2-2.8,0c-0.9,0.3-1.7,0.7-2.3,1.3c0,0.1-0.1,0.1-0.1,0.2c-0.6,0.7-1,1.5-1.1,2.3
	c0,0.6-1.1,0.6-1.1,0c0.1-1,0.5-2,1.3-2.8c0-1.2,0.3-2.5,0.8-3.7c1.1-2.3,2.7-4.4,4.4-6.4c0.7-0.8,1.4-1.6,2.1-2.4
	c0.2-0.3,0.5-0.6,0.7-0.9c0-0.1,0.1-0.1,0.1-0.2c0,0,0-0.1,0-0.1c0-0.1,0-0.1,0.1-0.2V139c0,0,0,0,0-0.1c-0.2,0-0.3-0.1-0.4-0.1
	c-0.6-0.2-0.4-1.1,0.3-0.9c1.8,0.5,3.8,0.9,5.6,0.3c1.2-0.3,2.3-1.2,2.6-2.3c0.3-1.1-0.5-2.2-1.6-2.8c-3-1.7-6.7,0.1-9.3,1.5
	c-0.6,0.3-1.1-0.5-0.5-0.8c0.7-0.4,1.5-0.8,2.2-1.1c-4.2-1.3-8.7-1.6-13-0.9c0,0,0,0,0,0C106.3,133.2,106.8,134.6,106.5,136.1
	L106.5,136.1z"/>
<path class="st0" d="M95.3,159c1.7-2.6,2.7-5.5,2.6-8.5c0-1.5-0.4-2.9-1-4.3c-0.5-1.1-1.3-2.2-2.5-2.9c-0.1,0-0.1,0-0.2-0.1
	c-1.2-0.7-2.7-0.8-4-0.2c-1.5,0.6-2.6,1.7-3.2,2.9c-1.5,2.9-1,6.1-2.4,9c-0.1,0.2-0.4,0.4-0.7,0.3c-0.2-0.1-0.5-0.3-0.4-0.5
	c0.3-0.6,0.5-1.2,0.7-1.8c-0.2,0-0.3-0.1-0.4-0.3c-0.2-1-1-1.9-2-2.5c-2.2-1.2-4.9-0.7-6.9,0.5c-2.2,1.3-3.5,3.4-4.3,5.5
	c-0.2,0.5-1.3,0.3-1-0.2c0.5-1.4,1.2-2.7,2.2-3.9c0.1-0.1,0.2-0.2,0.3-0.3c-4.1,0.1-8,1.8-10.4,4.6c-0.1,0.1-0.3,0.2-0.4,0.2
	c-0.2,0.3-0.4,0.5-0.6,0.8c-0.4,0.5-1.3,0-0.9-0.4c0.8-1.1,1.6-2.1,2.5-3.1c1.6-1.8,3.3-3.5,5.1-5c0.9-0.8,1.9-1.5,2.9-2.3
	c0.7-0.6,1.4-1.2,2-1.8c-0.2,0-0.4,0-0.6,0c-0.7-0.1-0.7-0.9,0-0.9c0.5,0,1.1,0.1,1.6,0.1c0.1,0,0.2,0,0.2,0
	c1.8,0.1,3.6,0.1,5.2-0.5c1.5-0.5,2.9-1.6,3.2-3c0.4-1.4-0.7-2.7-2.1-3.4c-1.6-0.8-3.7-0.5-5.3,0.2c-1.7,0.8-2.8,2.1-3.6,3.5
	c-0.3,0.5-1.2,0.1-0.9-0.4c0.5-0.8,1-1.5,1.7-2.2c-0.3-0.1-0.5-0.1-0.8-0.2c-4.2-1.1-8.7-1.8-13.1-1.9c-1.9,0-3.8,0-5.6,0.4
	c-0.7,0.2-1.4,0.4-2,0.8c-0.8,0.6-1.4,1.5-1,2.4c0.4,0.9,1.6,1.2,2.5,1.4c1.1,0.2,2.3,0.4,3.5,0.4c1.4,0.1,2.7,0.2,4.1,0.3
	c1,0,1.9,0.7,1.8,1.6c-0.1,0.8-1,1.4-1.6,2c-0.7,0.6-1.5,1.2-2.3,1.8c-1.7,1.3-3.5,2.5-5.4,3.7c-1.9,1.2-3.8,2.3-5.7,3.4
	c-1.6,0.8-3.2,1.6-4.9,2.3c-0.6,0.2-1.2-0.5-0.5-0.8c0.4-0.2,0.8-0.3,1.1-0.5c0.5-0.2,1.1-0.5,1.6-0.7c-3.5-0.7-7.2-1.2-10.8-0.5
	c-2.9,0.5-5.5,1.9-7.1,4.1c-1.4,2-1.8,4.3-0.7,6.5c1.1,2.3,3.6,3.7,6.5,4c3.2,0.3,6.3-0.7,8.9-2.1c-0.2-0.2-0.5-0.4-0.7-0.6
	c-0.5-0.4,0.3-1.1,0.8-0.6c0.5,0.5,1.1,1,1.8,1.4c4.9,3.7,11.3,6,17.8,6.7c7,0.7,14.1-0.4,20.4-3c2.4-1,4.8-2.2,7-3.6
	c1.4-0.9,1.5-0.9,0,0C90.4,164.6,93.3,162,95.3,159L95.3,159z"/>
<path class="st0" d="M13.4,51.3c0.1,0,0.2,0.1,0.3,0.1c0.5-0.3,1-0.5,1.5-0.5c0.3,0,0.6,0,0.9,0.1c-0.2-2.3,0-5,2.4-6.6
	c0.2-0.2,0.5-0.3,0.8-0.4c-0.4-0.1-0.7-0.2-1.1-0.3c-0.7-0.2-1.4-0.3-2.1-0.4c-0.7-0.1-1.3,0-1.9,0.4c-0.5,0.3-0.9,0.7-1.3,1.2
	c-0.5,0.8-0.8,1.7-1.1,2.6c-0.2,0.8-0.5,1.6-0.3,2.4C11.7,50.7,12.4,51.1,13.4,51.3z"/>
<path class="st0" d="M7.3,55c1.3,0.4,2.8,0.1,4.1-0.1v-0.2c0-0.9,0.5-1.7,1.1-2.3c0.1-0.1,0.2-0.2,0.3-0.3c-1.2-0.3-2.1-1.1-2.3-2.2
	c-0.2-1,0.1-2,0.4-3c0.1-0.2,0.1-0.4,0.2-0.5c-1,0.2-1.9,0.7-2.7,1.2c-0.9,0.6-1.6,1.4-2.1,2.3c-0.4,0.9-0.5,1.8-0.5,2.8
	c0,0.5,0,0.9,0.2,1.3C6.2,54.5,6.7,54.8,7.3,55z"/>
<path class="st0" d="M14,59.2c-0.8-0.6-1.5-1.3-2-2.1c-0.2-0.4-0.5-0.9-0.6-1.3c-1.7,0.3-3.6,0.6-5.2-0.1c-0.6-0.3-1.1-0.7-1.3-1.2
	C4.3,55,4,56,3.9,56.8c-0.1,0.9,0.1,2,0.6,2.8c0.6,1,1.8,1.8,3.1,2.2C10.3,62.6,13.1,61.3,14,59.2z"/>
<path class="st0" d="M17.9,60.8c-0.4-0.9-1.6-1.4-2.6-1c-0.1,0-0.2,0-0.3,0c-0.6,1.2-1.8,2.3-3.3,2.8c-0.3,0.1-0.7,0.2-1,0.3
	c-0.2,0-0.2,0.1,0,0c-0.3,0.2-0.6,0.3-1,0.4c-0.1,0,0,0-0.2,0.1c0,0-0.1,0-0.1,0h0l0,0c0,0,0,0,0,0c0.2,0.4,0.7,0.8,1.1,1.1
	c0.6,0.4,1.2,0.5,2,0.5c1.5-0.1,3.1-0.5,4.2-1.3C17.6,63.1,18.4,61.8,17.9,60.8z"/>
<path class="st0" d="M33.2,66.3c1.1-1.7,1.4-3.9,0.4-5.7c-0.9-1.5-2.7-2.7-4.7-2.8c0,0.1,0,0.3,0,0.4c-0.1,0.5-0.1,1.1-0.3,1.6
	c-0.2,0.5-1.3,0.3-1-0.2c0.2-0.5,0.3-1.1,0.3-1.6c0.1-0.9,0.1-1.8,0.1-2.6c0-1.6,0-3.3-0.3-4.9c-0.1-0.7-0.3-1.3-0.6-2
	c-0.4-1-0.9-2.1-1.9-2.9c-0.9-0.7-2.1-1.3-3.3-1.3c-1.3-0.1-2.4,0.3-3.3,1.1c-1.6,1.5-1.6,3.7-1.4,5.6c0.1,0,0.2,0,0.3,0
	c0.3,0,0.6,0.1,0.7,0.3c0.1,0.2-0.1,0.5-0.4,0.5c-0.6,0.1-1.1,0-1.6-0.1c-0.4-0.1-0.7-0.2-1.1,0c-1.1,0.4-2,1.1-2.4,2
	c-0.4,0.8-0.1,1.8,0.3,2.5c0.4,0.8,1.1,1.6,1.9,2.2c0.2,0,0.3,0.1,0.4,0.2c0.8-0.2,1.7,0,2.4,0.4c0,0,0,0,0,0c1.5-0.1,3-0.5,4.1-1.4
	c1.1-0.8,1.6-2.1,1.6-3.3c0-0.6,1.1-0.6,1.1,0c0,1.5-0.7,3-1.9,4c-1.1,0.8-2.5,1.3-3.9,1.5c0.2,0.2,0.3,0.5,0.4,0.8
	c0.5,1.4-0.4,2.9-1.7,3.8c1.1,1.1,2.8,1.7,4.5,1.6c0.7,0,0.7,0.9,0,0.9c-1.2,0-2.4-0.2-3.4-0.7c-0.4,0.8-0.3,1.8,0.1,2.5
	c0.5,0.9,1.5,1.6,2.7,2c2.4,0.8,5,0.2,7.1-0.7C30.3,69.3,32.1,68,33.2,66.3L33.2,66.3z"/>
<path class="st0" d="M46,78.1c-1.3-0.8-2.5-1.8-3.6-2.7c-2-1.6-3.8-3.4-5.5-5.3c-1-1.1-2-2.2-2.8-3.3c-0.2,0.2-0.3,0.5-0.5,0.7
	c-1.5,1.9-3.8,3.2-6.2,4c-0.1,0-0.3,0.1-0.4,0.1c0.8,0.9,1.8,1.7,2.5,2.7c0.7-0.3,1.4-0.5,2.2-0.5c0.7,0,0.7,0.9,0,0.9
	c-1.4,0.1-2.6,0.8-3.3,1.8c-1.4,2-0.2,4.5,2,5.6c1.2,0.7,2.7,0.9,4,0.1c1.2-0.8,1.7-2,2.1-3.2c0.2-0.5,1.3-0.3,1,0.2
	c-0.4,1-0.8,2-1.5,2.8c0.9,0.8,1.7,1.6,2.5,2.4c1,1,2.1,1.9,3.3,2.7c1.2,0,2.4-0.2,3.5-0.7c1.4-0.7,2.2-1.8,2.6-3
	C48.3,81.5,47.8,79.5,46,78.1L46,78.1z"/>
<path class="st0" d="M166.4,56.4c-0.5-0.1-1-0.3-1.5-0.5c0,0-0.1,0-0.1,0c-1.3,0.2-1.4,1.4-0.9,2.2c1,1.5,3.3,2,5.2,1.5
	c1.8-0.5,2.9-2.1,2.8-3.6C170,56.5,168.2,56.8,166.4,56.4L166.4,56.4z"/>
<path class="st0" d="M173.7,48.2c0,0-0.1,0-0.1,0c-2,1.6-4.7,1.9-7.3,1.4c0.4,0.2,0.3,0.8-0.3,0.8c-0.8,0-1.6,0.4-2,0.9
	c-0.5,0.6-0.5,1.4-0.2,2c0.6,1.4,2.3,2.1,4,2.2c1.8,0.1,3.7-0.5,5.3-1.3c1.5-0.7,2.9-1.9,3-3.4C176.2,49.8,175.3,48.4,173.7,48.2
	L173.7,48.2z"/>
<path class="st0" d="M163.9,45.3c0.5,0.4,0.9,0.9,0.9,1.5c0,0.5-0.1,0.9-0.4,1.4h0.1c1.6,0.7,3.5,1,5.2,0.7c2.6-0.4,5-2.2,4.7-4.6
	c-0.1-1.1-0.9-2.2-2.2-2.8c-1.2-0.6-2.8-0.7-4.1-0.2c-0.1,0.5-0.4,1.1-0.8,1.6C166.5,44,165.3,44.9,163.9,45.3L163.9,45.3z"/>
<path class="st0" d="M162.8,44.7c1.6-0.4,3.1-1.4,3.9-2.6c0.7-1.1,0.6-2.3-0.1-3.3c-0.7-1-1.9-1.8-3.2-2.1c-2.9-0.6-5.6,1.6-6.1,3.8
	C159.7,41.2,161.6,42.9,162.8,44.7L162.8,44.7z"/>
<path class="st0" d="M163.8,55.2c-0.8-0.6-1.3-1.5-1.4-2.5c-0.1-1.6,1.4-3.1,3.4-3.2c-0.7-0.2-1.4-0.4-2-0.6c0,0,0,0-0.1,0
	c-0.2,0.3-0.5,0.5-0.8,0.7c-1,0.7-2.2,1.1-3.4,1.1c-2.5,0.1-4.8-1.3-5.7-3.2c-0.2-0.5,0.8-0.8,1-0.2c0.8,1.9,3.4,3,5.7,2.4
	c1.2-0.3,2.2-1,2.7-1.9c0.3-0.4,0.4-1,0.1-1.5c-0.3-0.4-0.8-0.6-1.2-0.4c-0.3,0.1-0.6-0.1-0.7-0.3c-0.1-0.2,0-0.4,0.3-0.5
	c-0.7-1.1-1.7-2.1-2.9-2.8c-2-1.2-4.8-1.7-6.9-0.3c-2.3,1.5-1.4,4.4-0.6,6.3c0.1,0.1,0.2,0.2,0.2,0.3c-0.1,1.6,0.5,3.1,1.6,4.3
	c0.2,0.2,0,0.5-0.2,0.6c-0.3,0.1-0.6,0-0.7-0.2c-0.7-0.7-1.1-1.6-1.4-2.5h0c-1.7,0.1-3.6,1-4.4,2.3c-0.8,1.4-0.5,3.1,0.3,4.4
	c0.8,1.4,2.3,2.5,3.8,3.5c1.6,0.9,3.4,2,5.4,2c1.5,0,3.2-0.7,3.2-2.1c-1.2,0.1-2.5,0-3.6,0.1c-0.7,0-0.7-0.9,0-0.9
	c1.4-0.1,2.7,0,4.1-0.1c1.3-0.1,2.6-0.4,3.4-1.3c-0.3-0.4-0.5-0.9-0.6-1.3C162.3,56.6,162.9,55.6,163.8,55.2L163.8,55.2z"/>
<path class="st0" d="M145.4,57.3c-0.2-0.4-0.3-0.8-0.4-1.2c-0.8,0.5-1.6,0.9-2.4,1.4c-0.1,0-0.2,0-0.2,0c0,3.4,0.1,6.8,0.1,10.2
	c0,1.6,0,3.2,0,4.9c0.1,0,0.2,0,0.3,0.1c0.5,0.2,1,0.5,1.6,0.4c0.4,0,0.9-0.1,1.1-0.4c0.2-0.3,0.2-0.7,0.1-1.1
	c-0.1-0.4-0.3-0.7-0.6-1.1c-0.2,0.2-0.4,0.3-0.6,0.5c-0.5,0.4-1.3-0.2-0.8-0.6c3-2.3,5.9-4.8,8.5-7.4c-0.9-0.4-1.8-0.9-2.6-1.5
	C147.8,60.4,146.2,59,145.4,57.3z"/>
<path class="st0" d="M59.2,36.7c-0.9-1.2-1.7-2.6-2.3-3.9c-1.3-2.8-1.9-5.7-2-8.7c0-2.4,0.4-4.8,1.4-7.1c-1.2,1.6-2.3,3.2-3.3,4.9
	c-3.4,6-5.4,12.7-5.7,19.4c0.6-0.4,1.3-0.7,2.1-0.9h0c1.8-0.7,3.6-1.4,5.4-2.1C56.2,37.7,57.7,37.2,59.2,36.7z"/>
<path class="st0" d="M115.4,50.1c-0.4-1.2-0.9-2.4-1.8-3.5c-0.2-0.2-0.3-0.3-0.5-0.5c-0.2-0.2-0.4-0.3-0.6-0.4
	c-0.3-0.2-0.3-0.2-0.6-0.2c-0.1,0-0.1,0-0.2,0h-0.6c-0.1,0-0.2,0-0.2,0c-0.1,0-0.3,0.1-0.4,0.1c-0.2,0-0.5,0.2-0.7,0.3
	c-0.5,0.3-0.8,0.7-1.1,1.2c-0.7,1.1-1,2.5-1.1,3.8c-0.2,1.6-0.1,3.2,0,4.9c0.1,0.8,0.2,1.6,0.3,2.4c0-0.2,0-0.4,0.1-0.7
	c0.1-0.5,0.2-1,0.5-1.4c0.4-0.4,0.9-0.6,1.5-0.6c0.5,0,0.9,0.3,1.3,0.7c0.3,0.4,0.5,0.9,0.7,1.4c0.2,0.5,0.4,1.1,0.6,1.6
	c0.3,1.1,0.4,2.1,0.5,3.2c1.2-0.1,2.5,0,3.7,0.3v-0.1c0-0.1,0-0.2,0-0.2v0c0,0,0-0.1,0-0.1c0.1-1.1,0.1-2.2,0.1-3.3
	c-0.1-1.5-0.2-2.9-0.5-4.4C116.2,53.1,115.9,51.6,115.4,50.1L115.4,50.1z"/>
<path class="st0" d="M77.2,29.7c3.7-2.5,7.4-5.1,11.1-7.7c0.4-0.3,0.8-0.5,1.1-0.8c-1.6-1.4-3.3-2.6-5.2-3.6
	c-3.8-2-8.1-3.4-12.6-3.9c-4.3-0.5-8.8-0.3-12.8,1.2c0,0.1-0.1,0.2-0.2,0.4c1.7,0.2,3.3,0.7,4.9,1.3C70,19.3,73.7,24.7,77.2,29.7
	L77.2,29.7z"/>
<path class="st0" d="M130,60.7c-3.8-0.5-7.8,0.5-11,2.1c-3.4,1.6-6.3,3.9-8.3,6.7c-0.4,0.5-1.3,0-0.9-0.5c0.3-0.4,0.5-0.7,0.8-1.1
	c1.4-1.7,3.2-3.2,5.2-4.5c-3.2-0.5-6.7,0.3-9,2.3c-0.5,0.4-1.2-0.2-0.7-0.6c0.6-0.5,1.3-1,2-1.3c-0.1-0.2-0.1-0.4-0.2-0.6
	c-0.7-2.9-1.2-5.9-1.4-8.9c-0.1-1.6,0-3.3,0.3-4.9c0.3-1.3,0.7-2.6,1.8-3.6c0.9-0.8,2.2-1.3,3.5-1.1c1.3,0.2,2.2,1.2,2.8,2.1
	c0.8,1.2,1.4,2.6,1.8,4c0.5,1.6,0.8,3.2,1,4.8c0.2,1.5,0.3,2.9,0.4,4.4c0,0.8,0,1.6-0.1,2.3c0.7-0.4,1.5-0.7,2.3-1
	c3.6-1.4,8.1-2.2,12-1c0.8,0.2,1.5,0.6,2.2,1c0-0.5,0-1.1,0-1.6c0-4.5,0-9.1-0.9-13.6c-0.2-0.8-0.3-1.6-0.6-2.4
	c-0.2-0.7-0.4-1.3-1.1-1.7c-0.8-0.5-1.8-0.6-2.7-0.8c-1.1-0.2-2.3-0.3-3.4-0.4c-1.5-0.1-3,0-4.5,0c-1.5,0-3,0-4.5,0
	c-3.1,0-6.3,0-9.4,0c-6.2,0-12.4,0.2-18.6,0.4c-3.1,0.1-6,0.4-9,0.8c-2.7,0.3-5.5,0.7-8.2,0.9c0,0.2,0.1,0.4,0.1,0.5
	c0.7,3.7,1.1,7.3,1.5,11c0.5,4.7,0.8,9.4,1.1,14.1c0.3,5.3,0.4,10.6,0.4,15.8c0,5.5,0,10.9-0.3,16.3c0,1.4-0.2,2.7-0.1,4.1
	c0,1.4,0.1,2.8,0.2,4.2c0.2,2,0.5,4.1,0.4,6.2c0.2,0,0.5,0,0.7,0c4.1-0.2,8.2-0.5,12.3-1c4.7-0.5,9.3-1.1,14-1.6
	c4.4-0.6,8.8-1.2,13.2-1.8c3.2-0.5,6.5-1,9.8-1.5c1.2-0.2,2.3-0.4,3.5-0.5c0.1-1.5,0.4-3.1,0.6-4.6c0.5-2.4,1.1-4.8,1.6-7.3
	c0.5-2.6,0.9-5.2,1.3-7.8c0.8-5.6,1.5-11.3,2-16.9c-1.7,1.1-3.9,1.6-6.1,1.7c-1.2,0-2.5-0.1-3.7-0.3c0,0.4,0,0.7,0,1.1
	c-0.2,3.6-1.9,7.2-4.5,10c-1.7,1.8-3.7,3.3-6.1,4.4c0,0.1-0.1,0.1-0.2,0.2c-1,0.9-2,1.8-2.8,2.8c-2.9,3.6-4.4,7.9-4.1,12.2
	c0,0.2-0.1,0.3-0.2,0.3c1.5,0,2.9,0.4,4.1,1c0.6,0.3,0,1.1-0.5,0.8c-2.5-1.4-6-1.2-8.3,0.5c-0.5,0.4-1.3-0.3-0.7-0.6
	c1-0.7,2.2-1.2,3.4-1.5c0-1.2-0.1-2.4-0.4-3.6c-1.2-4.6-4.7-8.8-9.6-11.1c-0.1,0-0.1-0.1-0.2-0.1c-3.7-1.4-6.8-3.6-9-6.4
	c-2.3-2.9-3.6-6.3-3.6-9.7c-1.1-0.3-1.9-1.1-2.2-2c-0.2-0.6,0.9-0.8,1-0.2c0.2,0.6,0.7,1.2,1.5,1.4c0.2-0.1,0.6-0.1,0.7,0.2
	c0.9,0,1.8-0.4,2.2-1c0.4-0.5,1.3,0,0.9,0.5c-0.7,0.9-1.8,1.4-3.1,1.4c0,0.2,0,0.4,0,0.6c0.2,3.4,1.8,6.8,4.3,9.5
	c2.6,2.8,6.2,4.9,10.3,5.9c4.2,1,8.8,0.8,12.9-0.4c4-1.2,7.3-3.5,9.6-6.4c2.3-2.9,3.5-6.3,3.4-9.8c-2.7-0.7-5-2.2-7-3.8
	c-0.5-0.4,0.3-1,0.8-0.6c3.2,2.7,7.6,4.7,12.3,4.1c1.9-0.3,3.7-0.9,5.1-2c1.3-1,2.2-2.5,2.4-4c0.2-1.5-0.2-3-1.4-4.2
	C133.5,61.5,131.8,60.9,130,60.7L130,60.7z M98.6,65.1c-1.6-0.9-3.7-1.3-5.6-0.8c-1.7,0.4-3.4,1.3-4.6,2.4c-0.5,0.4-1.2-0.2-0.8-0.6
	c0.3-0.3,0.6-0.5,0.9-0.7c0,0,0,0,0,0c-0.2-0.3-0.3-0.5-0.5-0.8c-0.8-1.4-1.3-2.9-1.7-4.5c-0.5-1.7-0.8-3.4-0.9-5.2
	c-0.1-1.5-0.2-3.1,0.1-4.6c0.4-1.8,1.4-3.8,3.4-4.7c3.1-1.3,5.1,1.3,6.1,3.4c1.2,2.5,1.7,5.3,2.1,8c0.3,2.2,0.5,4.4,0.4,6.6
	c0,0,0,0.1,0,0.1c0.6,0.2,1.2,0.4,1.7,0.7C99.7,64.6,99.2,65.4,98.6,65.1L98.6,65.1z"/>
<path class="st0" d="M64.4,130.2c0-0.6,0-1.3,0-1.9c0.1-3.4,0.4-6.8,0.6-10.2c0.2-3.9,0.4-7.9,0.4-11.9c0.2-7.9,0.1-15.9-0.1-23.8
	c-0.2-7-0.4-13.9-0.5-20.9c-0.1-2.8-0.1-5.7-0.1-8.5c0-3.2-0.2-6.5-0.9-9.6c-0.3-1.6-0.8-3.2-1.4-4.7c-0.2-0.7-0.5-1.3-0.6-2
	c-0.1,0-0.3,0.1-0.4,0.1c-1.2,0.4-2.4,0.8-3.5,1.2C55.2,39,52.6,39.9,50,41c0.1,0.7,0.2,1.4,0.3,2.1c0.5,3,1.2,5.9,1.6,8.9
	c0.2,1.4,0.2,2.9,0.4,4.4c0.2,1.5,0.5,3,0.6,4.4c0.2,1.4,0.2,2.9,0.5,4.4c0.2,1.5,0.5,2.9,0.6,4.4c0.3,3,0.3,6,0.2,9
	c-0.1,3-0.2,6-0.2,9c0,3.1,0,6.2,0,9.3c0,4.9,0,9.9-0.2,14.8c-0.2,4.4-0.4,8.8-0.4,13.3v0.2c0,0.5,0.1,0.9,0.4,1.3
	c0.6,0.8,1.8,1.3,2.8,1.7c1.1,0.4,2.3,0.7,3.5,1.1C61.6,129.7,63,130,64.4,130.2L64.4,130.2z"/>
<path class="st0" d="M93.8,48.9c-0.4-0.9-1-1.7-1.8-2.3c-0.3-0.2-0.7-0.4-1.1-0.5c-1.1-0.2-2.1,0.4-2.7,1c-1.3,1.2-1.7,2.9-1.8,4.5
	c-0.1,1.5,0,3.1,0.2,4.6c0.2,1.4,0.5,2.8,0.9,4.1c0-0.1,0-0.1,0-0.2c-0.1-1.1,0.3-2.1,0.8-3c0.2-0.4,0.6-0.8,1.1-0.9
	c0.9-0.2,1.7,0.3,2.3,0.8c0.9,0.8,1.3,2.1,1.5,3.2c0.2,1,0.2,2,0.1,3.1c1-0.1,2-0.1,3,0.1V63c0-2.2-0.2-4.5-0.5-6.7
	C95.5,53.8,95,51.2,93.8,48.9L93.8,48.9z"/>
<path d="M174.4,47.5c0.7-0.8,1.1-1.8,1.1-2.8c0-1.4-0.9-2.7-2.2-3.6c-1.4-0.9-3.3-1.1-5-0.7c0-0.5-0.2-1-0.4-1.6
	c-0.7-1.3-2-2.3-3.6-2.8c-1.6-0.5-3.4-0.4-4.9,0.4c-1.6,0.8-2.9,2.3-3.2,3.9c-0.1,0-0.2,0-0.3,0c-1.4-0.1-2.8,0.1-3.9,0.7
	c-1.3,0.7-2,1.8-2.2,3c-0.3,1.5,0.3,3.1,0.9,4.6c0,0,0.1,0.1,0.1,0.1c0,0.4,0,0.8,0.1,1.2c-1.8,0.2-3.7,1-4.8,2.2
	c-0.7,0.8-1,1.8-1,2.8c-0.9,0.5-1.7,1-2.5,1.5c0-2.2,0-4.4-0.1-6.5c0-3-0.3-5.9-0.4-8.9c0-0.4,0-0.8-0.1-1.2c-0.1-0.3-0.2-0.7-0.3-1
	c-0.2-0.7-0.4-1.3-0.8-1.9c-0.7-1-2-1.4-3.3-1.7c-1.6-0.4-3.3-0.8-4.9-1.1c-3.4-0.7-6.8-1.2-10.2-1.4c-0.6,0-1.3-0.1-1.9-0.1
	c3.5-2.2,6.8-4.7,9.6-7.5c1.5-1.5,2.9-2.9,4.2-4.5c1.3-1.6,2.5-3.3,3.2-5.1c1.3-3.3,1.1-7.2-1.8-9.9c-2.8-2.6-7.2-3-11.1-2.8
	c-2.2,0.1-4.3,0.3-6.4,0.8c-2.2,0.5-4.2,1.4-6,2.4c-3.3,1.7-6.3,3.9-9.2,5.9c-4.2,2.9-8.4,5.8-12.6,8.8c-3-2.7-6.9-4.8-11-6.1
	c-4.3-1.4-9-2.2-13.6-1.9c-2.2,0.1-4.4,0.5-6.5,1.2c0-0.1,0-0.2,0-0.4c0-1.1-0.7-2.1-1.3-3.1c0,0,0,0,0,0c0.8-0.3,1.6-0.7,2.3-1.1
	c1.4-0.8,3-1.8,3.6-3.2c0.3-0.7,0.2-1.4-0.3-2c-0.5-0.5-1.3-0.9-2.1-0.9C59.5,3,57.7,4,56.4,4.8c-0.8,0.6-1.6,1.2-2.3,2
	c-1.5-0.8-3.9-0.5-4.8,0.9c-0.4,0.6-0.5,1.3-0.4,2c-1.2,0.4-2.2,1-3.1,1.7c-1,0.8-1.9,1.8-2.2,2.9c-0.3,1.1,0,2.3,1.2,2.8
	c1.1,0.5,2.5,0.3,3.5-0.2c1.1-0.6,1.8-1.6,2.3-2.6c0.5,0.8,1.3,1.6,2.3,2c0.4,0.2,0.7,0.3,1.1,0.4c-3.8,2.8-6.9,6.4-9.2,10.2
	c-2.5,4.2-4.1,8.7-4.5,13.3c-0.2,2.5-0.2,4.9,0.4,7.4c0,0.1,0,0.1,0.1,0.2c-0.8,1.1-1.4,2.2-2.1,3.3c-0.8,1.4-1.6,2.9-2.5,4.3
	c-0.8,1.3-1.6,2.7-2.6,3.8c-1.2-1.2-2.8-2-4.7-2.1c0-0.4,0-0.7,0-1.1c0-1.8,0-3.6-0.3-5.4c-0.1-0.8-0.3-1.5-0.6-2.3
	c-0.5-1.1-1.1-2.2-2-3.1c-1.3-1.2-3.3-1.8-5.2-1.6c-1.3-0.6-2.8-0.9-4.2-1.1c-0.9-0.2-1.7-0.2-2.5,0.2c-0.7,0.3-1.3,0.8-1.8,1.3
	c-0.4,0.4-0.7,1-0.9,1.5h0c-2.6,0.4-4.9,2-6,4c-0.6,1.1-0.7,2.2-0.7,3.4c0,0.2,0,0.5,0.1,0.7c-2.2,1.3-2.2,4.3-1.3,6.2
	c0.9,1.8,2.8,2.9,5,3.2c-0.1,0.1-0.2,0.3-0.2,0.5c0,0.6,0.6,1.1,1.1,1.5c0.6,0.5,1.4,1,2.3,1.1c1,0.1,2-0.1,3-0.3
	c0.6-0.2,1.2-0.4,1.8-0.6c0.3,0.3,0.7,0.6,1.1,0.9c-0.6,1-0.5,2.2,0,3.2c-1.9,0.8-3.7,2.2-4.7,3.7c-0.6,0.9-0.9,1.8-1.3,2.7
	c-0.4,1-0.8,1.9-1.2,2.9c-1.8,4-2.7,8.3-3,12.6c-0.2,3.4,0.1,6.9,0.7,10.3c0.2,1.2,0.4,2.4,0.7,3.6c0.3,1,0.8,2,1.6,2.8
	c1.4,1.5,3.6,2,5.8,2.1c2.5,0.2,5-0.1,7.6-0.1c2.7,0,5.4,0.1,7.9,1.1c3,1.1,5.2,3.2,6.6,5.7c0.5,0.9,1,1.8,1.6,2.6
	c0.5,0.8,1.1,1.5,1.8,2.2c1,1.1,2.3,2,3.7,2.6c2.1,0.9,4.3,1.2,6.7,1.2c0.2,0,0.3,0,0.5,0v0.2c0,0,0,0.1,0,0.1
	c-0.1,1.9,1.7,3.1,3.6,3.8c0.6,0.2,1.2,0.4,1.8,0.6c-0.1,0.2-0.2,0.3-0.4,0.5c-0.1-0.1-0.2-0.3-0.5-0.3c-3.6,0-7.3,0.3-10.7,1.3
	c-1.3,0.4-2.5,0.8-3.8,1.3c-1.3,0.5-2.6,1.2-3.6,2c-0.2,0.1-0.3,0.3-0.4,0.4c-0.1,0-0.2,0.1-0.2,0.2c-1,1.2-1.5,2.7-1.8,4.1
	c-0.2,1.5,0,2.8,0.9,4.1c2.1,2.7,6.2,3.8,9.7,4.5c2,0.4,4.2,0.7,6.3,0.7c-0.3,0.2-0.6,0.4-0.9,0.6c-2.6,1.7-5.3,3.4-8.1,4.8
	c-0.1-0.1-0.1-0.1-0.2-0.1c-3.6-0.7-7.4-1.3-11.1-0.8c-3.2,0.5-6.2,1.8-8.2,4c-1.8,2.1-2.5,4.7-1.6,7.1c0.9,2.6,3.3,4.5,6.4,5.1
	c3.8,0.8,7.7-0.3,10.9-2c0.1,0,0.1-0.1,0.2-0.1c4.7,3.6,10.6,6,16.8,6.9c7.2,1.1,14.7,0.2,21.4-2.2c3-1.1,5.9-2.5,8.5-4.1
	c4.1,1.5,9.1,0.5,12.3-2c0.9-0.7,1.6-1.5,2.2-2.4c5,2.9,10.9,4.8,17,5.5c6.9,0.8,14,0.2,20.3-2.3c3.3-1.3,6.4-3.1,9.1-5.1
	c2.5-1.9,4.8-4,6.3-6.6c1.4-2.5,2-5.3,1.9-8.1c-0.1-1.4-0.3-2.7-0.7-4c-0.4-1.2-0.9-2.5-2-3.5c-1.1-1-2.7-1.4-4.2-1
	c-1.6,0.4-2.9,1.5-3.9,2.6c-1.7,1.9-2.6,4.3-3.1,6.6c-7.2-1.2-14.7,0.9-19.4,5.5c-0.7,0.7-1.4,1.4-2,2.2c-0.5-1.6-1.7-3.2-3.5-3.9
	c-1.9-0.8-4.1-0.4-5.7,0.7c0.2-2,1.4-3.8,2.6-5.5c1.4-1.9,3.1-3.7,4.5-5.5c0.4-0.5,0.9-1.1,1.1-1.8c1.5,0.3,3,0.4,4.5,0.1
	c1.6-0.4,2.9-1.3,3.5-2.6c0.6-1.3,0-2.7-1.1-3.6c-1.3-1.1-3.2-1.5-5-1.3c-1,0.1-1.9,0.3-2.8,0.6c-0.1-0.1-0.2-0.1-0.3-0.2
	c-4.6-1.6-9.8-1.9-14.6-1c-0.7-0.7-1.6-1.3-2.5-1.8c2.9-0.4,5.8-0.9,8.7-1.4c4.9-0.9,9.8-2.1,14.4-3.7c4-1.4,8-3.1,11.3-5.4
	c0.5-0.4,1.2-0.7,1.2-1.3c0-0.2,0-0.3,0-0.4c0-0.2,0-0.3,0-0.4c0-0.1,0-0.1,0-0.2c0,0,0-0.1,0-0.2c0.1-0.6,0.3-1.3,0.5-1.9
	c0.8-2.8,1.3-5.7,1.8-8.6c1.1-7,1.6-14,2-21c0.2-3.8,0.5-7.6,0.5-11.4c0.6,0.3,1.3,0.5,2,0.5c0.7,0,1.4-0.3,1.9-0.8
	c0.9-1.1,0.2-2.3-0.5-3.3c2.6-2.1,5-4.2,7.3-6.5c0.8,0.3,1.7,0.5,2.5,0.6c2.1,0.1,4.5-1.1,4.5-3v0c1.4-0.2,2.6-0.5,3.6-1.4
	c0.3,0.2,0.7,0.4,1,0.6c2.3,1.1,5.2,0.6,6.8-1.1c0.9-0.9,1.3-2.2,1.2-3.3c0,0,0-0.1,0-0.1c0.1,0,0.1-0.1,0.2-0.1
	c1.9-0.8,3.6-2.1,4.1-3.9C177.5,49.9,176.5,47.9,174.4,47.5L174.4,47.5z M58.8,14.9c4-1.5,8.5-1.7,12.8-1.2
	c4.5,0.5,8.8,1.9,12.6,3.9c1.9,1,3.7,2.2,5.2,3.6c-0.4,0.3-0.8,0.5-1.1,0.8c-3.7,2.6-7.4,5.1-11.1,7.7c-3.4-5.1-7.2-10.4-13.6-13.2
	c-1.5-0.6-3.2-1.1-4.9-1.3C58.7,15.1,58.8,15,58.8,14.9L58.8,14.9z M49.9,13.2c-0.4,0.9-0.9,1.8-1.7,2.5c-0.7,0.5-1.7,0.8-2.6,0.6
	c-1-0.3-1.2-1.2-1-1.9c0.3-0.9,1-1.6,1.8-2.3c0.8-0.6,1.7-1.1,2.7-1.5c0.2,0.7,0.4,1.5,0.7,2.2c0,0.1,0.1,0.2,0.2,0.4
	C49.9,13.2,49.9,13.2,49.9,13.2z M53.7,15.6c-1.3-0.5-2.1-1.5-2.6-2.5c-0.3-0.5-0.5-1.1-0.7-1.7c-0.2-0.7-0.5-1.4-0.5-2.2
	c0-0.7,0.4-1.6,1.3-1.8c0.7-0.2,1.7-0.2,2.3,0.2c-0.3,0.4-0.5,0.7-0.7,1.1c-0.3,0.5,0.6,1,0.9,0.4c0.6-1.1,1.5-2.2,2.6-3
	c1.1-0.9,2.4-1.7,3.9-2c0.7-0.2,1.4-0.2,2,0.2c0.6,0.3,0.7,0.9,0.5,1.5c-0.2,0.6-0.8,1.1-1.3,1.6c-0.6,0.4-1.2,0.8-1.8,1.2
	c-1.5,0.9-3.1,1.5-4.8,1.9c-0.7,0.2-0.4,1,0.3,0.9c0.6-0.1,1.2-0.3,1.8-0.5c0,0,0,0.1,0,0.1c0.5,0.7,1,1.5,1.1,2.3
	c0.1,0.7-0.1,1.4-0.5,2c-0.5,0.6-1.1,0.7-1.9,0.7C55,15.8,54.3,15.8,53.7,15.6z M11.8,47.4c0.3-0.9,0.6-1.8,1.1-2.6
	c0.3-0.5,0.7-0.9,1.3-1.2c0.6-0.4,1.2-0.5,1.9-0.4c0.7,0.1,1.4,0.3,2.1,0.4c0.4,0.1,0.7,0.2,1.1,0.3c-0.3,0.1-0.6,0.3-0.8,0.4
	c-2.4,1.6-2.6,4.2-2.4,6.6c-0.3-0.1-0.6-0.1-0.9-0.1c-0.5,0.1-1,0.3-1.5,0.5c-0.1-0.1-0.2-0.1-0.3-0.1c-1-0.2-1.7-0.6-1.9-1.5
	C11.3,49.1,11.5,48.2,11.8,47.4z M5.7,52.7c0-1,0.1-1.9,0.5-2.8c0.5-0.9,1.2-1.7,2.1-2.3c0.8-0.6,1.7-1,2.7-1.2
	c-0.1,0.2-0.1,0.3-0.2,0.5c-0.3,1-0.6,2-0.4,3c0.2,1.1,1.1,1.8,2.3,2.2c-0.1,0.1-0.2,0.2-0.3,0.3c-0.7,0.6-1.1,1.4-1.1,2.3v0.2
	C10,55.1,8.6,55.4,7.3,55c-0.5-0.2-1.1-0.4-1.3-0.9C5.8,53.7,5.7,53.2,5.7,52.7z M7.6,61.8c-1.3-0.4-2.5-1.2-3.1-2.2
	c-0.5-0.9-0.7-1.9-0.6-2.8C4,56,4.3,55,5,54.5c0.3,0.5,0.7,0.9,1.3,1.2c1.6,0.7,3.5,0.4,5.2,0.1c0.1,0.5,0.3,0.9,0.6,1.3
	c0.5,0.8,1.1,1.5,2,2.1C13.1,61.3,10.3,62.6,7.6,61.8z M16.6,63.8c-1.1,0.8-2.7,1.2-4.2,1.3c-0.8,0-1.4-0.1-2-0.5
	c-0.4-0.3-0.9-0.7-1.1-1.1c0,0,0,0,0,0l0,0h0c0,0,0.1,0,0.1,0c0.1,0,0,0,0.2-0.1c0.4-0.1,0.7-0.2,1-0.4c0.2-0.1,0.2-0.1,0,0
	c0.3-0.1,0.7-0.2,1-0.3c1.5-0.5,2.7-1.6,3.3-2.8c0.1,0,0.2,0,0.3,0c1-0.4,2.3,0.2,2.6,1C18.4,61.8,17.6,63.1,16.6,63.8z M21.1,70.8
	c-1.1-0.4-2.1-1.1-2.7-2c-0.4-0.8-0.5-1.7-0.1-2.5c1,0.5,2.2,0.7,3.4,0.7c0.7,0,0.7-0.9,0-0.9c-1.7,0.1-3.4-0.5-4.5-1.6
	c1.3-0.9,2.2-2.3,1.7-3.8c-0.1-0.3-0.2-0.5-0.4-0.8c1.4-0.2,2.8-0.7,3.9-1.5c1.3-1,1.9-2.5,1.9-4c0-0.6-1.1-0.6-1.1,0
	c0,1.2-0.5,2.5-1.6,3.3c-1.1,0.9-2.6,1.3-4.1,1.4c0,0,0,0,0,0c-0.7-0.4-1.6-0.6-2.4-0.4c-0.1-0.1-0.2-0.2-0.4-0.2
	c-0.8-0.6-1.5-1.3-1.9-2.2c-0.4-0.8-0.7-1.7-0.3-2.5c0.4-0.9,1.4-1.7,2.4-2c0.4-0.1,0.7-0.1,1.1,0c0.5,0.2,1,0.2,1.6,0.1
	c0.3,0,0.4-0.3,0.4-0.5c-0.1-0.2-0.4-0.3-0.7-0.3c-0.1,0-0.2,0-0.3,0c-0.2-1.9-0.2-4.1,1.4-5.6c0.9-0.8,2-1.2,3.3-1.1
	c1.2,0,2.5,0.5,3.3,1.3c0.9,0.8,1.5,1.8,1.9,2.9c0.3,0.7,0.5,1.3,0.6,2c0.3,1.6,0.3,3.3,0.3,4.9c0,0.9,0,1.8-0.1,2.6
	c0,0.5-0.1,1.1-0.3,1.6c-0.2,0.5,0.8,0.8,1,0.2c0.2-0.5,0.3-1.1,0.3-1.6c0-0.1,0-0.3,0-0.4c2,0.1,3.8,1.3,4.7,2.8
	c1.1,1.8,0.7,3.9-0.4,5.7c-1.1,1.7-2.9,3-4.9,3.8C26.1,71.1,23.5,71.6,21.1,70.8L21.1,70.8z M47.7,83.5c-0.4,1.3-1.2,2.4-2.6,3
	c-1.1,0.5-2.3,0.7-3.5,0.7c-1.1-0.9-2.3-1.8-3.3-2.7c-0.8-0.8-1.6-1.6-2.5-2.4c0.7-0.8,1.2-1.8,1.5-2.8c0.2-0.5-0.8-0.8-1-0.2
	c-0.4,1.2-0.9,2.4-2.1,3.2c-1.2,0.8-2.7,0.5-4-0.1c-2.2-1.2-3.3-3.7-2-5.6c0.7-1,1.9-1.7,3.3-1.8c0.7,0,0.7-0.9,0-0.9
	c-0.8,0-1.5,0.2-2.2,0.5c-0.7-1-1.7-1.8-2.5-2.7c0.1,0,0.3-0.1,0.4-0.1c2.5-0.8,4.7-2.2,6.2-4c0.2-0.2,0.3-0.4,0.5-0.7
	c0.9,1.1,1.8,2.2,2.8,3.3c1.7,1.8,3.5,3.6,5.5,5.3c1.1,1,2.4,1.9,3.6,2.7C47.8,79.5,48.3,81.5,47.7,83.5z M49.3,40.3
	c-0.7,0.2-1.4,0.5-2.1,0.9c0.3-6.7,2.3-13.4,5.7-19.4c1-1.7,2.1-3.3,3.3-4.9c-1,2.3-1.4,4.7-1.4,7.1c0.1,3,0.7,5.9,2,8.7
	c0.6,1.4,1.4,2.7,2.3,3.9c-1.5,0.5-3,1-4.5,1.6C52.9,38.9,51.1,39.6,49.3,40.3C49.3,40.3,49.3,40.3,49.3,40.3z M56.8,128.2
	c-1.1-0.4-2.2-0.9-2.8-1.7c-0.3-0.4-0.4-0.9-0.4-1.3V125c0-4.4,0.2-8.9,0.4-13.3c0.2-5,0.2-9.9,0.2-14.8c0-3.1,0-6.2,0-9.3
	c0-3,0.2-6,0.2-9c0.1-3,0.1-6-0.2-9c-0.2-1.5-0.4-2.9-0.6-4.4c-0.2-1.5-0.3-2.9-0.5-4.4c-0.2-1.5-0.5-2.9-0.6-4.4
	c-0.2-1.4-0.2-2.9-0.4-4.4c-0.4-3-1.1-5.9-1.6-8.9c-0.1-0.7-0.2-1.4-0.3-2.1c2.5-1.1,5.2-2,7.8-2.9c1.2-0.4,2.3-0.8,3.5-1.2
	c0.1,0,0.3-0.1,0.4-0.1c0,0.7,0.4,1.4,0.6,2c0.6,1.5,1.1,3.1,1.4,4.7c0.7,3.2,0.9,6.4,0.9,9.6c0,2.8,0,5.7,0.1,8.5
	c0.1,7,0.4,13.9,0.5,20.9c0.2,7.9,0.2,15.9,0.1,23.8c-0.1,3.9-0.2,7.9-0.4,11.9c-0.2,3.4-0.5,6.8-0.6,10.2c0,0.6,0,1.2,0,1.9
	c-1.4-0.2-2.7-0.6-4.1-0.9C59.1,128.9,57.9,128.6,56.8,128.2L56.8,128.2z M87.1,166.7C87.1,166.7,87.1,166.7,87.1,166.7
	c-2.2,1.4-4.6,2.6-7,3.6c-6.3,2.5-13.4,3.7-20.4,3c-6.6-0.7-12.9-3-17.8-6.7c-0.6-0.4-1.2-0.9-1.8-1.4c-0.5-0.4-1.2,0.2-0.8,0.6
	c0.2,0.2,0.5,0.4,0.7,0.6c-2.6,1.4-5.7,2.4-8.9,2.1c-2.9-0.3-5.4-1.8-6.5-4c-1-2.2-0.7-4.5,0.7-6.5c1.6-2.2,4.2-3.5,7.1-4.1
	c3.6-0.7,7.2-0.2,10.8,0.5c-0.5,0.2-1.1,0.5-1.6,0.7c-0.4,0.2-0.7,0.3-1.1,0.5c-0.6,0.2-0.1,1,0.5,0.8c1.7-0.7,3.3-1.5,4.9-2.3
	c2-1.1,3.8-2.2,5.7-3.4c1.8-1.2,3.6-2.4,5.4-3.7c0.8-0.6,1.5-1.2,2.3-1.8c0.6-0.5,1.6-1.2,1.6-2c0.1-0.9-0.8-1.5-1.8-1.6
	c-1.4-0.1-2.7-0.2-4.1-0.3c-1.2-0.1-2.3-0.2-3.5-0.4c-1-0.2-2.2-0.5-2.5-1.4c-0.4-0.9,0.3-1.8,1-2.4c0.6-0.4,1.3-0.6,2-0.8
	c1.8-0.4,3.7-0.5,5.6-0.4c4.4,0.1,8.9,0.8,13.1,1.9c0.3,0.1,0.5,0.1,0.8,0.2c-0.7,0.7-1.2,1.4-1.7,2.2c-0.3,0.5,0.6,1,0.9,0.4
	c0.8-1.4,2-2.7,3.6-3.5c1.6-0.8,3.7-1,5.3-0.2c1.4,0.7,2.4,2,2.1,3.4c-0.3,1.4-1.7,2.4-3.2,3c-1.6,0.6-3.4,0.6-5.2,0.5
	c-0.1,0-0.2,0-0.2,0c-0.5,0-1.1-0.1-1.6-0.1c-0.7,0-0.7,0.8,0,0.9c0.2,0,0.4,0,0.6,0c-0.7,0.6-1.3,1.2-2,1.8c-0.9,0.8-2,1.5-2.9,2.3
	c-1.8,1.6-3.6,3.2-5.1,5c-0.9,1-1.7,2-2.5,3.1c-0.4,0.5,0.6,0.9,0.9,0.4c0.2-0.3,0.4-0.5,0.6-0.8c0.2,0,0.3-0.1,0.4-0.2
	c2.4-2.8,6.3-4.5,10.4-4.6c-0.1,0.1-0.2,0.2-0.3,0.3c-1,1.2-1.7,2.5-2.2,3.9c-0.2,0.5,0.8,0.8,1,0.2c0.8-2.1,2.1-4.3,4.3-5.5
	c2-1.2,4.7-1.6,6.9-0.5c1.1,0.6,1.8,1.4,2,2.5c0,0.2,0.2,0.3,0.4,0.3c-0.2,0.6-0.4,1.2-0.7,1.8c-0.1,0.2,0.1,0.5,0.4,0.5
	c0.3,0.1,0.5-0.1,0.7-0.3c1.4-2.9,0.9-6.1,2.4-9c0.6-1.2,1.7-2.3,3.2-2.9c1.3-0.5,2.8-0.4,4,0.2c0,0,0.1,0.1,0.2,0.1
	c1.2,0.7,2,1.8,2.5,2.9c0.6,1.4,1,2.8,1,4.3c0.1,3-0.9,5.9-2.6,8.5C93.3,162,90.4,164.6,87.1,166.7L87.1,166.7z M85.4,147.1
	c-0.4,1.4-0.6,2.8-0.8,4.3c-0.9-1.7-3.1-2.8-5.3-2.9c-2.5-0.1-4.9,1-6.6,2.5c-0.1-0.1-0.2-0.2-0.5-0.2c-2.9,0-5.7,0.8-8,2.2
	c0.3-0.3,0.6-0.6,0.9-0.9c1.1-1.1,2.4-2.2,3.6-3.2c0.1,0.1,0.2,0.1,0.4,0.2C74.6,149,80.1,148.4,85.4,147.1L85.4,147.1z M94.7,122
	c0-0.4,0.1-0.9,0.1-1.3c0.4-0.2,1-0.3,1.5-0.3c0.7-0.1,1.4-0.1,2.1,0c0.5,0,1.2,0.1,1.6,0.4h0c0,0,0,0.1,0.1,0.1h0
	c0.1,0.1,0.1,0.1,0.2,0.2c0,0.1,0,0,0,0.1c0,0,0,0.1,0,0.1c0,0.1,0.1,0.2,0.1,0.4c0.1,0.4,0,0.8-0.2,1.2c0,0.1-0.2,0.3-0.3,0.4
	c0,0-0.1,0-0.1,0c-0.2,0.1-0.4,0.1-0.6,0.1c-0.9,0.1-1.9,0.1-2.8,0.4c-0.3,0.1-0.7,0.2-1,0.2c-0.1,0-0.2,0-0.3-0.1
	c-0.2-0.1-0.2-0.1-0.2-0.2c-0.1-0.2-0.2-0.4-0.2-0.6C94.7,122.6,94.7,122.3,94.7,122L94.7,122z M118.2,132.9
	c-0.8,0.3-1.5,0.7-2.2,1.1c-0.6,0.3,0,1.1,0.5,0.8c2.6-1.3,6.3-3.1,9.3-1.5c1.1,0.6,1.8,1.7,1.6,2.8c-0.3,1.1-1.4,1.9-2.6,2.3
	c-1.8,0.5-3.9,0.2-5.6-0.3c-0.6-0.2-0.9,0.7-0.3,0.9c0.2,0,0.3,0.1,0.4,0.1c0,0,0,0,0,0.1v0.1c0,0.1,0,0.1-0.1,0.2c0,0,0,0.1,0,0.1
	c0,0.1-0.1,0.1-0.1,0.2c-0.2,0.3-0.4,0.6-0.7,0.9c-0.7,0.8-1.4,1.6-2.1,2.4c-1.7,2-3.4,4.1-4.4,6.4c-0.5,1.2-0.9,2.4-0.8,3.7
	c-0.7,0.8-1.2,1.8-1.3,2.8c0,0.6,1,0.6,1.1,0c0-0.9,0.4-1.7,1.1-2.3c0.1,0,0.1-0.1,0.1-0.2c0.6-0.6,1.4-1.1,2.3-1.3
	c0.9-0.3,1.9-0.3,2.8,0c0.9,0.3,1.6,0.9,2.2,1.6c0.6,0.8,1.1,1.7,1.2,2.7c0,0.1,0,0.1,0.1,0.2c-0.1,0.2-0.2,0.4-0.4,0.6
	c-0.3,0.5,0.6,1,0.9,0.5c2.8-5.1,8.7-8.8,15.4-9.4c2-0.2,4-0.1,6,0.2c-0.1,0.3-0.1,0.5-0.2,0.8c-0.2,0.7-0.3,1.5-0.4,2.2
	c-0.1,0.5,0.9,0.8,1,0.2c0.6-2.8,1-5.7,2.4-8.2c0.7-1.2,1.6-2.4,2.9-3.3c1.1-0.8,2.6-1.4,4-0.8c1.2,0.5,1.9,1.7,2.3,2.8
	c0.5,1.2,0.7,2.5,0.9,3.8c0.2,2.6-0.1,5.2-1.2,7.7c-0.5,1.2-1.3,2.3-2.2,3.4c-0.9,1.1-2.1,2.1-3.3,3.1c-2.5,2-5.3,3.8-8.4,5.1
	c-3,1.4-6.1,2.3-9.5,2.8c-3.2,0.5-6.5,0.5-9.7,0.3c-6.5-0.5-12.8-2.4-18.2-5.4c-0.7-0.4-1.3-0.8-2-1.2c-0.2-0.1-0.5-0.2-0.7,0
	c-0.2,0.2-0.2,0.5,0,0.6c0.3,0.2,0.6,0.4,0.9,0.6c-2,3.1-6.2,5-10.5,4.7c-0.7,0-1.5-0.2-2.2-0.4c0,0,0,0,0,0
	c2.8-1.9,5.3-4.1,7.2-6.6c1.9-2.6,3.2-5.7,3.3-8.8c0-0.5,0-1,0-1.5c0,0,0.1,0,0.1-0.1c2.1-2,4.2-4.1,6.3-6.1
	c1.2-1.1,2.3-2.2,3.5-3.2c0.5-0.4,1.1-0.8,1.3-1.4c0.2-0.5,0.1-1-0.2-1.4c-0.3-0.5-1-0.8-1.6-0.8c-0.7-0.1-1.4-0.1-2,0
	c0.2-0.3,0.3-0.6,0.3-0.9c0.3-1.5-0.3-2.9-1.4-4.1c0,0,0,0,0,0C109.5,131.2,114,131.5,118.2,132.9L118.2,132.9z M105.9,138.1
	c0-0.1,0.1-0.1,0.1-0.2c0.6,0,1.2,0,1.8,0c0.5,0,1,0,1.2,0.4c0.2,0.3,0.2,0.7,0,0.9c-0.2,0.2-0.5,0.4-0.7,0.6
	c-0.3,0.2-0.6,0.5-0.9,0.7c-2.1,1.8-4.1,3.8-6.1,5.7l-2.5,2.4c-0.2-1.5-0.8-3-1.7-4.3C100.9,143.6,104.3,141.2,105.9,138.1
	L105.9,138.1z M109,120.5c-0.5,0.4-1.1,0.7-1.6,0.9c-0.5,0.2-1.1,0.5-1.7,0.5c-0.2,0-0.5,0.1-0.6,0c-0.2,0-0.3-0.1-0.4-0.2
	c-0.1-0.1-0.2-0.2-0.3-0.4c-0.1-0.2-0.1-0.4-0.2-0.6c0-0.4,0-0.7-0.1-1.1c1-0.4,1.9-1,3-1.3c0.9-0.2,2.2,0.2,2.5,1
	C109.7,120,109.3,120.2,109,120.5L109,120.5z M136.2,66.9c-0.2,1.5-1,3-2.4,4c-1.4,1.1-3.2,1.7-5.1,2c-4.7,0.6-9.1-1.4-12.3-4.1
	c-0.5-0.4-1.2,0.2-0.8,0.6c2,1.6,4.4,3.1,7,3.8c0.1,3.5-1.2,6.9-3.4,9.8c-2.3,2.9-5.7,5.2-9.6,6.4c-4.1,1.3-8.7,1.4-12.9,0.4
	c-4.1-1-7.7-3.1-10.3-5.9c-2.5-2.7-4.1-6.1-4.3-9.5c0-0.2,0-0.4,0-0.6c1.2,0,2.4-0.5,3.1-1.4c0.4-0.5-0.6-0.9-0.9-0.5
	c-0.5,0.6-1.3,1-2.2,1c-0.1-0.2-0.5-0.3-0.7-0.2c-0.7-0.2-1.3-0.8-1.5-1.4c-0.2-0.5-1.2-0.3-1,0.2c0.3,0.9,1.1,1.7,2.2,2
	c0,3.4,1.3,6.9,3.6,9.7c2.2,2.8,5.4,5.1,9,6.4c0,0.1,0.1,0.1,0.2,0.1c4.9,2.3,8.4,6.5,9.6,11.1c0.3,1.2,0.4,2.4,0.4,3.6
	c-1.3,0.2-2.4,0.7-3.4,1.5c-0.5,0.4,0.2,1,0.7,0.6c2.3-1.7,5.8-1.8,8.3-0.5c0.6,0.3,1.1-0.5,0.5-0.8c-1.2-0.7-2.7-1-4.1-1
	c0.1-0.1,0.2-0.2,0.2-0.3c-0.3-4.3,1.1-8.7,4.1-12.2c0.8-1,1.8-1.9,2.8-2.8c0.1-0.1,0.1-0.1,0.2-0.2c2.3-1.1,4.4-2.6,6.1-4.4
	c2.7-2.9,4.3-6.4,4.5-10c0-0.4,0-0.7,0-1.1c1.2,0.2,2.4,0.4,3.7,0.3c2.2-0.1,4.3-0.7,6.1-1.7c-0.5,5.7-1.1,11.3-2,16.9
	c-0.4,2.6-0.8,5.2-1.3,7.8c-0.5,2.4-1.1,4.8-1.6,7.3c-0.3,1.5-0.5,3-0.6,4.6c-1.2,0.2-2.3,0.4-3.5,0.5c-3.2,0.5-6.5,1-9.8,1.5
	c-4.4,0.7-8.8,1.3-13.2,1.8c-4.7,0.6-9.3,1.2-14,1.6c-4.1,0.4-8.2,0.8-12.3,1c-0.2,0-0.5,0-0.7,0c0.2-2-0.2-4.2-0.4-6.2
	c-0.1-1.4-0.2-2.8-0.2-4.2c0-1.4,0.1-2.7,0.1-4.1c0.2-5.4,0.3-10.9,0.3-16.3c0-5.3-0.2-10.6-0.4-15.8c-0.2-4.7-0.6-9.4-1.1-14.1
	c-0.4-3.7-0.8-7.4-1.5-11c0-0.2-0.1-0.4-0.1-0.5c2.7-0.3,5.5-0.6,8.2-0.9c3-0.4,6-0.7,9-0.8c6.2-0.3,12.4-0.4,18.6-0.4
	c3.1,0,6.3,0,9.4,0c1.5,0,3,0,4.5,0c1.5,0,3-0.1,4.5,0c1.1,0,2.3,0.2,3.4,0.4c0.9,0.1,1.9,0.3,2.7,0.8c0.7,0.4,0.9,1,1.1,1.7
	c0.3,0.8,0.4,1.6,0.6,2.4c0.9,4.5,1,9.1,0.9,13.6c0,0.5,0,1.1,0,1.6c-0.7-0.4-1.4-0.7-2.2-1c-3.9-1.2-8.4-0.4-12,1
	c-0.8,0.3-1.5,0.6-2.3,1c0.1-0.8,0.1-1.6,0.1-2.3c0-1.5-0.2-3-0.4-4.4c-0.2-1.6-0.5-3.2-1-4.8c-0.4-1.4-0.9-2.7-1.8-4
	c-0.6-0.9-1.5-1.8-2.8-2.1c-1.3-0.2-2.7,0.3-3.5,1.1c-1,1-1.5,2.3-1.8,3.6c-0.3,1.6-0.4,3.3-0.3,4.9c0.1,3,0.6,6,1.4,8.9
	c0,0.2,0.1,0.4,0.2,0.6c-0.7,0.4-1.4,0.8-2,1.3c-0.5,0.4,0.3,1,0.7,0.6c2.3-2,5.8-2.8,9-2.3c-2,1.3-3.8,2.8-5.2,4.5
	c-0.3,0.4-0.6,0.7-0.8,1.1c-0.4,0.5,0.6,0.9,0.9,0.5c2-2.8,4.8-5.2,8.3-6.7c3.2-1.5,7.3-2.5,11-2.1c1.8,0.2,3.5,0.9,4.7,2
	C135.9,63.8,136.3,65.4,136.2,66.9L136.2,66.9z M110.6,90.1c-1.5,1.4-2.7,3.1-3.6,4.8c-0.1-1.3-0.1-2.5-0.2-3.8
	c0.5-0.1,1-0.2,1.5-0.3C109.1,90.5,109.9,90.3,110.6,90.1L110.6,90.1z M105,104.2c0,0.2,0.1,0.3,0.2,0.3H105c0-2.1-0.4-4.2-1.3-6.2
	c0,0,0-0.1,0-0.2c-0.2-2.3-0.4-4.5-0.6-6.8v0c0.9,0,1.8-0.1,2.7-0.2c0.1,1.6,0.2,3.3,0.3,5c0,0.2,0.1,0.3,0.2,0.4
	c-0.5,1.3-0.9,2.6-1.1,3.9C105,101.7,104.9,102.9,105,104.2L105,104.2z M102.5,96.2c-1.1-1.6-2.4-3.1-4-4.4
	c-0.4-0.3-0.8-0.6-1.2-0.9c1.5,0.3,3.1,0.5,4.7,0.5v0C102.2,93,102.3,94.6,102.5,96.2z M116.9,62.2c0,0,0,0.1,0,0.1v0
	c0,0.1,0,0.2,0,0.2v0.1c-1.2-0.3-2.5-0.4-3.7-0.3c0-1.1-0.2-2.2-0.5-3.2c-0.2-0.5-0.3-1.1-0.6-1.6c-0.2-0.5-0.4-1-0.7-1.4
	c-0.3-0.4-0.7-0.6-1.3-0.7c-0.6-0.1-1.1,0.2-1.5,0.6c-0.3,0.4-0.5,0.9-0.5,1.4c0,0.2-0.1,0.4-0.1,0.7c-0.1-0.8-0.2-1.6-0.3-2.4
	c-0.2-1.6-0.2-3.2,0-4.9c0.1-1.3,0.4-2.7,1.1-3.8c0.3-0.5,0.6-0.9,1.1-1.2c0.2-0.1,0.5-0.3,0.7-0.3c0.1,0,0.3-0.1,0.4-0.1
	c0.1,0,0.2,0,0.2,0h0.6c0.1,0,0.1,0,0.2,0c0.3,0.1,0.3,0.1,0.6,0.2c0.2,0.1,0.4,0.2,0.6,0.4c0.2,0.2,0.3,0.3,0.5,0.5
	c0.9,1.1,1.4,2.3,1.8,3.5c0.5,1.5,0.8,3,1.1,4.5c0.2,1.5,0.4,2.9,0.5,4.4C117,60,117,61.1,116.9,62.2L116.9,62.2z M168.2,41.3
	c1.3-0.4,2.8-0.4,4.1,0.2c1.2,0.6,2,1.7,2.2,2.8c0.3,2.3-2.1,4.2-4.7,4.6c-1.8,0.3-3.6,0-5.2-0.7h-0.1c0.3-0.4,0.4-0.9,0.4-1.4
	c0-0.6-0.4-1.1-0.9-1.5c1.4-0.5,2.7-1.4,3.5-2.4C167.8,42.4,168,41.9,168.2,41.3L168.2,41.3z M163.3,36.7c1.4,0.3,2.5,1.1,3.2,2.1
	c0.7,1.1,0.8,2.2,0.1,3.3c-0.8,1.2-2.2,2.2-3.9,2.6c-1.3-1.8-3.2-3.6-5.6-4.2C157.7,38.3,160.5,36.1,163.3,36.7L163.3,36.7z
	 M143.6,70.4c-0.5,0.4,0.3,1,0.8,0.6c0.2-0.2,0.4-0.3,0.6-0.5c0.2,0.3,0.5,0.7,0.6,1.1c0.1,0.4,0.1,0.8-0.1,1.1
	c-0.2,0.3-0.7,0.4-1.1,0.4c-0.6,0-1.1-0.2-1.6-0.4c-0.1-0.1-0.2-0.1-0.3-0.1c0-1.6,0.1-3.2,0-4.9c0-3.4-0.1-6.8-0.1-10.2
	c0.1,0,0.2,0,0.2,0c0.8-0.5,1.6-0.9,2.4-1.4c0.1,0.4,0.2,0.8,0.4,1.2c0.8,1.8,2.4,3.1,4.1,4.3c0.8,0.5,1.7,1,2.6,1.5
	C149.5,65.6,146.7,68.1,143.6,70.4z M162.5,57.5c0.1,0.5,0.3,0.9,0.6,1.3c-0.9,0.9-2.2,1.1-3.4,1.3c-1.4,0.1-2.7,0-4.1,0.1
	c-0.7,0-0.7,0.9,0,0.9c1.1-0.1,2.3,0,3.6-0.1c0,1.4-1.8,2.2-3.2,2.1c-2,0-3.8-1.1-5.4-2c-1.5-0.9-2.9-2-3.8-3.5
	c-0.8-1.3-1.1-3.1-0.3-4.4c0.8-1.3,2.7-2.2,4.4-2.3h0c0.3,0.9,0.8,1.8,1.4,2.5c0.2,0.2,0.5,0.3,0.7,0.2c0.2-0.1,0.4-0.4,0.2-0.6
	c-1.1-1.2-1.6-2.7-1.6-4.3c0-0.1-0.1-0.2-0.2-0.3c-0.8-2-1.7-4.8,0.6-6.3c2.1-1.4,5-0.9,6.9,0.3c1.2,0.7,2.1,1.8,2.9,2.8
	c-0.2,0.1-0.4,0.3-0.3,0.5c0.1,0.2,0.4,0.4,0.7,0.3c0.5-0.2,1,0,1.2,0.4c0.3,0.5,0.2,1.1-0.1,1.5c-0.5,0.9-1.6,1.6-2.7,1.9
	c-2.3,0.6-4.9-0.5-5.7-2.4c-0.2-0.5-1.3-0.3-1,0.2c0.8,1.9,3.2,3.4,5.7,3.2c1.3-0.1,2.4-0.5,3.4-1.1c0.3-0.2,0.6-0.4,0.8-0.7
	c0,0,0.1,0,0.1,0c0.7,0.3,1.3,0.5,2,0.6c-2,0-3.6,1.5-3.4,3.2c0,1,0.6,1.8,1.4,2.5C162.9,55.6,162.3,56.6,162.5,57.5L162.5,57.5z
	 M169,59.6c-1.8,0.5-4.2,0-5.2-1.5c-0.5-0.8-0.4-2,0.9-2.2c0,0,0.1,0,0.1,0c0.5,0.2,1,0.4,1.5,0.5c1.8,0.4,3.7,0.1,5.4-0.5
	C171.8,57.5,170.8,59.1,169,59.6L169,59.6z M176.1,51c-0.2,1.5-1.5,2.7-3,3.4c-1.6,0.8-3.5,1.3-5.3,1.3c-1.7-0.1-3.4-0.8-4-2.2
	c-0.3-0.7-0.3-1.4,0.2-2c0.4-0.6,1.2-1,2-0.9c0.6,0,0.7-0.6,0.3-0.8c2.6,0.5,5.4,0.2,7.3-1.4c0,0,0.1,0,0.1,0
	C175.3,48.4,176.2,49.8,176.1,51L176.1,51z"/>
<path d="M99.2,64.3c-0.5-0.3-1.1-0.5-1.7-0.7c0,0,0,0,0-0.1c0-2.2-0.2-4.4-0.4-6.6c-0.4-2.7-0.9-5.5-2.1-8c-1-2-3-4.7-6.1-3.4
	c-2.1,0.9-3.1,2.9-3.4,4.7c-0.3,1.5-0.2,3-0.1,4.6c0.2,1.7,0.5,3.5,0.9,5.2c0.4,1.5,0.9,3,1.7,4.5c0.2,0.3,0.3,0.5,0.5,0.8
	c0,0,0,0,0,0c-0.3,0.2-0.6,0.5-0.9,0.7c-0.5,0.4,0.3,1.1,0.8,0.6c1.2-1.1,2.9-2,4.6-2.4c1.9-0.4,4,0,5.6,0.8
	C99.2,65.4,99.7,64.6,99.2,64.3L99.2,64.3z M96.4,63.4c-1-0.2-2-0.2-3-0.1c0.1-1,0-2-0.1-3.1c-0.2-1.1-0.5-2.3-1.5-3.2
	c-0.6-0.5-1.4-1-2.3-0.8c-0.5,0.1-0.9,0.5-1.1,0.9c-0.6,0.9-0.9,2-0.8,3c0,0.1,0,0.1,0,0.2c-0.4-1.4-0.7-2.7-0.9-4.1
	c-0.2-1.5-0.4-3.1-0.2-4.6c0.1-1.6,0.5-3.3,1.8-4.5c0.7-0.6,1.7-1.2,2.7-1c0.4,0.1,0.8,0.3,1.1,0.5c0.8,0.6,1.4,1.5,1.8,2.3
	c1.2,2.3,1.7,4.9,2.1,7.4c0.3,2.2,0.5,4.5,0.5,6.7L96.4,63.4L96.4,63.4z"/>
</svg>
