<?xml version="1.0" encoding="utf-8"?>
<!-- Generator: Adobe Illustrator 27.2.0, SVG Export Plug-In . SVG Version: 6.00 Build 0)  -->
<svg version="1.1" id="_Слой_2" xmlns="http://www.w3.org/2000/svg" xmlns:xlink="http://www.w3.org/1999/xlink" x="0px"
	 y="0px" viewBox="0 0 180 177.1" style="enable-background:new 0 0 180 177.1;" xml:space="preserve">
<style type="text/css">
	.st0{fill:#E9BB00;}
	.st1{fill:none;}
</style>
<path class="st0" d="M167.8,177.1H12.2c-6.7,0-12.2-5.5-12.2-12.2V12.2C0,5.5,5.5,0,12.2,0h155.6c6.7,0,12.2,5.5,12.2,12.2v152.7
	C180,171.7,174.5,177.1,167.8,177.1z"/>
<path class="st1" d="M97.6,141l2.2-2.1c1.7-1.7,3.5-3.4,5.3-5c0.2-0.2,0.5-0.4,0.7-0.6c0.2-0.2,0.5-0.3,0.6-0.5
	c0.2-0.2,0.2-0.6,0-0.8c-0.2-0.3-0.7-0.3-1.1-0.3c-0.5,0-1.1,0-1.6,0c0,0.1,0,0.1-0.1,0.2c-1.4,2.7-4.3,4.8-7.7,5.6
	C96.9,138.4,97.4,139.7,97.6,141L97.6,141z"/>
<path class="st1" d="M71.8,141c-0.2,0-0.2-0.1-0.3-0.1c-1.1,0.9-2.2,1.8-3.2,2.8c-0.3,0.3-0.5,0.6-0.8,0.8c2-1.2,4.5-1.9,7-1.9
	c0.2,0,0.3,0.1,0.4,0.2c1.5-1.3,3.5-2.3,5.8-2.2c1.9,0.1,3.8,1.1,4.6,2.6c0.2-1.2,0.4-2.5,0.7-3.7C81.4,140.7,76.6,141.2,71.8,141
	L71.8,141z"/>
<path class="st0" d="M54.4,20.7C53.5,21,52.7,21.4,52,22c-0.7,0.6-1.3,1.2-1.5,2c-0.2,0.6,0,1.5,0.8,1.7c0.8,0.2,1.7-0.1,2.3-0.5
	c0.7-0.6,1.1-1.4,1.5-2.1c0,0,0-0.1,0.1-0.1c-0.1-0.1-0.1-0.2-0.1-0.3C54.7,21.9,54.5,21.3,54.4,20.7z"/>
<path class="st0" d="M61.7,24.6c0.4-0.5,0.6-1.1,0.4-1.7c-0.1-0.7-0.6-1.4-1-2c0,0,0-0.1,0-0.1c-0.5,0.2-1,0.3-1.6,0.4
	c-0.6,0.1-0.8-0.6-0.2-0.7c1.5-0.3,2.9-0.9,4.2-1.6c0.6-0.3,1.1-0.7,1.6-1.1c0.5-0.4,1-0.8,1.2-1.4c0.2-0.5,0.1-1-0.5-1.3
	c-0.5-0.3-1.2-0.3-1.8-0.2c-1.3,0.3-2.4,1-3.4,1.7c-1,0.7-1.7,1.6-2.3,2.6c-0.3,0.5-1.1,0.1-0.8-0.4c0.2-0.3,0.4-0.7,0.6-1
	c-0.5-0.3-1.4-0.3-2-0.1c-0.8,0.2-1.1,1-1.1,1.6c0,0.6,0.2,1.3,0.4,1.9c0.2,0.5,0.4,1,0.6,1.5c0.5,0.9,1.2,1.8,2.3,2.2
	c0.5,0.2,1.1,0.2,1.6,0.2C60.8,25.3,61.3,25.2,61.7,24.6z"/>
<path class="st0" d="M104.7,90.7c0.1,1.1,0.1,2.2,0.2,3.3c0.8-1.5,1.8-2.9,3.1-4.1c-0.6,0.2-1.3,0.4-2,0.6
	C105.6,90.5,105.1,90.6,104.7,90.7L104.7,90.7z"/>
<path class="st0" d="M104.2,95.5c-0.1-0.1-0.2-0.2-0.2-0.3c-0.1-1.4-0.2-2.9-0.2-4.3c-0.8,0.1-1.6,0.2-2.3,0.2v0
	c0.2,2,0.3,4,0.5,5.9c0,0.1,0,0.1,0,0.2c0.8,1.7,1.1,3.6,1.1,5.4h0.2c-0.1-0.1-0.2-0.2-0.2-0.3c-0.1-1.1,0-2.2,0.2-3.3
	C103.4,97.7,103.7,96.6,104.2,95.5L104.2,95.5z"/>
<path class="st0" d="M96.3,90.6c0.3,0.2,0.7,0.5,1,0.8c1.4,1.1,2.6,2.4,3.5,3.8c-0.1-1.4-0.2-2.8-0.4-4.1v0
	C99.1,91,97.7,90.9,96.3,90.6z"/>
<path class="st0" d="M104.8,114.6c-0.9,0.2-1.7,0.8-2.6,1.1c0,0.3,0,0.6,0.1,0.9c0,0.1,0.1,0.3,0.1,0.5c0.1,0.1,0.2,0.2,0.2,0.3
	c0.1,0.1,0.2,0.1,0.3,0.2c0.1,0,0.4,0,0.6,0c0.5-0.1,1-0.3,1.5-0.5c0.5-0.2,1-0.5,1.4-0.8c0.3-0.2,0.6-0.5,0.5-0.8
	C106.8,114.8,105.6,114.5,104.8,114.6L104.8,114.6z"/>
<path class="st0" d="M94.5,119.2c0.1,0,0.2,0.1,0.3,0.1c0.3,0,0.6-0.1,0.9-0.1c0.8-0.2,1.6-0.2,2.4-0.3c0.2,0,0.4,0,0.6-0.1
	c0,0,0.1,0,0.1,0c0.1-0.1,0.2-0.2,0.2-0.3c0.2-0.3,0.2-0.7,0.1-1.1c0-0.1,0-0.2-0.1-0.3c0,0,0-0.1,0-0.1c0-0.1,0,0,0-0.1
	c0-0.1-0.1-0.1-0.1-0.2h0l-0.1-0.1h0c-0.4-0.2-0.9-0.3-1.4-0.3c-0.6-0.1-1.2,0-1.9,0c-0.4,0-0.9,0.1-1.3,0.3c0,0.4-0.1,0.8-0.1,1.1
	c0,0.3,0,0.6,0,0.8c0,0.2,0.1,0.4,0.2,0.6C94.3,119.1,94.3,119.2,94.5,119.2L94.5,119.2z"/>
<path class="st0" d="M104.4,129.9c0,0.3-0.1,0.6-0.3,0.8c0.6,0,1.2,0,1.8,0c0.6,0,1.1,0.3,1.4,0.7c0.2,0.3,0.3,0.8,0.2,1.2
	c-0.2,0.5-0.7,0.9-1.2,1.2c-1.1,0.9-2.1,1.8-3.1,2.8c-1.8,1.7-3.6,3.5-5.4,5.3c0,0-0.1,0.1-0.1,0.1c0,0.5,0,0.9,0,1.3
	c-0.1,2.7-1.2,5.3-2.9,7.6c-1.6,2.2-3.8,4.1-6.2,5.7c0,0,0,0,0,0c0.6,0.2,1.3,0.3,1.9,0.4c3.7,0.3,7.4-1.3,9.1-4.1
	c-0.3-0.2-0.5-0.3-0.8-0.5c-0.2-0.1-0.2-0.4,0-0.6c0.2-0.2,0.5-0.1,0.6,0c0.6,0.4,1.1,0.7,1.7,1.1c4.7,2.6,10.2,4.3,15.9,4.7
	c2.8,0.2,5.7,0.1,8.5-0.3c2.9-0.4,5.7-1.2,8.2-2.4c2.7-1.2,5.1-2.7,7.3-4.5c1-0.8,2-1.7,2.8-2.7c0.8-0.9,1.4-1.9,1.9-3
	c1-2.1,1.3-4.4,1.1-6.7c-0.1-1.1-0.3-2.2-0.7-3.3c-0.3-0.9-0.9-1.9-2-2.4c-1.2-0.5-2.6,0-3.5,0.7c-1.1,0.8-1.9,1.8-2.5,2.9
	c-1.2,2.3-1.6,4.8-2.1,7.2c-0.1,0.5-1,0.3-0.9-0.2c0.1-0.6,0.2-1.3,0.4-1.9c0.1-0.2,0.1-0.4,0.2-0.7c-1.7-0.3-3.5-0.3-5.2-0.2
	c-5.8,0.5-11,3.7-13.4,8.2c-0.2,0.4-1.1,0.1-0.8-0.4c0.1-0.2,0.2-0.4,0.3-0.5c0-0.1,0-0.1-0.1-0.2c-0.1-0.8-0.5-1.6-1.1-2.3
	c-0.5-0.6-1.1-1.1-1.9-1.4c-0.8-0.3-1.6-0.2-2.4,0c-0.8,0.2-1.5,0.6-2,1.2c0,0.1-0.1,0.1-0.1,0.1c-0.6,0.6-0.9,1.3-0.9,2
	c0,0.5-1,0.5-0.9,0c0.1-0.9,0.4-1.8,1.1-2.5c0-1.1,0.3-2.2,0.7-3.2c0.9-2,2.4-3.8,3.9-5.5c0.6-0.7,1.2-1.4,1.8-2.1
	c0.2-0.3,0.4-0.5,0.6-0.8c0-0.1,0.1-0.1,0.1-0.2c0,0,0-0.1,0-0.1c0-0.1,0-0.1,0.1-0.2v-0.1c0,0,0,0,0-0.1c-0.1,0-0.2-0.1-0.4-0.1
	c-0.6-0.2-0.3-0.9,0.2-0.7c1.5,0.5,3.3,0.8,4.9,0.3c1.1-0.3,2-1,2.3-2c0.2-1-0.4-1.9-1.4-2.4c-2.6-1.5-5.8,0.1-8.1,1.3
	c-0.5,0.2-1-0.4-0.5-0.7c0.6-0.3,1.3-0.7,1.9-0.9c-3.6-1.2-7.6-1.4-11.3-0.7c0,0,0,0,0,0C104.1,127.4,104.6,128.7,104.4,129.9
	L104.4,129.9z"/>
<path class="st0" d="M94.6,149.8c1.5-2.2,2.3-4.8,2.2-7.4c0-1.3-0.3-2.6-0.9-3.7c-0.4-1-1.1-1.9-2.2-2.5c-0.1,0-0.1,0-0.1-0.1
	c-1.1-0.6-2.3-0.7-3.5-0.2c-1.3,0.5-2.2,1.5-2.8,2.5c-1.3,2.5-0.8,5.3-2.1,7.8c-0.1,0.2-0.3,0.3-0.6,0.3c-0.2-0.1-0.4-0.3-0.3-0.5
	c0.3-0.5,0.4-1,0.6-1.6c-0.1,0-0.3-0.1-0.3-0.3c-0.2-0.9-0.9-1.7-1.8-2.2c-1.9-1-4.3-0.6-6,0.4c-1.9,1.1-3.1,3-3.8,4.8
	c-0.2,0.5-1.1,0.3-0.9-0.2c0.5-1.2,1.1-2.4,1.9-3.4c0.1-0.1,0.2-0.2,0.2-0.3c-3.5,0.1-7,1.6-9,4c-0.1,0.1-0.2,0.2-0.4,0.2
	c-0.2,0.2-0.4,0.5-0.6,0.7c-0.3,0.4-1.1,0-0.8-0.4c0.7-0.9,1.4-1.8,2.2-2.7c1.4-1.6,2.8-3,4.4-4.4c0.8-0.7,1.7-1.3,2.5-2
	c0.6-0.5,1.2-1,1.8-1.5c-0.2,0-0.4,0-0.6,0c-0.6-0.1-0.6-0.8,0-0.8c0.5,0,1,0.1,1.4,0.1c0.1,0,0.1,0,0.2,0c1.5,0.1,3.1,0.1,4.5-0.4
	c1.3-0.5,2.5-1.4,2.8-2.6c0.3-1.2-0.6-2.3-1.8-2.9c-1.4-0.7-3.2-0.5-4.6,0.2c-1.5,0.7-2.5,1.8-3.2,3.1c-0.2,0.5-1.1,0.1-0.8-0.4
	c0.4-0.7,0.9-1.3,1.5-1.9c-0.2-0.1-0.4-0.1-0.7-0.2c-3.7-1-7.6-1.6-11.4-1.7c-1.6,0-3.3,0-4.9,0.4c-0.6,0.1-1.2,0.3-1.7,0.7
	c-0.7,0.5-1.2,1.3-0.9,2.1c0.3,0.8,1.4,1.1,2.2,1.2c1,0.2,2,0.3,3,0.4c1.2,0.1,2.4,0.2,3.6,0.2c0.9,0,1.7,0.6,1.6,1.4
	c-0.1,0.7-0.9,1.2-1.4,1.7c-0.6,0.5-1.3,1-2,1.6c-1.5,1.1-3.1,2.2-4.7,3.2c-1.6,1-3.3,2-5,2.9c-1.4,0.7-2.8,1.4-4.3,2
	c-0.5,0.2-1-0.5-0.5-0.7c0.3-0.1,0.7-0.3,1-0.4c0.5-0.2,0.9-0.4,1.4-0.6c-3.1-0.6-6.2-1-9.4-0.4c-2.5,0.5-4.8,1.7-6.2,3.5
	c-1.3,1.7-1.5,3.8-0.6,5.7c1,2,3.2,3.2,5.7,3.5c2.8,0.3,5.4-0.6,7.7-1.8c-0.2-0.2-0.4-0.3-0.6-0.5c-0.4-0.4,0.3-0.9,0.7-0.6
	c0.5,0.4,1,0.9,1.5,1.2c4.3,3.2,9.8,5.2,15.5,5.8c6.1,0.6,12.3-0.4,17.8-2.6c2.1-0.9,4.2-1.9,6.1-3.1c1.3-0.8,1.3-0.8,0,0
	C90.3,154.7,92.9,152.5,94.6,149.8L94.6,149.8z"/>
<path class="st0" d="M40.5,69.2c1-1.5,1.2-3.4,0.3-4.9c-0.8-1.3-2.3-2.3-4.1-2.4c0,0.1,0,0.2,0,0.4c-0.1,0.5-0.1,1-0.3,1.4
	c-0.2,0.5-1.1,0.3-0.9-0.2c0.2-0.5,0.2-0.9,0.3-1.4c0.1-0.8,0.1-1.5,0.1-2.3c0-1.4,0-2.9-0.3-4.3c-0.1-0.6-0.3-1.2-0.5-1.7
	c-0.4-0.9-0.8-1.8-1.6-2.5c-0.7-0.6-1.8-1.1-2.9-1.1c-1.1-0.1-2.1,0.3-2.8,1c-1.4,1.3-1.4,3.2-1.2,4.9c0.1,0,0.2,0,0.2,0
	c0.2,0,0.5,0.1,0.6,0.3c0.1,0.2-0.1,0.5-0.3,0.5c-0.5,0.1-0.9,0-1.4-0.1c-0.3-0.1-0.6-0.2-0.9,0c-0.9,0.3-1.8,1-2.1,1.8
	c-0.3,0.7-0.1,1.5,0.3,2.2c0.4,0.7,0.9,1.4,1.6,1.9c0.1,0,0.3,0.1,0.3,0.2c0.7-0.2,1.5,0,2.1,0.3c0,0,0,0,0,0
	c1.3-0.1,2.6-0.5,3.5-1.2c0.9-0.7,1.4-1.9,1.4-2.9c0-0.5,0.9-0.5,0.9,0c0,1.3-0.6,2.6-1.7,3.5c-0.9,0.7-2.1,1.2-3.4,1.3
	c0.2,0.2,0.3,0.5,0.4,0.7c0.4,1.2-0.4,2.5-1.5,3.3c1,1,2.4,1.5,3.9,1.4c0.6,0,0.6,0.8,0,0.8c-1,0-2.1-0.2-2.9-0.6
	c-0.3,0.7-0.3,1.5,0.1,2.2c0.5,0.8,1.3,1.4,2.3,1.7c2,0.7,4.3,0.2,6.2-0.6C38,71.8,39.6,70.7,40.5,69.2L40.5,69.2z"/>
<path class="st0" d="M51.7,79.4c-1.1-0.7-2.2-1.5-3.2-2.4c-1.7-1.4-3.3-3-4.8-4.6c-0.9-0.9-1.7-1.9-2.5-2.9
	c-0.1,0.2-0.3,0.4-0.4,0.6c-1.3,1.6-3.3,2.8-5.4,3.5c-0.1,0-0.2,0.1-0.3,0.1c0.7,0.8,1.6,1.5,2.2,2.3c0.6-0.3,1.2-0.4,1.9-0.5
	c0.6,0,0.6,0.8,0,0.8c-1.2,0.1-2.3,0.7-2.9,1.5c-1.2,1.7-0.2,3.9,1.7,4.9c1.1,0.6,2.4,0.8,3.4,0.1c1-0.7,1.5-1.8,1.8-2.8
	c0.2-0.5,1.1-0.3,0.9,0.2c-0.3,0.8-0.7,1.7-1.3,2.4c0.7,0.7,1.5,1.4,2.2,2.1c0.9,0.9,1.9,1.6,2.8,2.4c1.1,0,2.1-0.2,3.1-0.6
	c1.2-0.6,1.9-1.5,2.3-2.6C53.7,82.4,53.2,80.7,51.7,79.4L51.7,79.4z"/>
<path class="st0" d="M156.5,60.6c-0.5-0.1-0.9-0.2-1.3-0.5c0,0-0.1,0-0.1,0c-1.1,0.2-1.2,1.2-0.8,1.9c0.9,1.3,2.9,1.7,4.5,1.3
	c1.6-0.5,2.5-1.8,2.4-3.2C159.7,60.7,158,60.9,156.5,60.6L156.5,60.6z"/>
<path class="st0" d="M162.9,53.5C162.9,53.5,162.8,53.4,162.9,53.5c-1.8,1.4-4.2,1.7-6.5,1.2c0.3,0.2,0.2,0.7-0.2,0.7
	c-0.7,0-1.4,0.3-1.8,0.8c-0.4,0.5-0.4,1.2-0.2,1.8c0.5,1.2,2,1.9,3.5,1.9c1.6,0.1,3.2-0.4,4.6-1.1c1.3-0.6,2.5-1.7,2.6-3
	C165.1,54.8,164.3,53.6,162.9,53.5L162.9,53.5z"/>
<path class="st0" d="M154.3,50.9c0.5,0.3,0.8,0.8,0.8,1.3c0,0.4-0.1,0.8-0.3,1.2h0.1c1.4,0.6,3,0.9,4.6,0.6c2.2-0.3,4.3-1.9,4.1-4
	c-0.1-1-0.8-1.9-1.9-2.4c-1.1-0.5-2.4-0.6-3.5-0.2c-0.1,0.5-0.3,1-0.7,1.4C156.6,49.8,155.5,50.5,154.3,50.9L154.3,50.9z"/>
<path class="st0" d="M153.4,50.4c1.4-0.3,2.7-1.2,3.4-2.3c0.6-1,0.5-2-0.1-2.9c-0.6-0.9-1.6-1.5-2.8-1.8c-2.5-0.5-4.9,1.4-5.3,3.3
	C150.6,47.3,152.3,48.8,153.4,50.4L153.4,50.4z"/>
<path class="st0" d="M154.3,59.5c-0.7-0.6-1.1-1.3-1.2-2.1c-0.1-1.4,1.3-2.7,3-2.7c-0.6-0.1-1.2-0.3-1.8-0.5c0,0,0,0-0.1,0
	c-0.2,0.2-0.5,0.4-0.7,0.6c-0.8,0.6-1.9,0.9-3,1c-2.2,0.1-4.2-1.1-4.9-2.8c-0.2-0.5,0.7-0.7,0.9-0.2c0.7,1.7,2.9,2.6,5,2.1
	c1-0.2,1.9-0.8,2.4-1.6c0.2-0.4,0.4-0.9,0.1-1.3c-0.2-0.3-0.7-0.5-1.1-0.4c-0.2,0.1-0.5-0.1-0.6-0.3c-0.1-0.2,0-0.3,0.2-0.4
	c-0.6-0.9-1.5-1.8-2.5-2.4c-1.7-1.1-4.2-1.5-6-0.3c-2,1.3-1.2,3.8-0.5,5.5c0.1,0.1,0.1,0.2,0.1,0.3c-0.1,1.4,0.4,2.7,1.4,3.7
	c0.1,0.2,0,0.4-0.2,0.5c-0.2,0.1-0.5,0-0.6-0.1c-0.6-0.6-1-1.4-1.2-2.2h0c-1.5,0.1-3.2,0.9-3.9,2c-0.7,1.2-0.5,2.7,0.2,3.8
	c0.7,1.2,2,2.2,3.3,3c1.4,0.8,2.9,1.7,4.7,1.8c1.3,0,2.8-0.6,2.8-1.8c-1.1,0.1-2.2,0-3.1,0.1c-0.6,0-0.6-0.7,0-0.8
	c1.2-0.1,2.4,0,3.6-0.1c1.1-0.1,2.2-0.3,3-1.1c-0.3-0.3-0.5-0.7-0.5-1.2C153,60.7,153.4,59.9,154.3,59.5L154.3,59.5z"/>
<path class="st0" d="M138.2,61.3c-0.1-0.3-0.3-0.7-0.3-1c-0.7,0.4-1.4,0.8-2.1,1.2c-0.1,0-0.1,0-0.2,0c0,3,0.1,5.9,0.1,8.9
	c0,1.4,0,2.8,0,4.2c0.1,0,0.2,0,0.3,0.1c0.4,0.2,0.9,0.4,1.4,0.4c0.4,0,0.7-0.1,1-0.4c0.2-0.3,0.2-0.6,0.1-1s-0.3-0.6-0.5-0.9
	c-0.2,0.1-0.4,0.3-0.5,0.4c-0.4,0.3-1.1-0.2-0.7-0.6c2.6-2,5.1-4.2,7.4-6.4c-0.8-0.4-1.5-0.8-2.3-1.3
	C140.3,64,138.9,62.9,138.2,61.3z"/>
<path class="st0" d="M63.2,43.4c-0.8-1.1-1.5-2.2-2-3.4c-1.1-2.4-1.7-5-1.8-7.6c0-2.1,0.3-4.2,1.2-6.2c-1.1,1.4-2,2.8-2.9,4.2
	c-3,5.3-4.7,11.1-5,16.9c0.6-0.3,1.1-0.6,1.8-0.8h0c1.5-0.6,3.1-1.2,4.7-1.8C60.6,44.3,61.9,43.8,63.2,43.4z"/>
<path class="st0" d="M112.1,55.1c-0.3-1.1-0.8-2.1-1.5-3c-0.1-0.2-0.2-0.3-0.4-0.4c-0.2-0.2-0.3-0.2-0.5-0.3
	c-0.2-0.1-0.3-0.2-0.5-0.2c-0.1,0-0.1,0-0.2,0h-0.5c-0.1,0-0.1,0-0.2,0c-0.1,0-0.3,0.1-0.4,0.1c-0.1,0-0.4,0.2-0.6,0.3
	c-0.4,0.2-0.7,0.6-1,1c-0.6,1-0.8,2.2-1,3.3c-0.1,1.4-0.1,2.8,0,4.2c0.1,0.7,0.1,1.4,0.2,2.1c0-0.2,0-0.4,0.1-0.6
	c0.1-0.4,0.2-0.9,0.5-1.2c0.3-0.3,0.8-0.6,1.3-0.5c0.5,0,0.8,0.3,1.1,0.6c0.3,0.3,0.5,0.8,0.6,1.2c0.2,0.5,0.4,0.9,0.5,1.4
	c0.3,0.9,0.4,1.9,0.4,2.8c1.1-0.1,2.2,0,3.2,0.2V66c0-0.1,0-0.1,0-0.2v0c0,0,0-0.1,0-0.1c0.1-1,0.1-1.9,0.1-2.8
	c-0.1-1.3-0.2-2.5-0.4-3.8C112.8,57.7,112.6,56.4,112.1,55.1L112.1,55.1z"/>
<path class="st0" d="M78.8,37.3c3.2-2.2,6.5-4.5,9.7-6.7c0.3-0.2,0.7-0.5,1-0.7c-1.4-1.2-2.9-2.3-4.6-3.2c-3.3-1.8-7.1-2.9-10.9-3.4
	c-3.7-0.5-7.6-0.2-11.1,1c0,0.1-0.1,0.2-0.2,0.3c1.5,0.2,2.9,0.6,4.2,1.1C72.6,28.3,75.8,32.9,78.8,37.3L78.8,37.3z"/>
<path class="st0" d="M124.8,64.3c-3.3-0.4-6.8,0.5-9.6,1.8c-3,1.4-5.5,3.4-7.2,5.9c-0.3,0.4-1.1,0-0.8-0.4c0.2-0.3,0.5-0.6,0.7-1
	c1.2-1.5,2.8-2.8,4.5-3.9c-2.8-0.5-5.8,0.3-7.9,2c-0.4,0.3-1.1-0.2-0.6-0.6c0.5-0.5,1.1-0.8,1.8-1.2c-0.1-0.2-0.1-0.3-0.1-0.5
	c-0.6-2.5-1.1-5.2-1.2-7.8c-0.1-1.4,0-2.9,0.2-4.3c0.2-1.1,0.6-2.3,1.5-3.2c0.7-0.7,1.9-1.2,3.1-1c1.1,0.2,1.9,1,2.4,1.8
	c0.7,1.1,1.2,2.3,1.5,3.5c0.4,1.4,0.7,2.8,0.9,4.2c0.2,1.3,0.3,2.6,0.3,3.9c0,0.7,0,1.4-0.1,2c0.6-0.3,1.3-0.6,2-0.9
	c3.2-1.2,7.1-1.9,10.4-0.9c0.7,0.2,1.3,0.5,1.9,0.9c0-0.5,0-0.9,0-1.4c0-3.9,0-7.9-0.8-11.8c-0.1-0.7-0.3-1.4-0.5-2.1
	c-0.2-0.6-0.4-1.1-1-1.4c-0.7-0.4-1.6-0.6-2.4-0.7c-1-0.1-2-0.3-3-0.3c-1.3-0.1-2.6,0-3.9,0c-1.3,0-2.6,0-4,0c-2.7,0-5.5,0-8.2,0
	c-5.4,0-10.8,0.1-16.2,0.4c-2.7,0.1-5.2,0.4-7.9,0.7c-2.4,0.3-4.8,0.6-7.2,0.8c0,0.2,0.1,0.3,0.1,0.5c0.6,3.2,1,6.4,1.3,9.6
	c0.4,4.1,0.7,8.2,0.9,12.3c0.2,4.6,0.3,9.2,0.4,13.8c0,4.8,0,9.5-0.2,14.2c0,1.2-0.1,2.3-0.1,3.5c0,1.2,0.1,2.4,0.2,3.6
	c0.2,1.8,0.5,3.6,0.3,5.4c0.2,0,0.4,0,0.6,0c3.6-0.2,7.2-0.5,10.7-0.9c4.1-0.4,8.1-0.9,12.2-1.4c3.8-0.5,7.7-1,11.5-1.6
	c2.8-0.4,5.7-0.8,8.5-1.3c1-0.2,2-0.3,3-0.5c0.1-1.3,0.3-2.7,0.6-4c0.4-2.1,1-4.2,1.4-6.3c0.4-2.3,0.8-4.5,1.1-6.8
	c0.7-4.9,1.3-9.8,1.7-14.7c-1.5,0.9-3.4,1.4-5.3,1.5c-1.1,0-2.2-0.1-3.2-0.3c0,0.3,0,0.6,0,0.9c-0.2,3.2-1.6,6.2-4,8.7
	c-1.5,1.6-3.2,2.9-5.3,3.9c0,0.1-0.1,0.1-0.1,0.2c-0.9,0.7-1.7,1.5-2.5,2.4c-2.6,3.1-3.8,6.9-3.6,10.6c0,0.1-0.1,0.2-0.2,0.3
	c1.3,0,2.5,0.3,3.6,0.9c0.5,0.3,0,1-0.5,0.7c-2.2-1.2-5.3-1-7.2,0.4c-0.4,0.3-1.1-0.2-0.6-0.6c0.9-0.6,1.9-1.1,3-1.3
	c0-1.1-0.1-2.1-0.3-3.2c-1-4-4.1-7.6-8.4-9.6c-0.1,0-0.1-0.1-0.2-0.1c-3.2-1.2-5.9-3.1-7.9-5.6c-2-2.5-3.1-5.5-3.2-8.5
	c-0.9-0.3-1.7-1-1.9-1.8c-0.2-0.5,0.7-0.7,0.9-0.2c0.2,0.5,0.6,1,1.3,1.2c0.2-0.1,0.5-0.1,0.6,0.1c0.8,0,1.5-0.3,1.9-0.9
	c0.3-0.4,1.1,0,0.8,0.4c-0.6,0.8-1.6,1.2-2.7,1.2c0,0.2,0,0.4,0,0.6c0.2,3,1.5,5.9,3.7,8.3c2.3,2.4,5.4,4.3,9,5.1
	c3.7,0.9,7.7,0.7,11.2-0.4c3.4-1.1,6.4-3.1,8.4-5.6c2-2.5,3.1-5.5,3-8.5c-2.3-0.6-4.4-1.9-6.1-3.3c-0.4-0.4,0.2-0.9,0.7-0.6
	c2.8,2.3,6.6,4.1,10.7,3.5c1.6-0.2,3.2-0.8,4.4-1.7c1.2-0.9,1.9-2.1,2.1-3.5c0.2-1.3-0.2-2.6-1.2-3.6
	C127.9,65,126.4,64.5,124.8,64.3L124.8,64.3z M97.5,68.1c-1.4-0.8-3.3-1.1-4.9-0.7c-1.5,0.3-3,1.1-4,2.1c-0.4,0.4-1.1-0.2-0.7-0.5
	c0.2-0.2,0.5-0.4,0.8-0.6c0,0,0,0,0,0c-0.2-0.2-0.3-0.5-0.4-0.7c-0.7-1.2-1.1-2.6-1.5-3.9c-0.4-1.5-0.7-3-0.8-4.5
	c-0.1-1.3-0.2-2.7,0.1-4c0.3-1.6,1.2-3.3,3-4.1c2.7-1.2,4.4,1.2,5.3,2.9c1.1,2.2,1.5,4.6,1.8,7c0.3,1.9,0.4,3.9,0.4,5.8
	c0,0,0,0,0,0.1c0.5,0.2,1,0.4,1.5,0.6C98.5,67.7,98,68.4,97.5,68.1L97.5,68.1z"/>
<path class="st0" d="M67.7,124.8c0-0.5,0-1.1,0-1.6c0.1-3,0.3-5.9,0.5-8.9c0.2-3.4,0.3-6.9,0.4-10.3c0.1-6.9,0.1-13.8-0.1-20.7
	c-0.1-6.1-0.3-12.1-0.4-18.2c-0.1-2.5-0.1-5-0.1-7.4c0-2.8-0.2-5.6-0.8-8.4c-0.3-1.4-0.7-2.8-1.2-4.1c-0.2-0.6-0.5-1.2-0.5-1.8
	c-0.1,0-0.2,0.1-0.3,0.1c-1,0.4-2.1,0.7-3.1,1.1c-2.3,0.8-4.6,1.6-6.8,2.6c0.1,0.6,0.2,1.2,0.2,1.8c0.4,2.6,1.1,5.2,1.4,7.8
	c0.2,1.3,0.2,2.5,0.4,3.8c0.2,1.3,0.4,2.6,0.6,3.9c0.1,1.3,0.2,2.5,0.4,3.8c0.2,1.3,0.4,2.5,0.6,3.8c0.2,2.6,0.2,5.2,0.2,7.8
	c-0.1,2.6-0.2,5.3-0.2,7.9c0,2.7,0,5.4,0,8.1c0,4.3,0,8.6-0.2,12.9c-0.1,3.8-0.3,7.7-0.3,11.6v0.2c0,0.4,0.1,0.8,0.3,1.2
	c0.5,0.7,1.5,1.1,2.4,1.5c1,0.4,2,0.6,3.1,0.9C65.3,124.3,66.5,124.6,67.7,124.8L67.7,124.8z"/>
<path class="st0" d="M93.3,54c-0.4-0.7-0.9-1.5-1.6-2c-0.3-0.2-0.6-0.3-0.9-0.4c-0.9-0.2-1.8,0.4-2.4,0.9c-1.1,1-1.5,2.6-1.6,3.9
	c-0.1,1.3,0,2.7,0.2,4c0.2,1.2,0.4,2.4,0.8,3.6c0,0,0-0.1,0-0.1c-0.1-0.9,0.2-1.8,0.7-2.6c0.2-0.3,0.5-0.7,1-0.8
	c0.8-0.2,1.5,0.2,2,0.7c0.8,0.7,1.1,1.8,1.3,2.8c0.1,0.9,0.2,1.8,0.1,2.7c0.9-0.1,1.8-0.1,2.6,0.1v-0.3c0-1.9-0.2-3.9-0.5-5.8
	C94.8,58.3,94.4,56.1,93.3,54L93.3,54z"/>
<path d="M163.5,52.8c0.6-0.7,1-1.6,0.9-2.5c0-1.2-0.8-2.4-1.9-3.1c-1.2-0.8-2.9-1-4.4-0.6c0-0.5-0.1-0.9-0.4-1.4
	c-0.6-1.1-1.7-2-3.1-2.4c-1.4-0.5-3-0.3-4.2,0.4c-1.4,0.7-2.5,2-2.8,3.4c-0.1,0-0.2,0-0.3,0c-1.2-0.1-2.4,0.1-3.4,0.6
	c-1.1,0.6-1.8,1.5-1.9,2.6c-0.2,1.3,0.2,2.7,0.7,4c0,0,0.1,0.1,0.1,0.1c0,0.4,0,0.7,0.1,1.1c-1.6,0.2-3.2,0.8-4.2,1.9
	c-0.6,0.7-0.9,1.6-0.9,2.5c-0.7,0.4-1.5,0.9-2.2,1.3c0-1.9,0-3.8-0.1-5.7c0-2.6-0.3-5.1-0.3-7.7c0-0.3,0-0.7-0.1-1.1
	c-0.1-0.3-0.2-0.6-0.3-0.9c-0.2-0.6-0.4-1.2-0.7-1.7c-0.6-0.9-1.7-1.2-2.8-1.5c-1.4-0.4-2.8-0.7-4.3-1c-2.9-0.6-5.9-1-8.9-1.2
	c-0.6,0-1.1-0.1-1.7-0.1c3.1-1.9,5.9-4.1,8.4-6.5c1.3-1.3,2.5-2.6,3.7-3.9c1.1-1.4,2.2-2.9,2.8-4.5c1.1-2.8,1-6.3-1.6-8.6
	c-2.5-2.2-6.2-2.6-9.7-2.5c-1.9,0.1-3.7,0.3-5.5,0.7c-1.9,0.5-3.6,1.2-5.3,2c-2.9,1.5-5.4,3.4-8,5.2c-3.7,2.5-7.3,5.1-11,7.6
	c-2.6-2.4-6-4.1-9.6-5.3c-3.7-1.3-7.8-1.9-11.8-1.7c-1.9,0.1-3.9,0.5-5.7,1.1c0-0.1,0-0.2,0-0.3c0-0.9-0.6-1.9-1.1-2.7c0,0,0,0,0,0
	c0.7-0.3,1.4-0.6,2-1c1.2-0.7,2.6-1.6,3.2-2.8c0.2-0.6,0.2-1.3-0.3-1.8c-0.4-0.5-1.1-0.7-1.8-0.8c-1.6-0.1-3.1,0.7-4.3,1.5
	c-0.7,0.5-1.4,1.1-2,1.7c-1.3-0.7-3.4-0.5-4.2,0.8c-0.3,0.5-0.4,1.1-0.4,1.7c-1,0.3-1.9,0.8-2.7,1.5c-0.9,0.7-1.6,1.5-1.9,2.5
	c-0.3,0.9,0,2,1.1,2.4c0.9,0.4,2.2,0.3,3-0.2c1-0.5,1.5-1.4,2-2.3c0.5,0.7,1.1,1.4,2,1.8c0.3,0.2,0.6,0.2,0.9,0.3
	c-3.3,2.5-6,5.6-8,8.9c-2.1,3.6-3.5,7.6-3.9,11.6c-0.2,2.1-0.1,4.3,0.3,6.4c0,0.1,0,0.1,0.1,0.1c-0.7,0.9-1.3,1.9-1.8,2.9
	c-0.7,1.3-1.4,2.5-2.1,3.8c-0.7,1.1-1.4,2.3-2.3,3.3c-1-1-2.5-1.7-4.1-1.8c0-0.3,0-0.6,0-1c0-1.6,0-3.2-0.3-4.7
	c-0.1-0.7-0.3-1.3-0.6-2c-0.4-1-0.9-1.9-1.8-2.7c-1.2-1-2.9-1.6-4.5-1.4c-1.1-0.5-2.4-0.8-3.6-1c-0.7-0.1-1.5-0.2-2.2,0.1
	c-0.6,0.3-1.2,0.7-1.6,1.2c-0.3,0.4-0.6,0.8-0.8,1.3h0c-2.3,0.4-4.3,1.7-5.2,3.5c-0.5,0.9-0.6,1.9-0.6,2.9c0,0.2,0,0.4,0.1,0.6
	c-1.9,1.1-1.9,3.7-1.1,5.4c0.7,1.5,2.5,2.5,4.4,2.8c-0.1,0.1-0.2,0.2-0.1,0.4c0,0.5,0.6,1,1,1.3c0.6,0.5,1.2,0.8,2,0.9
	c0.9,0.1,1.8-0.1,2.6-0.3c0.5-0.1,1.1-0.3,1.5-0.5c0.3,0.3,0.6,0.5,0.9,0.7c-0.5,0.9-0.5,1.9,0,2.8c-1.6,0.7-3.2,1.9-4.1,3.2
	c-0.5,0.7-0.8,1.5-1.1,2.3c-0.3,0.9-0.7,1.7-1.1,2.5c-1.6,3.5-2.4,7.2-2.6,11c-0.2,3,0.1,6,0.6,9c0.2,1.1,0.3,2.1,0.6,3.1
	c0.2,0.9,0.7,1.8,1.4,2.5c1.2,1.3,3.2,1.7,5,1.8c2.2,0.1,4.4-0.1,6.6-0.1c2.3,0,4.7,0.1,6.9,0.9c2.6,1,4.5,2.8,5.8,4.9
	c0.5,0.8,0.9,1.5,1.4,2.3c0.5,0.7,1,1.3,1.6,1.9c0.9,0.9,2,1.7,3.2,2.3c1.8,0.8,3.8,1.1,5.8,1c0.1,0,0.3,0,0.4,0v0.2
	c0,0,0,0.1,0,0.1c-0.1,1.6,1.5,2.7,3.1,3.3c0.5,0.2,1.1,0.3,1.6,0.5c-0.1,0.2-0.2,0.3-0.3,0.4c-0.1-0.1-0.2-0.2-0.4-0.2
	c-3.1,0-6.3,0.3-9.3,1.1c-1.1,0.3-2.2,0.7-3.3,1.1c-1.1,0.5-2.2,1-3.2,1.7c-0.1,0.1-0.3,0.2-0.4,0.4c-0.1,0-0.1,0.1-0.2,0.1
	c-0.9,1-1.3,2.3-1.5,3.6c-0.2,1.3,0,2.5,0.8,3.6c1.8,2.4,5.4,3.3,8.5,3.9c1.8,0.3,3.6,0.6,5.4,0.6c-0.3,0.2-0.5,0.3-0.8,0.5
	c-2.3,1.5-4.6,2.9-7.1,4.2c-0.1-0.1-0.1-0.1-0.2-0.1c-3.2-0.6-6.4-1.1-9.7-0.7c-2.8,0.4-5.4,1.6-7.1,3.5c-1.5,1.8-2.1,4.1-1.4,6.2
	c0.8,2.2,2.9,3.9,5.6,4.5c3.3,0.7,6.7-0.2,9.5-1.8c0.1,0,0.1-0.1,0.1-0.1c4.1,3.1,9.2,5.2,14.6,6c6.3,0.9,12.8,0.2,18.7-1.9
	c2.6-1,5.1-2.2,7.4-3.6c3.5,1.3,7.9,0.5,10.7-1.7c0.8-0.6,1.4-1.3,1.9-2.1c4.4,2.5,9.5,4.2,14.8,4.8c6,0.7,12.2,0.2,17.7-2
	c2.9-1.1,5.5-2.7,7.9-4.4c2.2-1.6,4.2-3.5,5.4-5.8c1.2-2.2,1.7-4.6,1.6-7c-0.1-1.2-0.2-2.4-0.6-3.5c-0.3-1.1-0.8-2.2-1.7-3
	c-0.9-0.9-2.3-1.2-3.7-0.9c-1.4,0.4-2.5,1.3-3.4,2.3c-1.5,1.7-2.2,3.7-2.7,5.8c-6.2-1-12.8,0.8-16.9,4.8c-0.6,0.6-1.2,1.3-1.7,1.9
	c-0.4-1.4-1.5-2.8-3-3.4c-1.6-0.7-3.6-0.3-5,0.6c0.2-1.7,1.2-3.3,2.3-4.8c1.2-1.7,2.7-3.2,3.9-4.8c0.4-0.5,0.8-1,0.9-1.5
	c1.3,0.3,2.6,0.4,3.9,0.1c1.4-0.3,2.5-1.2,3-2.3c0.5-1.1,0-2.3-0.9-3.2c-1.1-1-2.8-1.3-4.4-1.1c-0.8,0.1-1.6,0.3-2.4,0.6
	c-0.1-0.1-0.2-0.1-0.3-0.2c-4-1.4-8.5-1.7-12.7-0.8c-0.6-0.6-1.4-1.2-2.2-1.6c2.5-0.4,5.1-0.8,7.6-1.3c4.3-0.8,8.5-1.8,12.5-3.2
	c3.5-1.2,7-2.7,9.9-4.7c0.4-0.3,1.1-0.6,1.1-1.1c0-0.1,0-0.2,0-0.4c0-0.1,0-0.2,0-0.4c0-0.1,0-0.1,0-0.2c0,0,0-0.1,0-0.1
	c0.1-0.6,0.2-1.1,0.4-1.6c0.7-2.5,1.2-4.9,1.5-7.5c0.9-6.1,1.4-12.2,1.8-18.3c0.2-3.3,0.4-6.6,0.5-9.9c0.5,0.2,1.1,0.4,1.7,0.4
	c0.6,0,1.3-0.2,1.6-0.7c0.8-0.9,0.2-2-0.4-2.9c2.2-1.8,4.4-3.7,6.4-5.7c0.7,0.3,1.5,0.4,2.2,0.5c1.8,0.1,3.9-1,3.9-2.6v0
	c1.2-0.1,2.3-0.5,3.1-1.2c0.3,0.2,0.6,0.4,0.9,0.5c2,0.9,4.5,0.6,5.9-0.9c0.8-0.8,1.2-1.9,1-2.9c0,0,0-0.1,0-0.1
	c0.1,0,0.1-0.1,0.2-0.1c1.6-0.7,3.2-1.8,3.6-3.4C166.1,54.9,165.3,53.2,163.5,52.8L163.5,52.8z M62.9,24.4c3.5-1.3,7.4-1.5,11.1-1
	c3.9,0.5,7.7,1.7,10.9,3.4c1.7,0.9,3.2,1.9,4.6,3.2c-0.3,0.2-0.7,0.5-1,0.7c-3.2,2.2-6.4,4.5-9.7,6.7c-3-4.4-6.2-9.1-11.9-11.5
	c-1.3-0.6-2.8-1-4.2-1.1C62.8,24.6,62.8,24.5,62.9,24.4L62.9,24.4z M55.1,23c-0.4,0.8-0.8,1.6-1.5,2.1c-0.6,0.5-1.5,0.7-2.3,0.5
	c-0.9-0.2-1-1-0.8-1.7c0.2-0.8,0.9-1.4,1.5-2c0.7-0.5,1.5-1,2.3-1.3c0.1,0.6,0.4,1.3,0.6,1.9C55,22.7,55.1,22.8,55.1,23
	C55.1,22.9,55.1,23,55.1,23z M58.4,25c-1.1-0.4-1.8-1.3-2.3-2.2c-0.3-0.5-0.5-1-0.6-1.5c-0.2-0.6-0.4-1.2-0.4-1.9
	c0-0.6,0.3-1.4,1.1-1.6c0.6-0.2,1.5-0.2,2,0.1c-0.2,0.3-0.5,0.6-0.6,1c-0.3,0.4,0.5,0.8,0.8,0.4c0.6-1,1.3-1.9,2.3-2.6
	c0.9-0.7,2.1-1.5,3.4-1.7c0.6-0.1,1.2-0.1,1.8,0.2c0.5,0.3,0.6,0.8,0.5,1.3c-0.2,0.5-0.7,1-1.2,1.4c-0.5,0.4-1,0.7-1.6,1.1
	c-1.3,0.7-2.7,1.3-4.2,1.6c-0.6,0.1-0.3,0.9,0.2,0.7c0.5-0.1,1.1-0.3,1.6-0.4c0,0,0,0.1,0,0.1c0.4,0.6,0.9,1.3,1,2
	c0.1,0.6-0.1,1.2-0.4,1.7c-0.4,0.5-1,0.6-1.6,0.6C59.5,25.2,59,25.2,58.4,25z M21.9,52.8c0.2-0.7,0.5-1.5,0.9-2.2
	c0.3-0.4,0.6-0.8,1.1-1.1c0.5-0.3,1-0.5,1.7-0.4c0.6,0.1,1.2,0.2,1.8,0.4c0.3,0.1,0.6,0.2,1,0.2c-0.3,0.1-0.5,0.2-0.7,0.4
	c-2.1,1.4-2.2,3.7-2.1,5.7c-0.3-0.1-0.5-0.1-0.8-0.1c-0.4,0.1-0.9,0.2-1.3,0.5c-0.1-0.1-0.1-0.1-0.2-0.1c-0.8-0.2-1.5-0.6-1.6-1.3
	C21.5,54.2,21.7,53.4,21.9,52.8z M16.7,57.4c0-0.8,0.1-1.7,0.5-2.4c0.4-0.8,1-1.5,1.8-2c0.7-0.5,1.5-0.9,2.4-1.1
	c-0.1,0.1-0.1,0.3-0.2,0.5c-0.3,0.8-0.5,1.7-0.3,2.6c0.2,1,1,1.6,2,1.9c-0.1,0.1-0.2,0.2-0.2,0.2c-0.6,0.6-1,1.3-1,2v0.2
	c-1.1,0.2-2.4,0.5-3.6,0.1c-0.5-0.1-0.9-0.4-1.1-0.8C16.7,58.2,16.6,57.8,16.7,57.4z M18.3,65.3c-1.1-0.3-2.1-1-2.7-1.9
	c-0.4-0.8-0.6-1.7-0.5-2.5c0.1-0.7,0.3-1.5,1-2c0.2,0.4,0.6,0.8,1.1,1c1.4,0.6,3,0.4,4.5,0.1c0.1,0.4,0.3,0.8,0.5,1.2
	c0.4,0.7,1,1.3,1.7,1.8C23.1,64.9,20.6,65.9,18.3,65.3z M26.1,67c-1,0.7-2.4,1.1-3.6,1.1c-0.7,0-1.2-0.1-1.7-0.4
	c-0.4-0.3-0.8-0.6-1-1c0,0,0,0,0,0l0,0h0c0,0,0.1,0,0.1,0c0.1,0,0,0,0.1-0.1c0.3-0.1,0.6-0.2,0.8-0.3c0.2-0.1,0.2-0.1,0,0
	c0.3-0.1,0.6-0.1,0.9-0.2c1.3-0.5,2.3-1.4,2.9-2.5c0.1,0,0.2,0,0.3,0c0.9-0.3,2,0.2,2.3,0.9C27.7,65.3,27,66.4,26.1,67z M30,73.1
	c-1-0.3-1.8-0.9-2.3-1.7c-0.4-0.7-0.4-1.5-0.1-2.2c0.9,0.4,1.9,0.6,2.9,0.6c0.6,0,0.6-0.8,0-0.8c-1.5,0.1-2.9-0.5-3.9-1.4
	c1.1-0.8,1.9-2,1.5-3.3c-0.1-0.2-0.2-0.5-0.4-0.7c1.2-0.2,2.5-0.6,3.4-1.3c1.1-0.9,1.7-2.2,1.7-3.5c0-0.5-0.9-0.5-0.9,0
	c0,1.1-0.5,2.2-1.4,2.9c-0.9,0.7-2.3,1.1-3.5,1.2c0,0,0,0,0,0c-0.6-0.3-1.4-0.5-2.1-0.3c-0.1-0.1-0.2-0.2-0.3-0.2
	c-0.7-0.5-1.3-1.2-1.6-1.9c-0.4-0.7-0.6-1.5-0.3-2.2c0.3-0.8,1.2-1.5,2.1-1.8c0.3-0.1,0.6-0.1,0.9,0c0.5,0.1,0.9,0.2,1.4,0.1
	c0.2,0,0.4-0.3,0.3-0.5C27.3,56,27.1,56,26.8,56c-0.1,0-0.2,0-0.2,0c-0.1-1.7-0.2-3.6,1.2-4.9c0.7-0.7,1.7-1.1,2.8-1
	c1.1,0,2.2,0.5,2.9,1.1c0.8,0.7,1.3,1.6,1.6,2.5c0.2,0.6,0.4,1.1,0.5,1.7c0.2,1.4,0.3,2.8,0.3,4.3c0,0.8,0,1.5-0.1,2.3
	c0,0.5-0.1,0.9-0.3,1.4c-0.2,0.5,0.7,0.7,0.9,0.2c0.2-0.4,0.2-1,0.3-1.4c0-0.1,0-0.2,0-0.4c1.8,0.1,3.3,1.1,4.1,2.4
	c0.9,1.5,0.6,3.4-0.3,4.9c-1,1.5-2.5,2.6-4.3,3.3C34.4,73.4,32.1,73.8,30,73.1L30,73.1z M53.2,84.1c-0.3,1.1-1.1,2.1-2.3,2.6
	c-0.9,0.4-2,0.6-3.1,0.6c-1-0.7-2-1.5-2.8-2.4c-0.7-0.7-1.4-1.4-2.2-2.1c0.6-0.7,1-1.6,1.3-2.4c0.2-0.5-0.7-0.7-0.9-0.2
	c-0.4,1-0.8,2.1-1.8,2.8c-1.1,0.7-2.4,0.5-3.4-0.1c-1.9-1-2.9-3.2-1.7-4.9c0.6-0.9,1.7-1.5,2.9-1.5c0.6,0,0.6-0.8,0-0.8
	c-0.7,0-1.3,0.2-1.9,0.5c-0.6-0.8-1.5-1.5-2.2-2.3c0.1,0,0.2-0.1,0.3-0.1c2.2-0.7,4.1-1.9,5.4-3.5c0.2-0.2,0.3-0.4,0.4-0.6
	c0.8,1,1.6,1.9,2.5,2.9c1.5,1.6,3.1,3.2,4.8,4.6c1,0.8,2,1.7,3.2,2.4C53.2,80.7,53.7,82.4,53.2,84.1z M54.5,46.6
	c-0.6,0.1-1.2,0.4-1.8,0.8c0.3-5.8,2-11.6,5-16.9c0.8-1.5,1.8-2.9,2.9-4.2c-0.9,2-1.2,4.1-1.2,6.2c0.1,2.6,0.6,5.2,1.8,7.6
	c0.5,1.2,1.2,2.3,2,3.4c-1.3,0.4-2.6,0.9-3.9,1.4C57.7,45.3,56.1,45.9,54.5,46.6C54.6,46.6,54.5,46.6,54.5,46.6z M61.1,123.1
	c-0.9-0.3-1.9-0.7-2.4-1.5c-0.3-0.3-0.4-0.7-0.3-1.2v-0.2c0-3.9,0.2-7.7,0.3-11.6c0.1-4.3,0.2-8.6,0.2-12.9c0-2.7,0-5.4,0-8.1
	c0-2.6,0.1-5.3,0.2-7.9c0.1-2.6,0.1-5.2-0.2-7.8c-0.1-1.3-0.4-2.6-0.6-3.8c-0.2-1.3-0.3-2.5-0.4-3.8c-0.2-1.3-0.4-2.6-0.6-3.9
	c-0.2-1.3-0.2-2.5-0.4-3.8c-0.3-2.6-1-5.2-1.4-7.8c-0.1-0.6-0.2-1.2-0.2-1.8c2.2-0.9,4.5-1.7,6.8-2.6c1-0.4,2-0.7,3.1-1.1
	c0.1,0,0.2-0.1,0.3-0.1c0,0.6,0.3,1.2,0.5,1.8c0.5,1.3,1,2.7,1.2,4.1c0.6,2.7,0.7,5.6,0.8,8.4c0,2.5,0,4.9,0.1,7.4
	c0.1,6.1,0.3,12.1,0.4,18.2c0.1,6.9,0.2,13.8,0.1,20.7c-0.1,3.4-0.2,6.9-0.4,10.3c-0.2,3-0.5,5.9-0.5,8.9c0,0.5,0,1.1,0,1.6
	c-1.2-0.2-2.4-0.5-3.6-0.8C63.1,123.7,62.1,123.5,61.1,123.1L61.1,123.1z M87.5,156.6C87.5,156.6,87.5,156.6,87.5,156.6
	c-1.9,1.2-4,2.3-6.1,3.1c-5.5,2.2-11.7,3.2-17.8,2.6c-5.7-0.6-11.3-2.6-15.5-5.8c-0.5-0.4-1.1-0.8-1.5-1.2c-0.4-0.4-1.1,0.2-0.7,0.6
	c0.2,0.2,0.4,0.3,0.6,0.5c-2.3,1.2-5,2.1-7.7,1.8c-2.5-0.3-4.7-1.5-5.7-3.5c-0.9-1.9-0.6-4,0.6-5.7c1.4-1.9,3.7-3.1,6.2-3.5
	c3.1-0.6,6.3-0.2,9.4,0.4c-0.5,0.2-0.9,0.4-1.4,0.6c-0.3,0.1-0.6,0.3-1,0.4c-0.5,0.2-0.1,0.9,0.5,0.7c1.5-0.6,2.9-1.3,4.3-2
	c1.7-0.9,3.3-1.9,5-2.9c1.6-1,3.2-2.1,4.7-3.2c0.7-0.5,1.3-1,2-1.6c0.6-0.5,1.4-1,1.4-1.7c0.1-0.8-0.7-1.3-1.6-1.4
	c-1.2-0.1-2.4-0.1-3.6-0.2c-1-0.1-2-0.2-3-0.4c-0.9-0.2-1.9-0.5-2.2-1.2c-0.3-0.7,0.2-1.6,0.9-2.1c0.5-0.3,1.1-0.5,1.7-0.7
	c1.6-0.4,3.2-0.4,4.9-0.4c3.9,0.1,7.8,0.7,11.4,1.7c0.2,0.1,0.4,0.1,0.7,0.2c-0.6,0.6-1.1,1.2-1.5,1.9c-0.2,0.4,0.6,0.8,0.8,0.4
	c0.7-1.2,1.7-2.4,3.2-3.1c1.4-0.7,3.2-0.9,4.6-0.2c1.2,0.6,2.1,1.8,1.8,2.9c-0.3,1.2-1.5,2.1-2.8,2.6c-1.4,0.5-3,0.5-4.5,0.4
	c-0.1,0-0.1,0-0.2,0c-0.5,0-1-0.1-1.4-0.1c-0.6,0-0.6,0.7,0,0.8c0.2,0,0.4,0,0.6,0c-0.6,0.5-1.2,1-1.8,1.5c-0.8,0.7-1.7,1.3-2.5,2
	c-1.6,1.4-3.1,2.8-4.4,4.4c-0.8,0.9-1.5,1.8-2.2,2.7c-0.3,0.4,0.5,0.8,0.8,0.4c0.2-0.3,0.4-0.5,0.6-0.7c0.1,0,0.3-0.1,0.4-0.2
	c2-2.4,5.5-3.9,9-4c-0.1,0.1-0.2,0.2-0.2,0.3c-0.9,1-1.5,2.2-1.9,3.4c-0.2,0.5,0.7,0.7,0.9,0.2c0.7-1.8,1.8-3.7,3.8-4.8
	c1.8-1,4.1-1.4,6-0.4c0.9,0.5,1.6,1.3,1.8,2.2c0,0.2,0.2,0.3,0.3,0.3c-0.1,0.6-0.3,1.1-0.6,1.6c-0.1,0.2,0.1,0.4,0.3,0.5
	c0.3,0.1,0.5-0.1,0.6-0.3c1.2-2.5,0.8-5.3,2.1-7.8c0.5-1.1,1.5-2,2.8-2.5c1.1-0.5,2.4-0.4,3.5,0.2c0,0,0.1,0.1,0.1,0.1
	c1,0.6,1.7,1.6,2.2,2.5c0.6,1.2,0.8,2.5,0.9,3.7c0.1,2.6-0.7,5.1-2.2,7.4C92.9,152.5,90.3,154.7,87.5,156.6L87.5,156.6z M86,139.5
	c-0.4,1.2-0.5,2.5-0.7,3.7c-0.8-1.5-2.7-2.5-4.6-2.6c-2.2-0.1-4.3,0.9-5.8,2.2c-0.1-0.1-0.2-0.2-0.4-0.2c-2.5,0-4.9,0.7-7,1.9
	c0.2-0.3,0.5-0.6,0.8-0.8c1-1,2.1-1.9,3.2-2.8c0.1,0.1,0.2,0.1,0.3,0.1C76.6,141.2,81.4,140.7,86,139.5L86,139.5z M94.1,117.7
	c0-0.4,0.1-0.8,0.1-1.1c0.4-0.1,0.8-0.2,1.3-0.3c0.6-0.1,1.2-0.1,1.9,0c0.5,0,1,0.1,1.4,0.3h0c0,0,0,0.1,0.1,0.1h0
	c0.1,0.1,0.1,0.1,0.1,0.2c0,0.1,0,0,0,0.1c0,0,0,0.1,0,0.1c0,0.1,0.1,0.2,0.1,0.3c0.1,0.3,0,0.7-0.1,1.1c0,0.1-0.1,0.2-0.2,0.3
	c0,0-0.1,0-0.1,0c-0.2,0.1-0.4,0.1-0.6,0.1c-0.8,0.1-1.6,0.1-2.4,0.3c-0.3,0.1-0.6,0.1-0.9,0.1c-0.1,0-0.2,0-0.3-0.1
	c-0.1-0.1-0.2-0.1-0.2-0.2c-0.1-0.1-0.1-0.4-0.2-0.6C94.1,118.2,94.1,117.9,94.1,117.7L94.1,117.7z M114.5,127.1
	c-0.7,0.3-1.3,0.6-1.9,0.9c-0.5,0.2,0,0.9,0.5,0.7c2.3-1.2,5.5-2.7,8.1-1.3c0.9,0.5,1.6,1.5,1.4,2.4c-0.2,0.9-1.2,1.7-2.3,2
	c-1.6,0.5-3.4,0.2-4.9-0.3c-0.6-0.2-0.8,0.6-0.2,0.7c0.1,0,0.2,0.1,0.4,0.1c0,0,0,0,0,0.1v0.1c0,0.1,0,0.1-0.1,0.2c0,0,0,0.1,0,0.1
	c0,0.1-0.1,0.1-0.1,0.2c-0.2,0.3-0.4,0.6-0.6,0.8c-0.6,0.7-1.2,1.4-1.8,2.1c-1.5,1.7-2.9,3.5-3.9,5.5c-0.5,1-0.8,2.1-0.7,3.2
	c-0.6,0.7-1,1.6-1.1,2.5c0,0.5,0.9,0.5,0.9,0c0-0.7,0.4-1.4,0.9-2c0.1,0,0.1-0.1,0.1-0.1c0.5-0.5,1.2-0.9,2-1.2
	c0.8-0.2,1.6-0.3,2.4,0c0.8,0.3,1.4,0.8,1.9,1.4c0.6,0.7,1,1.5,1.1,2.3c0,0.1,0,0.1,0.1,0.2c-0.1,0.2-0.2,0.4-0.3,0.5
	c-0.2,0.5,0.6,0.8,0.8,0.4c2.4-4.5,7.5-7.6,13.4-8.2c1.7-0.2,3.5-0.1,5.2,0.2c-0.1,0.2-0.1,0.5-0.2,0.7c-0.1,0.6-0.2,1.3-0.4,1.9
	c-0.1,0.5,0.8,0.7,0.9,0.2c0.5-2.4,0.8-4.9,2.1-7.2c0.6-1.1,1.4-2.1,2.5-2.9c1-0.7,2.3-1.2,3.5-0.7c1.1,0.5,1.7,1.5,2,2.4
	c0.4,1.1,0.6,2.2,0.7,3.3c0.2,2.3-0.1,4.6-1.1,6.7c-0.5,1.1-1.1,2-1.9,3c-0.8,1-1.8,1.8-2.8,2.7c-2.2,1.7-4.6,3.3-7.3,4.5
	c-2.6,1.2-5.3,2-8.2,2.4c-2.8,0.4-5.6,0.5-8.5,0.3c-5.7-0.4-11.2-2.1-15.9-4.7c-0.6-0.3-1.2-0.7-1.7-1.1c-0.2-0.1-0.5-0.2-0.6,0
	c-0.2,0.1-0.2,0.4,0,0.6c0.3,0.2,0.5,0.3,0.8,0.5c-1.8,2.7-5.4,4.4-9.1,4.1c-0.6,0-1.3-0.2-1.9-0.4c0,0,0,0,0,0
	c2.4-1.6,4.6-3.5,6.2-5.7c1.7-2.3,2.8-4.9,2.9-7.6c0-0.4,0-0.9,0-1.3c0,0,0.1,0,0.1-0.1c1.8-1.8,3.6-3.5,5.4-5.3c1-1,2-1.9,3.1-2.8
	c0.4-0.4,1-0.7,1.2-1.2c0.2-0.4,0.1-0.8-0.2-1.2c-0.3-0.4-0.8-0.7-1.4-0.7c-0.6-0.1-1.2-0.1-1.8,0c0.1-0.3,0.2-0.5,0.3-0.8
	c0.2-1.3-0.2-2.5-1.2-3.5c0,0,0,0,0,0C107,125.7,110.9,126,114.5,127.1L114.5,127.1z M103.8,131.7c0-0.1,0.1-0.1,0.1-0.2
	c0.5,0,1,0,1.6,0c0.4,0,0.8,0,1.1,0.3c0.2,0.3,0.2,0.6,0,0.8c-0.2,0.2-0.4,0.3-0.6,0.5c-0.2,0.2-0.5,0.4-0.7,0.6
	c-1.9,1.6-3.6,3.3-5.3,5l-2.2,2.1c-0.2-1.3-0.7-2.6-1.5-3.7C99.5,136.5,102.4,134.4,103.8,131.7L103.8,131.7z M106.5,116.4
	c-0.4,0.3-0.9,0.6-1.4,0.8c-0.5,0.2-1,0.4-1.5,0.5c-0.2,0-0.4,0.1-0.6,0c-0.2,0-0.2-0.1-0.3-0.2c-0.1-0.1-0.2-0.2-0.2-0.3
	c-0.1-0.2-0.1-0.4-0.1-0.5c0-0.3,0-0.6-0.1-0.9c0.9-0.4,1.6-0.9,2.6-1.1c0.8-0.2,1.9,0.2,2.2,0.9
	C107.1,115.9,106.8,116.1,106.5,116.4L106.5,116.4z M130.2,69.7c-0.2,1.3-0.9,2.6-2.1,3.5c-1.2,1-2.8,1.5-4.4,1.7
	c-4.1,0.6-7.9-1.2-10.7-3.5c-0.4-0.3-1.1,0.2-0.7,0.6c1.7,1.4,3.8,2.7,6.1,3.3c0.1,3-1,6-3,8.5c-2,2.5-4.9,4.5-8.4,5.6
	c-3.6,1.1-7.6,1.2-11.2,0.4c-3.6-0.8-6.7-2.7-9-5.1c-2.2-2.4-3.5-5.3-3.7-8.3c0-0.2,0-0.4,0-0.6c1.1,0,2.1-0.5,2.7-1.2
	c0.3-0.4-0.5-0.8-0.8-0.4c-0.4,0.6-1.2,0.9-1.9,0.9c-0.1-0.2-0.4-0.2-0.6-0.1c-0.6-0.2-1.1-0.7-1.3-1.2c-0.1-0.5-1.1-0.3-0.9,0.2
	c0.2,0.8,1,1.5,1.9,1.8c0,3,1.2,6,3.2,8.5c1.9,2.5,4.7,4.4,7.9,5.6c0,0.1,0.1,0.1,0.2,0.1c4.3,2,7.4,5.7,8.4,9.6
	c0.3,1.1,0.4,2.1,0.3,3.2c-1.1,0.2-2.1,0.6-3,1.3c-0.5,0.3,0.2,0.9,0.6,0.6c2-1.4,5-1.6,7.2-0.4c0.5,0.3,1-0.4,0.5-0.7
	c-1.1-0.6-2.3-0.9-3.6-0.9c0.1-0.1,0.2-0.2,0.2-0.3c-0.3-3.8,1-7.5,3.6-10.6c0.7-0.9,1.6-1.7,2.5-2.4c0.1-0.1,0.1-0.1,0.1-0.2
	c2-1,3.8-2.3,5.3-3.9c2.3-2.5,3.7-5.6,4-8.7c0-0.3,0-0.6,0-0.9c1,0.2,2.1,0.3,3.2,0.3c1.9-0.1,3.8-0.6,5.3-1.5
	c-0.4,4.9-1,9.8-1.7,14.7c-0.3,2.3-0.7,4.5-1.1,6.8c-0.4,2.1-1,4.2-1.4,6.3c-0.2,1.3-0.5,2.6-0.6,4c-1,0.2-2,0.3-3,0.5
	c-2.8,0.4-5.7,0.9-8.5,1.3c-3.8,0.6-7.7,1.1-11.5,1.6c-4.1,0.5-8.1,1-12.2,1.4c-3.6,0.4-7.1,0.7-10.7,0.9c-0.2,0-0.4,0-0.6,0
	c0.1-1.8-0.2-3.6-0.3-5.4c-0.1-1.2-0.2-2.4-0.2-3.6c0-1.2,0.1-2.3,0.1-3.5c0.2-4.7,0.3-9.5,0.2-14.2c0-4.6-0.2-9.2-0.4-13.8
	c-0.2-4.1-0.5-8.2-0.9-12.3c-0.3-3.2-0.7-6.4-1.3-9.6c0-0.2-0.1-0.3-0.1-0.5c2.4-0.2,4.8-0.5,7.2-0.8c2.6-0.3,5.2-0.6,7.9-0.7
	C94.2,47.1,99.6,47,105,47c2.7,0,5.4,0,8.2,0c1.3,0,2.6,0,4,0c1.3,0,2.6-0.1,3.9,0c1,0,2,0.2,3,0.3c0.8,0.1,1.7,0.3,2.4,0.7
	c0.6,0.3,0.8,0.9,1,1.4c0.2,0.7,0.4,1.4,0.5,2.1c0.8,3.9,0.8,7.9,0.8,11.8c0,0.5,0,0.9,0,1.4c-0.6-0.4-1.2-0.6-1.9-0.9
	c-3.4-1-7.3-0.3-10.4,0.9c-0.7,0.2-1.3,0.5-2,0.9c0.1-0.7,0.1-1.4,0.1-2c0-1.3-0.1-2.6-0.3-3.9c-0.2-1.4-0.5-2.8-0.9-4.2
	c-0.3-1.2-0.8-2.4-1.5-3.5c-0.5-0.8-1.3-1.6-2.4-1.8c-1.1-0.2-2.3,0.2-3.1,1c-0.9,0.9-1.3,2-1.5,3.2c-0.3,1.4-0.3,2.9-0.2,4.3
	c0.1,2.6,0.5,5.2,1.2,7.8c0,0.2,0.1,0.3,0.1,0.5c-0.6,0.3-1.2,0.7-1.8,1.2c-0.4,0.3,0.2,0.9,0.6,0.6c2-1.7,5.1-2.5,7.9-2
	c-1.8,1.1-3.3,2.4-4.5,3.9c-0.2,0.3-0.5,0.6-0.7,1c-0.3,0.4,0.5,0.8,0.8,0.4c1.7-2.4,4.2-4.5,7.2-5.9c2.8-1.3,6.3-2.2,9.6-1.8
	c1.6,0.2,3.1,0.7,4.1,1.8C130,67,130.3,68.4,130.2,69.7L130.2,69.7z M108,89.9c-1.3,1.2-2.3,2.7-3.1,4.1c-0.1-1.1-0.1-2.2-0.2-3.3
	c0.4-0.1,0.9-0.2,1.3-0.3C106.7,90.3,107.3,90.1,108,89.9L108,89.9z M103.1,102.2c0,0.1,0.1,0.2,0.2,0.3H103c0-1.8-0.4-3.6-1.1-5.4
	c0,0,0-0.1,0-0.2c-0.2-2-0.4-4-0.5-5.9v0c0.8,0,1.6-0.1,2.3-0.2c0.1,1.4,0.2,2.9,0.2,4.3c0,0.1,0.1,0.2,0.2,0.3
	c-0.4,1.1-0.8,2.3-1,3.4C103,100,103,101.1,103.1,102.2L103.1,102.2z M100.8,95.2c-0.9-1.4-2.1-2.7-3.5-3.8c-0.3-0.3-0.7-0.5-1-0.8
	c1.3,0.3,2.7,0.4,4.1,0.4v0C100.6,92.4,100.7,93.8,100.8,95.2z M113.4,65.6c0,0,0,0.1,0,0.1v0c0,0.1,0,0.2,0,0.2V66
	c-1.1-0.2-2.1-0.3-3.2-0.2c0-1-0.1-1.9-0.4-2.8c-0.1-0.5-0.3-0.9-0.5-1.4c-0.2-0.4-0.3-0.8-0.6-1.2c-0.3-0.3-0.6-0.6-1.1-0.6
	c-0.5-0.1-1,0.2-1.3,0.5c-0.3,0.4-0.4,0.8-0.5,1.2c0,0.2-0.1,0.4-0.1,0.6c-0.1-0.7-0.2-1.4-0.2-2.1c-0.1-1.4-0.2-2.8,0-4.2
	c0.1-1.1,0.3-2.3,1-3.3c0.2-0.4,0.6-0.8,1-1c0.2-0.1,0.5-0.2,0.6-0.3c0.1,0,0.2-0.1,0.4-0.1c0.1,0,0.1,0,0.2,0h0.5
	c0.1,0,0.1,0,0.2,0c0.2,0.1,0.3,0.1,0.5,0.2c0.2,0.1,0.3,0.2,0.5,0.3c0.2,0.2,0.3,0.3,0.4,0.4c0.8,0.9,1.2,2,1.5,3
	c0.4,1.3,0.7,2.6,0.9,3.9c0.2,1.3,0.3,2.5,0.4,3.8C113.5,63.7,113.5,64.7,113.4,65.6L113.4,65.6z M158,47.5c1.1-0.4,2.5-0.3,3.5,0.2
	c1.1,0.5,1.8,1.5,1.9,2.4c0.2,2-1.8,3.6-4.1,4c-1.5,0.2-3.2,0-4.6-0.6h-0.1c0.2-0.4,0.3-0.8,0.3-1.2c0-0.5-0.3-1-0.8-1.3
	c1.2-0.4,2.3-1.2,3.1-2.1C157.7,48.4,157.9,47.9,158,47.5L158,47.5z M153.8,43.4c1.2,0.2,2.2,0.9,2.8,1.8c0.6,0.9,0.7,1.9,0.1,2.9
	c-0.7,1.1-1.9,1.9-3.4,2.3c-1.1-1.6-2.8-3.1-4.9-3.6C149,44.8,151.3,42.9,153.8,43.4L153.8,43.4z M136.7,72.7
	c-0.4,0.3,0.2,0.9,0.7,0.6c0.2-0.2,0.4-0.3,0.5-0.4c0.2,0.3,0.4,0.6,0.5,0.9s0.1,0.7-0.1,1c-0.2,0.3-0.6,0.4-1,0.4
	c-0.5,0-1-0.2-1.4-0.4c-0.1-0.1-0.2-0.1-0.3-0.1c0-1.4,0.1-2.8,0-4.2c0-3-0.1-5.9-0.1-8.9c0.1,0,0.2,0,0.2,0
	c0.7-0.4,1.4-0.8,2.1-1.2c0.1,0.4,0.2,0.7,0.3,1c0.7,1.5,2,2.7,3.6,3.7c0.7,0.4,1.4,0.9,2.3,1.3C141.8,68.6,139.3,70.7,136.7,72.7z
	 M153.1,61.5c0.1,0.4,0.2,0.8,0.5,1.2c-0.7,0.7-1.9,1-3,1.1c-1.2,0.1-2.4,0-3.6,0.1c-0.6,0-0.6,0.8,0,0.8c1-0.1,2,0,3.1-0.1
	c0,1.2-1.5,1.9-2.8,1.8c-1.7,0-3.3-1-4.7-1.8c-1.3-0.8-2.6-1.8-3.3-3c-0.7-1.1-1-2.7-0.2-3.8c0.7-1.1,2.3-1.9,3.9-2h0
	c0.2,0.8,0.7,1.5,1.2,2.2c0.1,0.2,0.4,0.2,0.6,0.1c0.2-0.1,0.3-0.3,0.2-0.5c-1-1.1-1.4-2.4-1.4-3.7c0-0.1-0.1-0.2-0.1-0.3
	c-0.7-1.7-1.5-4.2,0.5-5.5c1.8-1.2,4.3-0.8,6,0.3c1,0.6,1.8,1.5,2.5,2.4c-0.2,0.1-0.3,0.3-0.2,0.4c0.1,0.2,0.3,0.4,0.6,0.3
	c0.4-0.1,0.9,0,1.1,0.4c0.3,0.4,0.1,0.9-0.1,1.3c-0.5,0.8-1.4,1.4-2.4,1.6c-2,0.5-4.3-0.4-5-2.1c-0.2-0.5-1.1-0.3-0.9,0.2
	c0.7,1.7,2.7,2.9,4.9,2.8c1.1-0.1,2.1-0.4,3-1c0.2-0.2,0.5-0.4,0.7-0.6c0,0,0.1,0,0.1,0c0.6,0.2,1.1,0.4,1.8,0.5
	c-1.7,0-3.1,1.3-3,2.7c0,0.8,0.5,1.6,1.2,2.1C153.4,59.9,153,60.7,153.1,61.5L153.1,61.5z M158.7,63.3c-1.6,0.5-3.6,0-4.5-1.3
	c-0.5-0.7-0.3-1.8,0.8-1.9c0,0,0.1,0,0.1,0c0.4,0.2,0.9,0.4,1.3,0.5c1.6,0.3,3.2,0.1,4.7-0.4C161.2,61.5,160.3,62.9,158.7,63.3
	L158.7,63.3z M164.9,55.9c-0.2,1.3-1.3,2.3-2.6,3c-1.4,0.7-3,1.2-4.6,1.1c-1.5-0.1-3-0.7-3.5-1.9c-0.2-0.6-0.2-1.2,0.2-1.8
	c0.4-0.5,1.1-0.8,1.8-0.8c0.5,0,0.6-0.5,0.2-0.7c2.3,0.4,4.7,0.1,6.4-1.3c0,0,0.1,0,0.1,0C164.3,53.6,165.1,54.8,164.9,55.9
	L164.9,55.9z"/>
<path d="M98,67.5c-0.5-0.2-1-0.4-1.5-0.6c0,0,0,0,0-0.1c0-1.9-0.1-3.9-0.4-5.8c-0.3-2.3-0.7-4.8-1.8-7c-0.8-1.7-2.6-4.1-5.3-2.9
	c-1.8,0.8-2.7,2.5-3,4.1c-0.3,1.3-0.2,2.7-0.1,4c0.1,1.5,0.4,3,0.8,4.5c0.4,1.3,0.8,2.6,1.5,3.9c0.1,0.2,0.3,0.5,0.4,0.7
	c0,0,0,0,0,0c-0.3,0.2-0.5,0.4-0.8,0.6c-0.4,0.4,0.3,0.9,0.7,0.5c1-1,2.5-1.8,4-2.1c1.7-0.4,3.5,0,4.9,0.7
	C98,68.4,98.5,67.7,98,67.5L98,67.5z M95.6,66.6c-0.9-0.2-1.8-0.2-2.6-0.1c0.1-0.9,0-1.8-0.1-2.7c-0.2-1-0.5-2-1.3-2.8
	c-0.5-0.4-1.2-0.8-2-0.7c-0.5,0.1-0.8,0.5-1,0.8c-0.5,0.8-0.8,1.7-0.7,2.6c0,0,0,0.1,0,0.1c-0.4-1.2-0.6-2.4-0.8-3.6
	c-0.2-1.3-0.3-2.7-0.2-4c0.1-1.4,0.5-2.9,1.6-3.9c0.6-0.5,1.5-1.1,2.4-0.9c0.4,0.1,0.7,0.2,0.9,0.4c0.7,0.5,1.2,1.3,1.6,2
	c1,2,1.5,4.3,1.8,6.5c0.3,1.9,0.5,3.9,0.5,5.8L95.6,66.6L95.6,66.6z"/>
</svg>
