<?xml version="1.0" encoding="UTF-8"?>
<svg id="_Слой_2" data-name="Слой 2" xmlns="http://www.w3.org/2000/svg" viewBox="0 0 336.42 331.08">
  <defs>
    <style>
      .cls-1 {
        fill: #1d1d1b;
      }
    </style>
  </defs>
  <g id="_Слой_1-2" data-name="Слой 1">
    <g>
      <path class="cls-1" d="m331.07,86.19c1.31-1.61,2.16-3.51,2.08-5.46-.08-2.71-1.69-5.29-4.28-6.95-2.71-1.69-6.44-2.16-9.66-1.27-.04-1.02-.3-1.99-.8-3.01-1.31-2.46-3.85-4.4-6.86-5.38-3.18-1.02-6.56-.68-9.4.85-3.09,1.61-5.59,4.4-6.23,7.45-.21-.04-.42-.08-.64-.08-2.63-.21-5.42.25-7.62,1.44-2.46,1.31-3.94,3.39-4.28,5.8-.51,2.96.51,6.01,1.65,8.85.04.08.13.17.17.25,0,.8.04,1.61.17,2.37-3.56.34-7.11,1.86-9.27,4.32-1.36,1.57-1.95,3.51-1.91,5.51-1.65.93-3.26,1.91-4.91,2.84-.04-4.19-.08-8.43-.13-12.62,0-5.72-.59-11.39-.76-17.11,0-.76.08-1.57-.13-2.33-.17-.64-.42-1.27-.64-1.91-.38-1.27-.8-2.58-1.61-3.77-1.31-1.99-3.85-2.63-6.31-3.26-3.18-.8-6.31-1.57-9.53-2.2-6.48-1.27-13.04-2.24-19.69-2.67-1.23-.08-2.46-.17-3.68-.21,6.78-4.28,13.04-9.15,18.59-14.48,2.92-2.8,5.63-5.68,8.13-8.72,2.54-3.09,4.79-6.35,6.23-9.91,2.54-6.31,2.12-13.93-3.56-19.01C250.7.56,242.39-.24,234.73.05c-4.15.17-8.3.64-12.28,1.57-4.15,1.02-8.05,2.67-11.65,4.53-6.39,3.35-12.07,7.5-17.79,11.48-8.13,5.63-16.26,11.27-24.39,16.9-5.8-5.25-13.26-9.19-21.22-11.86-8.26-2.79-17.32-4.23-26.26-3.68-4.32.25-8.55,1.02-12.58,2.33,0-.25.04-.47,0-.72-.08-2.07-1.4-4.11-2.54-5.93,0,0-.04,0-.04-.04,1.57-.59,3.05-1.31,4.49-2.12,2.75-1.57,5.84-3.52,7.03-6.23.55-1.31.42-2.8-.59-3.9-.97-1.06-2.5-1.65-4.07-1.78-3.47-.25-6.95,1.65-9.53,3.35-1.61,1.1-3.09,2.37-4.36,3.77-2.96-1.61-7.5-1.06-9.27,1.69-.76,1.14-.93,2.5-.8,3.81-2.24.76-4.32,1.86-6.06,3.26-1.91,1.52-3.64,3.39-4.24,5.55-.59,2.03.04,4.36,2.41,5.38,2.08.89,4.79.59,6.69-.47,2.16-1.19,3.39-3.05,4.4-5,1.06,1.61,2.5,3.01,4.4,3.9.68.34,1.35.55,2.08.72-7.41,5.46-13.3,12.37-17.66,19.73-4.74,8.05-7.83,16.81-8.72,25.75-.47,4.74-.3,9.53.72,14.19.04.13.08.21.17.3-1.57,2.03-2.8,4.19-3.98,6.35-1.61,2.8-3.09,5.59-4.74,8.39-1.48,2.54-3.01,5.12-5,7.41-2.24-2.29-5.46-3.85-9.06-4.11.04-.72.04-1.44.08-2.16.04-3.47-.04-6.99-.64-10.42-.21-1.52-.64-2.92-1.23-4.36-.93-2.16-2.08-4.32-3.94-5.97-2.58-2.29-6.39-3.47-9.99-3.01-2.46-1.1-5.34-1.74-8-2.2-1.65-.3-3.26-.34-4.79.34-1.4.59-2.58,1.57-3.47,2.58-.76.85-1.31,1.86-1.78,2.92h-.04c-5.04.8-9.53,3.85-11.65,7.75-1.1,2.03-1.36,4.24-1.36,6.48,0,.47.04.93.13,1.4-4.28,2.5-4.28,8.26-2.54,11.94,1.65,3.39,5.46,5.63,9.66,6.14-.21.25-.38.55-.34.93,0,1.14,1.23,2.16,2.12,2.88,1.23,1.06,2.63,1.86,4.4,2.03,1.91.17,3.94-.21,5.76-.68,1.19-.3,2.33-.68,3.43-1.19.64.59,1.31,1.14,2.08,1.65-1.1,1.99-1.02,4.23-.04,6.18-3.64,1.61-7.07,4.15-8.98,7.16-1.1,1.65-1.82,3.43-2.5,5.21-.72,1.91-1.57,3.73-2.41,5.59-3.51,7.75-5.29,16.01-5.72,24.31-.34,6.65.25,13.3,1.4,19.86.38,2.33.76,4.7,1.44,6.95.55,1.99,1.52,3.9,3.09,5.51,2.71,2.8,6.99,3.77,11.14,4.02,4.87.3,9.74-.17,14.61-.21,5.12-.04,10.46.25,15.25,2.03,5.84,2.16,9.99,6.23,12.83,10.93,1.02,1.69,1.91,3.43,3.01,5.04,1.02,1.48,2.16,2.88,3.47,4.19,1.99,2.03,4.45,3.81,7.2,5.04,3.98,1.82,8.39,2.37,12.87,2.29.3,0,.64,0,.97-.04v.38s-.04.13-.04.17c-.17,3.64,3.3,5.89,6.95,7.24,1.14.42,2.33.76,3.51,1.1-.25.34-.47.64-.68.93-.13-.25-.47-.51-.93-.51-6.9.08-14.02.59-20.58,2.46-2.46.72-4.91,1.52-7.24,2.5-2.5,1.02-4.95,2.24-6.99,3.85-.3.25-.59.51-.85.8-.17.04-.3.13-.42.3-1.95,2.29-2.96,5.21-3.43,7.96-.47,2.84-.04,5.51,1.78,7.96,3.98,5.29,11.94,7.28,18.8,8.6,3.94.76,8,1.31,12.07,1.44-.59.38-1.14.76-1.69,1.14-5,3.3-10.21,6.52-15.71,9.32-.13-.13-.25-.21-.47-.25-7.03-1.44-14.27-2.5-21.47-1.48-6.27.89-11.98,3.47-15.8,7.75-3.43,3.98-4.74,9.06-3.09,13.76,1.74,4.95,6.35,8.64,12.37,9.91,7.33,1.52,14.82-.55,21.01-3.9.13-.04.25-.17.3-.25,8.98,6.9,20.41,11.52,32.4,13.34,13.98,2.08,28.42.34,41.38-4.32,5.8-2.12,11.31-4.79,16.35-7.96,7.83,2.96,17.58,1.06,23.76-3.77,1.69-1.31,3.18-2.92,4.32-4.62,9.74,5.59,21.01,9.27,32.74,10.71,13.26,1.57,27.1.42,39.26-4.45,6.35-2.54,12.28-5.93,17.53-9.87,4.91-3.64,9.36-7.75,12.07-12.79,2.63-4.87,3.77-10.21,3.6-15.54-.13-2.63-.51-5.25-1.27-7.79-.72-2.41-1.69-4.87-3.77-6.73-2.08-1.91-5.21-2.67-8.17-1.91-3.09.85-5.55,2.92-7.45,5.08-3.35,3.73-4.95,8.26-6.06,12.79-13.81-2.29-28.29,1.82-37.44,10.71-1.4,1.36-2.67,2.8-3.81,4.32-.97-3.09-3.22-6.1-6.69-7.58-3.64-1.61-8-.68-11.1,1.44.47-3.81,2.67-7.41,5-10.63,2.67-3.68,5.89-7.07,8.72-10.63.8-1.02,1.78-2.2,2.03-3.43,2.84.59,5.8.8,8.6.13,3.01-.76,5.63-2.58,6.73-5.04s.08-5.17-2.08-6.99c-2.5-2.12-6.18-2.84-9.66-2.5-1.86.21-3.64.64-5.34,1.23-.17-.13-.34-.25-.59-.34-8.89-3.09-18.89-3.73-28.25-1.86-1.4-1.35-3.01-2.58-4.83-3.51,5.63-.8,11.22-1.74,16.81-2.8,9.44-1.82,18.85-4.07,27.82-7.11,7.79-2.67,15.42-5.93,21.89-10.46.93-.68,2.33-1.36,2.33-2.46,0-.3-.04-.55-.04-.8,0-.3.04-.55.04-.8.04-.13.04-.25.04-.38,0-.04.04-.21.04-.3.21-1.23.55-2.41.89-3.64,1.48-5.46,2.58-10.97,3.43-16.52,2.03-13.42,3.05-26.98,3.9-40.49.47-7.37.89-14.7,1.06-22.06,1.14.55,2.46.97,3.81.93,1.44-.08,2.8-.55,3.6-1.57,1.78-2.03.47-4.49-.89-6.4,4.95-3.98,9.66-8.17,14.1-12.54,1.57.59,3.22.97,4.91,1.1,4.07.21,8.72-2.12,8.72-5.84v-.08c2.63-.3,5.08-1.02,6.86-2.71.59.42,1.27.85,1.99,1.19,4.36,2.03,10.08,1.23,13.17-2.08,1.69-1.82,2.58-4.15,2.24-6.44,0-.08-.04-.17-.04-.25.13-.04.25-.13.42-.17,3.64-1.57,7.03-4.07,7.92-7.54.8-3.26-1.14-7.07-5.17-7.96Zm-171.77,192.35c-.8,2.67-1.1,5.51-1.61,8.22-1.69-3.3-5.89-5.46-10.21-5.67-4.91-.21-9.44,1.91-12.75,4.83-.13-.25-.42-.47-.89-.47-5.55.04-10.97,1.57-15.46,4.15.55-.59,1.14-1.23,1.74-1.82,2.2-2.2,4.57-4.23,6.99-6.23.17.17.38.25.72.3,10.63.34,21.26-.76,31.47-3.3Zm-93.59-148.73c3.3,3.56,6.82,7.03,10.63,10.21,2.2,1.86,4.53,3.68,6.99,5.29,3.35,2.75,4.4,6.65,3.18,10.38-.76,2.41-2.37,4.57-5,5.84-2.08.97-4.4,1.31-6.78,1.36-2.2-1.65-4.36-3.39-6.31-5.29-1.57-1.52-3.13-3.09-4.79-4.62,1.4-1.57,2.24-3.56,2.96-5.42.42-1.06-1.57-1.48-1.99-.47-.85,2.24-1.78,4.66-4.11,6.14-2.37,1.48-5.25,1.06-7.62-.21-4.15-2.24-6.39-7.11-3.77-10.88,1.35-1.91,3.73-3.3,6.44-3.43,1.31-.04,1.31-1.78,0-1.74-1.52.08-2.92.42-4.19,1.02-1.36-1.86-3.3-3.43-4.83-5.21.25-.08.51-.17.76-.25,4.79-1.57,9.15-4.19,12.03-7.79.34-.38.64-.8.93-1.27,1.69,2.2,3.56,4.32,5.46,6.35Zm23.88-57.34c-1.44.3-2.75.93-3.98,1.69.59-12.87,4.4-25.83,11.05-37.48,1.86-3.26,3.98-6.39,6.35-9.4-1.95,4.36-2.71,9.06-2.63,13.72.13,5.72,1.44,11.48,3.9,16.81,1.19,2.63,2.67,5.17,4.45,7.58-2.88.97-5.76,1.99-8.6,3.05-3.52,1.27-7.03,2.58-10.46,4.02h-.08Zm163.13,58.91c-2.71,2.12-6.18,3.35-9.78,3.85-8.98,1.23-17.57-2.71-23.67-7.83-.97-.76-2.41.42-1.48,1.23,3.81,3.18,8.43,5.89,13.55,7.33.17,6.69-2.24,13.26-6.65,18.85-4.45,5.63-10.93,10.08-18.55,12.41-7.92,2.46-16.81,2.75-24.94.85-7.92-1.86-14.91-5.89-19.9-11.31-4.83-5.25-7.83-11.69-8.26-18.34-.04-.38-.04-.8-.04-1.23,2.41.04,4.7-1.02,5.97-2.71.72-.97-1.1-1.82-1.78-.89-.89,1.23-2.58,1.99-4.32,1.91-.25-.42-.97-.51-1.44-.3-1.4-.47-2.46-1.52-2.79-2.71-.34-1.06-2.33-.64-1.99.47.55,1.78,2.2,3.3,4.28,3.94.04,6.65,2.58,13.26,6.99,18.8,4.28,5.46,10.33,9.78,17.45,12.41.08.13.21.17.34.25,9.53,4.49,16.3,12.54,18.55,21.39.59,2.33.85,4.66.76,7.03-2.41.47-4.7,1.4-6.61,2.8-1.02.72.47,1.95,1.44,1.23,4.36-3.22,11.18-3.51,16.01-.89,1.1.64,2.16-.89,1.02-1.48-2.37-1.31-5.17-1.95-7.96-1.99.21-.13.34-.34.34-.64-.64-8.34,2.2-16.73,7.88-23.59,1.61-1.95,3.47-3.73,5.46-5.38.17-.13.25-.25.3-.38,4.49-2.2,8.47-5.08,11.69-8.55,5.17-5.55,8.3-12.37,8.77-19.35.08-.68.08-1.36.08-2.03,2.29.47,4.7.72,7.11.64,4.19-.17,8.39-1.27,11.73-3.3-.97,10.93-2.2,21.81-3.81,32.69-.72,5.04-1.52,10.08-2.46,15.12-.89,4.7-2.12,9.36-3.01,14.06-.55,2.92-1.02,5.84-1.23,8.81-2.24.38-4.49.72-6.73,1.06-6.27.97-12.58,1.95-18.85,2.84-8.47,1.27-16.98,2.46-25.49,3.56-8.98,1.14-17.96,2.24-26.98,3.18-7.88.85-15.84,1.57-23.8,1.91-.42.04-.89.04-1.31.04.3-3.94-.42-8-.76-11.94-.25-2.71-.47-5.38-.47-8.05-.04-2.63.17-5.21.25-7.83.47-10.5.59-21.01.55-31.55-.08-10.21-.34-20.41-.85-30.58-.47-9.11-1.1-18.21-2.03-27.27-.72-7.11-1.57-14.19-2.92-21.26-.08-.34-.17-.72-.21-1.06,5.29-.55,10.63-1.19,15.92-1.82,5.8-.68,11.52-1.31,17.41-1.52,11.94-.51,23.93-.8,35.91-.8,6.01,0,12.07.04,18.13.04,2.92,0,5.84.04,8.77,0,2.88-.04,5.8-.13,8.68.04,2.2.08,4.4.42,6.56.76,1.78.25,3.73.59,5.25,1.48,1.36.76,1.74,1.95,2.16,3.22.51,1.48.85,3.05,1.14,4.57,1.74,8.64,1.86,17.49,1.82,26.17-.04,1.02-.04,2.03-.04,3.09-1.27-.8-2.67-1.44-4.15-1.91-7.45-2.29-16.14-.72-23.17,1.91-1.48.55-2.96,1.19-4.4,1.91.21-1.52.21-3.05.17-4.53-.04-2.88-.3-5.72-.68-8.55-.42-3.13-1.02-6.23-1.95-9.27-.76-2.63-1.78-5.29-3.39-7.67-1.19-1.74-2.92-3.52-5.34-3.98-2.54-.47-5.17.51-6.82,2.12-1.99,1.91-2.92,4.53-3.43,6.99-.64,3.13-.72,6.35-.55,9.49.25,5.8,1.19,11.6,2.63,17.24.08.38.17.72.3,1.1-1.44.72-2.75,1.57-3.94,2.58-.93.76.51,1.99,1.44,1.23,4.49-3.81,11.22-5.46,17.45-4.45-3.9,2.41-7.28,5.38-10.04,8.68-.55.72-1.1,1.44-1.61,2.16-.68.97,1.1,1.82,1.78.89,3.77-5.42,9.36-9.95,15.97-13,6.27-2.92,14.02-4.91,21.26-3.98,3.47.47,6.82,1.65,9.15,3.9,2.29,2.2,3.09,5.21,2.75,8.05-.34,2.96-1.99,5.72-4.57,7.71Zm-44.72,37.1c-2.8,2.75-5.12,5.89-6.86,9.19-.13-2.46-.25-4.91-.38-7.37.97-.17,1.95-.38,2.88-.59,1.48-.34,2.92-.76,4.36-1.23Zm-10.84,27.32c.04.3.21.51.47.68h-.55c.04-4.02-.8-8.09-2.5-11.9.04-.08.08-.21.08-.38-.42-4.36-.8-8.77-1.19-13.13v-.08c1.74-.04,3.47-.17,5.21-.38.17,3.18.34,6.39.51,9.57,0,.3.21.55.42.68-.97,2.46-1.74,5-2.12,7.54-.42,2.46-.51,4.91-.34,7.41Zm-4.91-15.54c-2.03-3.13-4.62-6.01-7.71-8.51-.72-.59-1.52-1.14-2.29-1.69,2.96.59,6.06.89,9.15.97v.04c.3,3.05.55,6.14.85,9.19Zm4.83,49.89c-.38-.08-.51-.13-.76-.34-.17-.17-.38-.47-.51-.72-.13-.34-.21-.8-.3-1.1-.08-.68-.08-1.4-.13-2.08,1.95-.8,3.64-1.99,5.72-2.54,1.78-.42,4.32.38,4.83,1.99.25.76-.42,1.31-1.1,1.82-.97.72-2.03,1.31-3.18,1.82-1.06.47-2.2.89-3.35,1.06-.38.08-.93.13-1.23.08Zm-19.61-2.63c.85-.3,1.86-.51,2.84-.59,1.36-.17,2.75-.21,4.11-.08,1.06.04,2.24.21,3.09.72h.04s.08.13.13.17h.04c.13.13.21.25.3.42.08.13.04.04.08.17.04.08.08.17.08.25.08.25.13.47.17.68.13.72.08,1.57-.3,2.33-.08.21-.3.51-.55.72-.04,0-.13.04-.21.08-.38.13-.8.17-1.23.21-1.78.25-3.6.25-5.38.68-.64.13-1.27.34-1.95.34-.21,0-.42-.04-.64-.13-.3-.13-.38-.25-.47-.38-.17-.3-.3-.85-.34-1.23-.08-.59-.08-1.23-.04-1.82.04-.85.17-1.69.21-2.54Zm42.6-112.82c0,.08,0,.17-.04.25v.04c-.04.17-.04.34-.08.47v.13c-2.33-.55-4.74-.72-7.11-.55-.04-2.12-.3-4.19-.89-6.23-.3-1.02-.64-2.03-1.1-3.05-.38-.89-.76-1.86-1.44-2.63-.59-.68-1.4-1.23-2.41-1.31-1.14-.13-2.16.38-2.84,1.1-.68.8-.89,1.78-1.02,2.71-.08.42-.13.85-.17,1.27-.25-1.57-.42-3.13-.55-4.7-.3-3.13-.38-6.27-.08-9.4.25-2.46.76-5.12,2.12-7.33.55-.89,1.23-1.69,2.12-2.24.34-.21,1.02-.55,1.31-.64.25-.08.55-.17.8-.21.13-.04.3-.04.42-.08h1.1c.13.04.25.04.38.08.55.13.64.17,1.14.47.42.21.68.38,1.1.76.42.34.68.59.97.97,1.69,2.03,2.67,4.4,3.43,6.73.97,2.84,1.61,5.72,2.08,8.64.47,2.8.76,5.63.89,8.43.08,2.08.13,4.19-.13,6.31Zm-21.26,146.53c.08-.13.13-.25.13-.38,1.14-.08,2.33-.08,3.47-.04.93.08,1.86.08,2.41.76.42.55.42,1.27-.04,1.82-.38.42-.93.76-1.4,1.14-.55.47-1.1.97-1.65,1.44-4.11,3.56-7.96,7.33-11.82,11.1l-4.83,4.7c-.47-2.88-1.48-5.76-3.26-8.22,7.5-1.74,13.93-6.35,16.98-12.32ZM108.06,23.3c7.67-2.8,16.39-3.26,24.61-2.24,8.6,1.06,16.98,3.68,24.27,7.58,3.73,1.99,7.11,4.32,10.12,6.99-.72.51-1.48,1.02-2.2,1.52-7.11,4.95-14.27,9.91-21.43,14.82-6.61-9.78-13.85-20.16-26.3-25.41-2.96-1.23-6.14-2.12-9.4-2.54.13-.25.25-.47.34-.72Zm-17.28-3.13c-.8,1.69-1.69,3.47-3.3,4.74-1.31,1.02-3.22,1.61-5,1.14-1.95-.51-2.33-2.29-1.86-3.73.55-1.74,1.91-3.18,3.39-4.45,1.48-1.19,3.26-2.2,5.17-2.92.34,1.44.8,2.88,1.44,4.28.08.25.21.47.34.72-.08.04-.13.13-.17.21Zm7.41,4.49c-2.41-.89-3.98-2.84-5.04-4.79-.59-1.06-1.06-2.16-1.4-3.3-.47-1.35-.89-2.75-.89-4.19.04-1.44.76-3.01,2.5-3.56,1.31-.47,3.22-.38,4.4.3-.51.72-1.02,1.44-1.44,2.2-.59.97,1.19,1.86,1.78.85,1.23-2.16,2.92-4.15,5.04-5.8,2.08-1.65,4.7-3.22,7.5-3.85,1.31-.3,2.75-.3,3.94.34,1.14.64,1.44,1.74,1.02,2.8-.47,1.19-1.52,2.16-2.58,3.01-1.1.85-2.24,1.61-3.52,2.33-2.84,1.65-6.01,2.84-9.36,3.6-1.27.3-.72,1.95.55,1.65,1.19-.25,2.33-.59,3.47-.93,0,.08.04.17.08.25.89,1.4,1.95,2.92,2.2,4.49.25,1.31-.13,2.67-.97,3.77-.89,1.14-2.12,1.36-3.64,1.36-1.27-.04-2.46-.08-3.64-.51ZM17.27,86.15c.55-1.65,1.1-3.43,2.08-4.95.64-.93,1.44-1.74,2.46-2.37,1.14-.72,2.29-1.02,3.73-.8,1.36.21,2.71.55,4.02.85.72.17,1.4.38,2.12.55-.55.25-1.1.51-1.57.85-4.57,3.01-4.95,8.13-4.62,12.66-.59-.13-1.14-.21-1.78-.13-.97.13-1.95.55-2.84,1.06-.13-.13-.3-.21-.51-.25-1.86-.38-3.22-1.23-3.64-2.8-.38-1.52.08-3.18.55-4.66Zm-10.67,4.83c.89-1.69,2.29-3.22,3.98-4.4,1.52-1.1,3.3-1.91,5.25-2.37-.13.34-.25.68-.38,1.02-.64,1.86-1.14,3.81-.76,5.72.38,2.12,2.12,3.52,4.45,4.15-.21.17-.38.34-.55.51-1.27,1.23-2.12,2.8-2.16,4.45v.42c-2.54.51-5.29,1.02-7.88.25-1.06-.3-2.03-.85-2.5-1.74-.42-.8-.51-1.69-.47-2.58,0-1.86.17-3.68,1.02-5.42Zm2.58,23c-2.54-.68-4.74-2.24-5.93-4.23-.93-1.69-1.27-3.68-1.14-5.51.13-1.61.72-3.39,2.12-4.53.51.93,1.31,1.69,2.54,2.24,3.09,1.4,6.69.85,9.95.21.25.89.68,1.78,1.14,2.58.93,1.52,2.2,2.96,3.77,4.11-1.78,4.11-7.33,6.52-12.45,5.12Zm9.32,6.18c-1.48.08-2.67-.17-3.81-.97-.85-.64-1.82-1.36-2.2-2.2-.04-.04-.04-.08-.04-.08l.04-.04h.04s.13-.04.21-.08c.25-.08.04-.04.3-.13.68-.21,1.36-.38,1.86-.76t.04-.04c.68-.13,1.36-.3,1.99-.51,2.88-1.06,5.21-3.05,6.44-5.46.17.08.38.08.59,0,1.99-.68,4.36.34,5.08,1.99.97,2.12-.51,4.45-2.46,5.8-2.16,1.48-5.29,2.33-8.09,2.5Zm9.32-1.14c2.54-1.69,4.23-4.49,3.35-7.24-.17-.51-.42-1.06-.8-1.52,2.75-.38,5.46-1.35,7.5-2.96,2.46-1.95,3.73-4.87,3.73-7.67,0-1.1-2.08-1.1-2.08,0,0,2.33-1.02,4.83-3.09,6.44-2.03,1.65-5.04,2.54-7.83,2.67-.04,0-.04.04-.08.04-1.4-.76-3.09-1.1-4.66-.68-.17-.25-.47-.42-.76-.47-1.57-1.14-2.8-2.58-3.64-4.19-.8-1.52-1.31-3.3-.59-4.91.76-1.69,2.67-3.22,4.7-3.9.76-.25,1.27-.13,2.03.08,1.02.3,1.99.34,3.09.21.55-.04.85-.64.72-1.06-.17-.47-.72-.64-1.27-.59-.17.04-.38.04-.55.04-.3-3.68-.38-7.96,2.71-10.84,1.65-1.52,3.85-2.33,6.31-2.2,2.41.08,4.79,1.06,6.44,2.5,1.78,1.57,2.8,3.56,3.6,5.55.51,1.27.89,2.54,1.1,3.85.55,3.13.64,6.31.59,9.49,0,1.69-.08,3.39-.25,5.08-.08,1.02-.17,2.03-.59,3.05-.47,1.06,1.57,1.52,1.99.47.42-.97.51-2.12.64-3.18.04-.25.04-.55.08-.8,3.9.25,7.33,2.46,9.02,5.38,2.03,3.39,1.44,7.62-.68,10.93-2.12,3.26-5.59,5.72-9.49,7.41-4.19,1.82-9.23,2.88-13.76,1.36-2.2-.72-4.11-2.03-5.12-3.85-.85-1.52-.97-3.35-.21-4.91,1.95.93,4.23,1.4,6.52,1.31,1.31-.04,1.31-1.78,0-1.74-3.26.13-6.52-1.02-8.64-3.13Zm76.23,123.07c-2.03-.72-4.24-1.65-5.42-3.26-.59-.76-.8-1.65-.76-2.58v-.34c0-8.55.42-17.11.72-25.62.3-9.57.34-19.1.34-28.63,0-5.97-.04-11.94,0-17.91.04-5.8.3-11.65.42-17.45.13-5.8.13-11.6-.42-17.36-.3-2.88-.8-5.67-1.23-8.51-.47-2.84-.59-5.63-.89-8.43-.34-2.84-.89-5.67-1.23-8.55-.38-2.8-.42-5.63-.8-8.43-.76-5.76-2.16-11.48-3.13-17.24-.21-1.31-.38-2.63-.55-3.98,4.91-2.08,10.04-3.85,15.12-5.67,2.24-.8,4.53-1.57,6.82-2.37.25-.08.51-.17.76-.25.08,1.31.68,2.63,1.14,3.9,1.14,2.96,2.12,5.97,2.75,9.06,1.27,6.1,1.65,12.37,1.69,18.59.08,5.46.08,10.97.21,16.47.25,13.42.68,26.85.97,40.27.3,15.33.42,30.66.13,45.99-.13,7.62-.38,15.29-.8,22.91-.38,6.56-1.02,13.09-1.14,19.65-.04,1.19-.04,2.41,0,3.6-2.67-.47-5.29-1.1-7.88-1.82-2.29-.64-4.62-1.23-6.82-2.03Zm58.57,74.2s-.04.04-.08.04c-4.19,2.71-8.77,5-13.42,6.9-12.15,4.91-25.92,7.11-39.38,5.76-12.66-1.27-24.99-5.72-34.43-12.87-1.19-.85-2.33-1.78-3.39-2.75-.93-.8-2.37.42-1.48,1.23.47.38.89.76,1.36,1.14-5.08,2.71-11.01,4.62-17.15,3.98-5.55-.59-10.42-3.39-12.54-7.79-1.99-4.15-1.36-8.77,1.44-12.54,3.05-4.15,8.13-6.78,13.72-7.83,6.9-1.31,13.98-.42,20.75.93-1.02.47-2.03.93-3.09,1.4-.72.3-1.44.59-2.2.89-1.19.42-.13,1.91,1.06,1.48,3.3-1.27,6.44-2.84,9.53-4.45,3.77-2.03,7.41-4.19,11.01-6.48,3.56-2.24,7.03-4.62,10.33-7.11,1.52-1.14,2.96-2.29,4.36-3.47,1.23-1.06,3.01-2.24,3.13-3.77.13-1.78-1.57-2.96-3.56-3.05-2.67-.17-5.29-.3-7.92-.51-2.24-.17-4.53-.38-6.73-.85-1.91-.38-4.19-1.06-4.91-2.75-.68-1.65.51-3.47,1.99-4.57,1.1-.76,2.5-1.19,3.85-1.48,3.47-.85,7.2-.93,10.8-.85,8.55.21,17.19,1.52,25.32,3.68.51.13.97.25,1.48.38-1.27,1.27-2.33,2.71-3.22,4.19-.55.97,1.23,1.86,1.78.85,1.57-2.71,3.81-5.25,7.03-6.78,3.09-1.48,7.11-1.91,10.29-.42,2.71,1.31,4.66,3.9,3.98,6.52-.64,2.63-3.3,4.7-6.18,5.72-3.09,1.1-6.56,1.19-9.95.97-.17-.04-.3-.04-.47,0-1.06-.08-2.12-.17-3.18-.25-1.31-.08-1.31,1.61,0,1.74.42.04.8.04,1.23.08-1.27,1.14-2.58,2.29-3.94,3.39-1.82,1.48-3.77,2.92-5.55,4.45-3.56,3.01-6.86,6.27-9.87,9.74-1.69,1.91-3.26,3.9-4.79,5.97-.68.93,1.1,1.78,1.78.85.42-.55.8-1.06,1.23-1.61.3,0,.59-.13.85-.38,4.53-5.34,12.15-8.68,19.99-8.81-.17.17-.34.38-.51.59-1.95,2.24-3.26,4.87-4.32,7.5-.42,1.06,1.57,1.48,1.99.47,1.61-4.07,4.07-8.22,8.39-10.71,3.94-2.29,9.15-3.13,13.38-.89,2.03,1.1,3.52,2.8,3.94,4.79.08.38.42.59.76.59-.34,1.23-.72,2.37-1.31,3.51-.21.42.25.93.72,1.06.59.13,1.06-.17,1.27-.59,2.75-5.55,1.82-11.86,4.62-17.36,1.19-2.41,3.26-4.53,6.14-5.63,2.54-1.02,5.42-.8,7.75.47.08.08.17.17.3.17,2.24,1.36,3.81,3.51,4.79,5.63,1.23,2.63,1.86,5.46,1.95,8.3.21,5.72-1.65,11.39-4.96,16.35-3.81,5.84-9.4,10.8-15.75,14.86Zm59.97-65.26c-1.48.64-2.88,1.36-4.32,2.08-1.1.55-.08,2.03,1.06,1.48,5.04-2.58,12.15-6.06,17.91-2.84,2.07,1.19,3.56,3.3,3.01,5.42-.55,2.08-2.71,3.73-5.04,4.4-3.56,1.06-7.45.34-10.88-.68-1.23-.38-1.78,1.27-.55,1.65.3.08.55.17.85.21,0,.04,0,.08-.04.13v.13c-.04.13-.08.21-.13.34,0,.04-.08.17-.08.21-.08.13-.13.25-.21.38-.38.64-.85,1.23-1.27,1.78-1.27,1.61-2.67,3.18-4.02,4.7-3.26,3.85-6.52,7.83-8.55,12.28-1.02,2.24-1.69,4.66-1.61,7.07-1.44,1.61-2.29,3.52-2.41,5.51-.04,1.1,1.99,1.1,2.08,0,.08-1.65.85-3.22,2.08-4.53.13-.08.21-.17.25-.3,1.19-1.19,2.71-2.08,4.4-2.58,1.74-.55,3.64-.68,5.38-.08,1.74.64,3.13,1.78,4.19,3.09,1.23,1.48,2.12,3.3,2.37,5.12.04.13.08.21.13.34-.21.38-.47.8-.68,1.19-.55,1.02,1.23,1.86,1.78.89,5.38-9.87,16.73-16.9,29.69-18.08,3.85-.38,7.75-.25,11.56.38-.13.51-.21,1.02-.34,1.48-.3,1.44-.55,2.88-.85,4.32-.21,1.06,1.78,1.52,1.99.47,1.1-5.38,1.86-10.93,4.62-15.92,1.36-2.41,3.13-4.66,5.55-6.44,2.12-1.57,5.08-2.71,7.79-1.52,2.41,1.06,3.73,3.3,4.49,5.38.89,2.41,1.44,4.87,1.65,7.37.47,5-.25,10.12-2.37,14.82-1.06,2.33-2.46,4.53-4.15,6.56-1.82,2.16-4.02,4.07-6.31,5.89-4.83,3.85-10.25,7.24-16.18,9.91-5.72,2.63-11.82,4.4-18.25,5.34-6.18.89-12.49,1.06-18.76.59-12.54-.93-24.77-4.57-35.19-10.42-1.31-.76-2.58-1.52-3.81-2.33-.42-.25-1.02-.34-1.44,0-.38.3-.47.93,0,1.23.59.38,1.19.76,1.78,1.1-3.94,6.06-12.03,9.66-20.29,9.02-1.44-.08-2.88-.38-4.28-.8.04,0,.04-.04.04-.04,5.38-3.6,10.21-7.83,13.81-12.75,3.73-5.08,6.1-10.93,6.35-16.9.08-.97.04-1.95,0-2.96.08-.04.17-.08.21-.17,4.07-3.9,8-7.83,12.07-11.69,2.24-2.12,4.49-4.15,6.82-6.14.97-.8,2.2-1.57,2.58-2.71.34-.89.17-1.86-.38-2.63-.68-.97-1.86-1.48-3.18-1.57-1.31-.13-2.63-.17-3.94-.08.3-.59.51-1.19.59-1.82.55-2.84-.55-5.55-2.63-7.83,0,0-.04-.04-.08-.08,8.39-1.52,17.15-.93,25.16,1.65Zm94.95-173.55c.76-.97,1.27-2.03,1.52-3.09,2.54-.85,5.51-.76,7.88.42,2.33,1.1,3.9,3.22,4.15,5.42.51,4.49-4.11,8.05-9.06,8.81-3.43.55-7.03-.08-10.12-1.36h-.13c.51-.85.76-1.78.72-2.67-.04-1.1-.72-2.2-1.74-2.88,2.75-.93,5.17-2.63,6.78-4.66Zm-7.75-12.03c2.63.55,4.91,2.03,6.27,3.98,1.4,2.03,1.52,4.32.21,6.44-1.52,2.37-4.28,4.28-7.45,5.04-2.5-3.51-6.14-6.86-10.88-8.09,1.02-4.36,6.31-8.51,11.86-7.37Zm-38.07,65.01c-.97.76.51,1.95,1.48,1.23.38-.34.8-.64,1.19-.97.47.64.89,1.31,1.1,2.03.21.72.21,1.52-.25,2.16-.47.59-1.31.85-2.12.85-1.1.04-2.12-.38-3.01-.85-.21-.13-.42-.17-.64-.13.08-3.13.13-6.27.08-9.4-.04-6.56-.13-13.13-.21-19.73.17,0,.34,0,.47-.08,1.57-.93,3.09-1.82,4.62-2.71.17.8.42,1.57.76,2.29,1.52,3.43,4.53,6.06,7.96,8.26,1.57.97,3.22,1.99,5,2.8-5.12,5.04-10.59,9.78-16.43,14.27Zm37.52-22.36c-1.65,1.65-4.15,2.2-6.61,2.41-2.63.21-5.29.04-7.92.21-1.31.08-1.36,1.82,0,1.74,2.12-.13,4.53-.04,6.9-.17-.04,2.63-3.43,4.15-6.27,4.07-3.81-.08-7.33-2.16-10.33-3.94-2.92-1.78-5.67-3.94-7.28-6.69-1.52-2.54-2.12-5.89-.51-8.51,1.52-2.54,5.21-4.19,8.55-4.45h.04c.55,1.74,1.48,3.39,2.75,4.83.3.38.89.55,1.4.3.42-.21.68-.76.38-1.14-2.12-2.41-3.18-5.29-3.05-8.3,0-.25-.13-.47-.3-.59-1.57-3.81-3.3-9.27,1.1-12.24,3.98-2.63,9.57-1.78,13.34.64,2.29,1.44,4.07,3.39,5.51,5.42-.42.21-.68.55-.51.97.13.42.72.8,1.27.59.93-.3,1.91.08,2.41.8.64.89.3,2.03-.21,2.88-1.06,1.78-3.05,3.09-5.29,3.64-4.49,1.19-9.44-.93-11.01-4.66-.42-1.02-2.41-.59-1.99.47,1.57,3.77,6.1,6.52,10.93,6.27,2.41-.13,4.7-.93,6.56-2.2.55-.38,1.1-.85,1.57-1.36.08.04.13.08.17.08,1.27.51,2.54.89,3.9,1.19-3.85.04-6.86,2.96-6.65,6.1.08,1.86,1.1,3.51,2.63,4.74-1.86.76-2.88,2.63-2.67,4.32.13.93.55,1.82,1.19,2.58Zm11.39,1.52c-3.51,1.06-8.05.04-9.95-2.8-1.02-1.52-.72-3.94,1.74-4.28.08,0,.17-.04.25-.08.93.47,1.91.8,2.92,1.02,3.47.76,7.07.21,10.38-.89.17,2.96-1.86,6.01-5.34,7.03Zm7.88-9.95c-3.05,1.48-6.69,2.58-10.25,2.46-3.26-.17-6.65-1.57-7.75-4.28-.55-1.31-.51-2.75.42-3.94.85-1.1,2.33-1.86,3.94-1.82,1.1,0,1.27-1.19.55-1.61,5,.93,10.33.3,14.14-2.79.08,0,.17.04.21.04,3.09.38,4.87,2.92,4.57,5.38-.34,2.88-2.96,5.12-5.84,6.56Z"/>
      <path class="cls-1" d="m182.62,117.42s.02-.09.02-.14c.06-4.28-.29-8.58-.86-12.83-.7-5.22-1.65-10.6-3.99-15.5-1.84-3.87-5.8-9.05-11.69-6.47-3.98,1.74-5.9,5.63-6.59,9.14-.57,2.9-.49,5.88-.21,8.8.32,3.35.94,6.69,1.83,9.98.79,2.93,1.79,5.85,3.26,8.61.29.53.6,1.06.94,1.57,0,0,.01.01.02.02-.62.45-1.2.92-1.73,1.42-.87.83.58,2.04,1.46,1.21,2.28-2.15,5.53-3.9,8.88-4.63,3.67-.81,7.74-.04,10.89,1.64,1.12.6,2.16-.89,1.04-1.48-1.01-.54-2.11-.99-3.26-1.34Zm-2.04-.51c-1.93-.37-3.93-.45-5.87-.19.14-1.96.06-3.94-.27-5.89-.36-2.14-1.05-4.47-2.85-6.11-1.08-.99-2.74-1.88-4.41-1.5-1.05.24-1.67,1.04-2.14,1.81-1.1,1.81-1.76,3.78-1.61,5.8,0,.1.02.2.03.3-.78-2.63-1.37-5.29-1.76-7.97-.43-2.95-.68-5.94-.47-8.91.21-3,1.04-6.38,3.5-8.68,1.27-1.19,3.24-2.41,5.27-2,.77.16,1.49.5,2.06.91,1.62,1.17,2.67,2.8,3.52,4.46,2.3,4.51,3.27,9.53,3.98,14.36.63,4.29,1,8.63,1.03,12.96,0,.22,0,.43,0,.65Z"/>
    </g>
  </g>
</svg>