<?xml version="1.0" encoding="UTF-8"?>
<svg id="_Слой_2" data-name="Слой 2" xmlns="http://www.w3.org/2000/svg" viewBox="0 0 465.7 479.25">
  <defs>
    <style>
      .cls-1 {
        fill: #fff;
      }

      .cls-2 {
        fill: gray;
      }

      .cls-3 {
        fill: none;
      }
    </style>
  </defs>
  <g id="_Слой_1-2" data-name="Слой 1">
    <path class="cls-3" d="m304.7,176.61s0,0,0,0c-17.61,1.11-60.16,19.17-54.32,27.26.16.22.33.43.52.63-.18-.2-.36-.4-.52-.63-5.83-8.09,36.71-26.14,54.32-27.26Z"/>
    <g>
      <path class="cls-2" d="m119.72,362.23c1.18-1.95,2.49-3.86,3.4-5.93,1.51-3.45.36-4.53-2.93-6.07-.07-.03-.15-.06-.22-.1-1.1-.45-2.54-.56-3.9-.56-.59,0-1.17.04-1.73.06-.23,0-.47.01-.69,0h0c-6.3.27-10.97-4.55-15.92-7.95,0,0,0,0,0,0,0,0,0,0,0,0-1.04,3.7-3.8,6.57-8.12,6.57s-9.04-3.93-8.5-8.5c.34-2.9.75-5.79,1.21-8.65-14.99-12.34-24.92-28.37-28.43-48.96-2.49-14.64-.82-29.01,2.83-43.26,4.86-18.95,11.73-37,23.49-52.88,9.06-12.23,20.44-21.37,34.98-26.36,2.79-.96,5.51-2.19,8.1-3.61,2.69-1.47,2.68-3.51-.16-4.66-3.85-1.56-7.84-2.83-11.86-3.9-13.43-3.58-25.23-9.72-33.05-21.67-8.67-13.27-8.87-27.72-4.7-42.43,5.31-18.75,16.29-33.6,32.07-44.88,20.59-14.71,43.33-22.75,68.91-21.42,21.16,1.1,36.73,12.32,42.71,30.79,3.05,9.42,2.78,19.11,2.03,28.85-.66,8.52-3.96,16.12-7.28,23.82-4.64,10.73-2.23,14.18,9.15,12.92,19.44-2.15,38.24-.36,56.08,8.12,4.38,2.08,8.59,4.54,13.01,6.52,1.44.65,3.84,1.01,4.84.24.96-.74,1.22-3.24.84-4.73-1.65-6.52-3.72-12.94-5.47-19.44-2.3-8.55-3.21-17.28-1.82-26.05,2.46-15.53,12.16-25.4,25.79-31.98,49.28-23.79,127.62.79,136.14,76.51,1.13,10.03.53,19.95-1.59,29.76-4.16,19.24-21.2,34.75-40.75,36.21-8.24.61-16.62-.68-24.94-1.07-2.68-.13-5.41-.47-8.04-.15-3.54.44-4.42,2.6-2.25,5.35,11.22,14.23,18.95,30.39,25.76,46.98,6.97,16.99,11.21,34.57,9.79,53.2-1.41,18.45-8.79,34.33-20.4,48.39-4.45,5.39-9.08,10.61-14.2,15.26.46,1.55.91,3.1,1.35,4.64,2.92,10.06-11.88,14.59-15.9,5.87-.71.39-1.43.76-2.16,1.13-10.27,5.1-20.95,7.9-32.44,5.2-2.33-.55-4.66-1.44-6.78-2.56-20.7-10.9-48.89-5.65-63.89,12.13h102.91c7.22-3.15,14.33-6.57,20.75-10.92,29.37-19.9,44.79-48.15,46.65-83.61,1.17-22.39-3.88-43.64-12.57-64.13-2.46-5.81-5.2-11.49-7.86-17.33.68-.29,1.15-.54,1.66-.68.91-.24,1.84-.41,2.76-.62,24.3-5.4,42.19-18.74,51.36-42.33,7.57-19.49,7.17-39.52,3.09-59.74-3.85-19.09-11.97-35.92-26.72-48.78-29.07-25.34-63.07-36.34-101.41-31.87-21.51,2.5-39.15,12.57-50.51,31.79-7.49,12.68-9.91,26.69-9.96,41.18,0,3.49-1.07,4.97-4.66,4.61-10.86-1.09-21.73-2.11-32.6-3.06-4.09-.35-5.2-2.37-4.51-6.26,1.4-7.82,2.75-15.67,3.69-23.56,1.3-10.89.67-21.51-5.43-31.22C213.43,8.93,183.4-4.43,151.42,1.31c-29.63,5.32-53.84,20.07-73.16,42.86-11.1,13.09-18.82,27.99-20.59,45.36-2.38,23.45,7.21,41.95,24.34,57.16,2.39,2.12,4.88,4.12,7.23,6.1-.18.57-.19.89-.35,1.06-1.21,1.27-2.45,2.51-3.67,3.76-17.52,18-31.45,38.35-40.32,61.95-8.09,21.51-11.31,43.62-6.26,66.32,7.11,31.99,27.68,53.18,55.84,67.98,5.75,3.02,5.8,3.13,1.94,8.43-5.03,6.91-10.15,13.77-15.2,20.67h27c1.05-2.33,2.12-4.65,3.21-6.97,2.28-4.82,5.51-9.18,8.28-13.77Z"/>
      <path class="cls-2" d="m253.4,427.99c3.24,2.93,6.59,5.86,8.65,8.96,2.23,3.35,2.92,6.83,3.2,10.29.41,4.97,0,9.96-1.22,14.91-.47,1.92-1.21,3.96-4.51,5.39-4.87,2.11-13.21,2.07-20.45,1.85-9.1-.27-19.82-.98-23.73-4.2-1.64-1.36-1.69-2.94-3.15-4.33-1.45-1.39-5.39-2.64-8.91-2.03-1.34.23-2.33.69-3.24,1.14-5.04,2.49-9.24,5.24-12.47,8.15-2.52,2.27-4.79,4.82-10.15,6.14-3.49.86-7.76,1.04-11.87,1.19-9.51.33-19.05.56-28.59.67-10,.12-20.43.08-29.39-1.67-5.51-1.07-10.12-2.73-14.65-4.36-5.92-2.13-11.96-4.33-15.7-7.12-3.7-2.76-4.89-5.92-5.73-9.02-1.04-3.84-1.59-7.85,2.06-11.44,4.44-4.36,14.35-7.44,24.01-10.22,12.71-3.66,26.01-7.22,41.17-8.92,9.84-1.1,20.33-1.41,29.6-3.1,4.85-.88,9.68-2.42,10.04-4.51.48-2.79-6.89-4.69-13.44-5.81-9.92-1.69-20.69-3.04-31.41-2.49-10.73.55-21.28,3.47-23.26,7.63-.63,1.32-.46,2.76-2.38,3.87-1.98,1.14-5.75,1.61-9.26,1.57-9.19-.1-17.16-3.64-16.26-7.21l-.6-.58c-4.69-3.18-3.33-7.33,1.38-10.51,4.65-3.13,17.24-16.92,25.07-19.25l-108.23.07v96.21h465.34v-96.19l-211.27-.09c3.77,5.38-6.02,40.19-.67,45.02Zm-196.88,7.41c.9,4.16,1.79,8.32,2.69,12.48,1.18,5.49,2.37,11.19,1.3,16.71-.88,4.51-3.21,5.4-5.51,9.3-.38.65-.79,1.33-1.41,1.73-.57.37-1.26.48-1.92.51-3.92.17-7.52-2.07-10.84-4.26-2.36-1.56-4.77-.07-6.34-2.49-1.4-2.15-2.02-4.75-2.55-7.3-2.41-11.53-3.43-23.39-3.03-35.19.06-1.78.15-3.59-.31-5.3-.46-1.71-1.58-3.34-3.2-3.84-1.05-.33-2.18-.15-3.27.04-2.15.36-4.29.73-6.43,1.09-2.62.45-5.59.8-7.65-.97-1.05-.9-1.68-2.23-2.22-3.55-1.7-4.19-2.75-8.68-3.08-13.24l1.17-.39c13.62-6.93,29.44-6.79,44.51-5.49,5.16.45,10.3,1.01,15.43,1.69,1.63.21,3.3.46,4.73,1.29,2.46,1.42,3.8,4.27,4.98,6.95,1.44,3.28,2.85,7.2,1.17,10.36-1.56,2.92-5.09,3.82-8.24,4.24-3.15.41-6.64.78-8.8,3.23-2.8,3.17-2.07,8.18-1.16,12.41Zm302.23-46.19c8.94-.98,18.01-1.23,27.02-.74.67.04,1.38.08,1.95.36,1.32.65,1.25,2.1,1.15,3.3-.31,3.56.43,7.17,2.12,10.49,3.35-.6,6.47-1.96,8.86-3.86,1.22-.98,2.27-2.09,3.65-2.92s3.27-1.35,4.93-.9c1.31.36,2.23,1.25,3.08,2.1,3.16,3.16,6.31,6.32,9.46,9.48,1.46,1.46,3,3.21,2.4,4.99-1.23,3.63-9.26,3.02-11.47,6.37-1.47,2.23.53,4.87,2.81,6.65,2.49,1.96,5.39,3.58,8.24,5.23,11.12,6.4,21.83,13.22,32.07,20.43,2.81,1.98,5.71,4.15,6.64,6.98.48,1.46.31,3.16-1.07,4.22-.95.74-2.31,1.05-3.57,1.41-8.49,2.43-14.7,7.95-21.34,12.68-.42.3-.89.62-1.47.66-.95.07-1.68-.59-2.24-1.19-6.91-7.49-13.82-14.98-20.74-22.47-4.27-4.63-8.59-9.32-11.37-14.57-2,.95-4.01,1.89-6.02,2.84-.55.26-1.13.54-1.4,1-.44.75.16,1.59.6,2.34,1.4,2.39,1.28,5.11,1.37,7.73.25,7.14,2.37,14.24,6.2,20.74.71,1.2,1.14,3.05-.5,3.46-.34.08-.7.07-1.06.06-13.13-.45-26.25-.9-39.38-1.35-.54-.02-1.12-.05-1.53-.32-.48-.32-.57-.85-.61-1.34-.27-2.82-.39-5.65-.5-8.47-1-24.89-2.01-49.78-2.72-74.68l4.44-.71Zm-92.49,4.91c6.27-1.69,12.73-2.78,19.23-3.24,2.31-.17,4.81-.2,6.74,1,2.66,1.66,3.29,5.02,3.68,8,.8,6.04,1.6,12.09,2.39,18.13.33,2.47.78,5.17,2.76,6.81,2.18,1.8,5.43,1.68,8.32,1.47,1.37-.1,2.74-.21,4.12-.31.41-.03.86-.08,1.14-.36.33-.34.28-.87.21-1.33-1.45-9.44-1.25-19.11.61-28.49.19-.96.42-1.95,1.05-2.72.59-.7,1.45-1.13,2.3-1.54,2.81-1.37,5.69-2.77,8.83-3.2,3.14-.43,6.64.28,8.71,2.55,1.31,1.44,1.92,3.32,2.41,5.16,4.19,15.52,3.15,31.93,6.72,47.59,1.9,8.32,5.11,16.78,3.33,25.12-.24,1.14-.64,2.35-1.62,3.06-.84.6-1.95.72-3,.82-5.02.47-10.04.93-15.05,1.39-1.44.13-2.94.26-4.29-.24-2.94-1.1-3.83-4.53-4.33-7.47-1.12-6.67-2.24-13.35-3.36-20.02-.08-.47-.17-.96-.53-1.3-.41-.38-1.05-.43-1.63-.44-4.68-.08-9.39.86-13.63,2.74,3.49,1.91,4.04,6.36,4.11,10.16.08,4.49.03,8.98-.15,13.47-.04,1.1-.11,2.25-.69,3.2-.99,1.6-3.2,2.19-5.16,2-1.96-.19-3.78-.99-5.65-1.53-4.49-1.31-9.43-1.19-13.83.33-.37.13-.79.27-1.16.14-.51-.19-.67-.79-.76-1.31-3.08-18.78-6.15-37.56-9.23-56.34-1.31-7.96-2.61-15.92-3.43-23.93l.85.66Z"/>
      <path class="cls-2" d="m127.76,239.94c3.76-2.51,9.51-.79,11.64,3.05,13.72,24.87,19.13,52.56,22.61,80.42,4.03-4.76,8.28-9.32,12.76-13.65,1.55-1.5,3.12-2.97,4.72-4.41-1.88-.79-3.74-2.01-5.55-3.75-22.73-21.78-21.56-52.83,2.49-73.11,28.6-24.11,78.89-21.24,104.53,5.97,21.98,23.32,18.56,55.63-7.85,74.19-6.68,4.69-14.17.86-22.83-3.94.94,2.97,1.83,5.96,2.67,8.96,1.68,5.98,3.15,12,4.43,18.08,4.17-5.79,8.73-11.29,13.64-16.45,8.99-9.46,19.27-17.83,30.33-24.76,5.72-3.58,11.92-7.51,18.68-8.59,8.11-1.3,14.8,2.28,20.43,7.87,13.55,13.49,21.63,30.83,27.8,48.77.35-.47.69-.95,1.03-1.43,15.73-22.54,19.39-47.15,11.77-73.2-6.13-20.94-19.07-35.66-41.42-40.46-.87-.19-1.64-.4-2.29-.66h0c-2.72,1.26-9.08.3-9.01.29-12.22.7-12.13-17.69-20.75-21.93-.7-.34-1.44-.63-2.21-.87,3.37-6.99,4.57-16.55,4.19-16.72,2.86.26,5.04-.87,6.53-3.38h0c12.06,8.82,8.71,25.66,18.42,35.72.14-.55.32-1.14.53-1.78,5.16-15.34,1.51-28.77-8.92-40.51-3.91-4.41-8.26-8.68-13.13-11.93-38.85-25.92-81.47-34.26-126.99-24.5-23.74,5.09-42.08,17.8-50.7,41,10.49-7.17,24.36-13.92,30.76-16.69,0,0,0,0,0,0,0,0,0,0,0,0-1.54,2.63-2.47,6.53-2.26,12.07.12,3.26,1.08,6.11,2.54,8.45,0,0,0,0,0,0-15.83,4.65-38.02,18.44-42.54,14.67-2.2-1.83-2.36-4.12-1.09-6.64l-1.81.47c-14.85,3.82-27.3,11.43-36.69,23.66-21.49,27.98-20.68,72.42,1.39,100.74,2.6-10.47,6.06-20.71,10.42-30.73,7.17-16.47,16.45-34.07,31.74-44.3Zm176.95-63.34s0,0,0,0c0,0,0,0,0,0-8.74,5.11-18.63,16.08-16.37,24-15.02,2.93-31.72,9.95-37.44,3.89-.18-.2-.36-.4-.52-.63-5.83-8.09,36.72-26.14,54.32-27.26Zm-94.21,32.23c2.57,7.77-15.87-13.37-26.23-23.12.91-1.89,1.19-4.56.51-8.08-.49-1.72-1.18-3.23-2.08-4.52-1.5-2.16-3.58-3.72-6.24-4.7,0,0,0,0,0,0,6.19-1.83,7.1-5.04,5.47-7.61,0,0,0,0,0,0,18.61,4.42,21.26,25.92,28.57,48.03Z"/>
      <path class="cls-2" d="m327.61,301.04c-3.63-3.45-6.23-2.36-10.46-.06-4.9,2.66-9.63,5.66-14.18,8.89-17.8,12.63-32.23,29.69-42.37,48.96,3.08-1.07,6.26-2,9.55-2.78,18.44-4.37,36.95-3.62,55.49-.84,10.9,1.64,20.55.36,28.84-4.24-2.35-7.56-4.97-15.05-8.26-22.23-4.64-10.13-10.47-19.97-18.61-27.7Z"/>
      <path class="cls-2" d="m184.92,172.6c.44.16.88.33,1.31.5-.42-.23-.86-.39-1.31-.5Z"/>
      <path class="cls-2" d="m136.15,353.51c0,4.45-.13,8.91-.16,13.36-.03,5.01-7.54,10.93-8.42,16.03.03.02.06.04.09.07.04.03.08.06.12.09.45.34.98.67,1.58.96,8.2,4.12,29.24,4.26,37.03,4.58,20.21.82,42.4-.78,56.14-5.54l.26-.09c8-8.02,16.97-14.69,27.13-19.68-2.66-.76-4.86-2.67-5.27-5.71-1.67-12.36-4.1-24.61-7.35-36.66-1.66-6.14-3.52-12.21-5.58-18.22-.82-2.38-1.67-4.75-2.55-7.11-2.09-.43-4.24-.67-6.45-.67-3.53,2-6.99,4.12-10.38,6.35-6.24,4.11-12.2,8.59-17.85,13.48-11.85,10.25-22.38,21.94-31.18,34.91-4.96,7.31-14.97,4.07-15.84-4.29-3-28.58-6.21-58.12-18.13-84.51-2.8,3.15-5.18,6.7-7.38,10.28-4.25,6.95-8.03,14.22-11.25,21.7-4.95,11.49-8.65,23.71-10.96,36.09,8.02,6,17.14,10.23,27.32,12.85,7.22,1.86,9.07,4.38,9.08,11.74Z"/>
      <path class="cls-2" d="m309.21,121.86c5.85,3.32,10.67.74,10.87-5.93.09-3.08-.29-6.19-.6-9.27-1.86-18.48,7.74-31.02,25.83-33.67,25.18-3.68,51.09,9.71,62.69,32.42,9.16,17.91,5.6,36.99-9.66,50.16-3.85,3.32-8.43,5.78-12.56,8.78-3.03,2.2-6.33,4.25-8.74,7.04-4.8,5.57-2.66,10.56,4.69,11.55,2.93.39,5.92.34,8.88.5,0-.12,0-.23,0-.35,2.16,0,4.32.12,6.47-.02,29.01-1.79,46.6-21.47,43.6-50.39-3.56-34.37-21.16-60.36-50.74-77.85-16.38-9.68-34.25-11.72-52.72-6.62-13.72,3.79-25.54,10.37-32.37,23.54-6.53,12.59-6.45,25.96-3.64,39.44.97,4.68,3.81,8.31,8.01,10.69Z"/>
      <path class="cls-2" d="m134.9,136.67c-1.57-2.9-3.94-5.43-6.21-7.88-6.13-6.61-12.81-12.76-18.48-19.73-5.67-6.97-7.56-15.56-4.33-24.04,2.8-7.33,6.29-14.75,11.03-20.93,12.3-16,28.98-22.43,48.95-18.66,16.42,3.1,26.87,13.38,28.04,28.1.48,5.99-1.37,12.19-2.4,18.26-.47,2.77-1.81,5.39-2.23,8.16-.9,5.84,3.09,9.32,8.87,7.89,4.83-1.2,8.19-4.41,9.65-8.99,2.49-7.8,5.3-15.65,6.45-23.7,1.98-13.93-.37-27.12-11.99-36.72-11.91-9.85-25.65-15.21-41.29-15.21-2.29.13-4.58.23-6.87.4-.94.07-1.88.21-2.8.4-31.62,6.52-53.04,25.42-64.98,54.93-5.73,14.16-6.04,28.76,2.49,42.37,7.03,11.23,17.93,17.23,30.12,21.19,3.43,1.12,7.03,2.09,10.61,2.34,5.85.41,8.13-3.06,5.36-8.18Z"/>
      <path class="cls-2" d="m263.52,241.07c-1.9-3.58-4.66-6.98-7.75-9.62-10.04-8.58-22.1-12.04-36.94-12.87-2.52.4-6.92.68-11.07,1.84-15.29,4.29-19.07,17.73-7.84,28.96,12.43,12.43,28.05,16.71,45.25,14.96,4.38-.45,8.9-2.19,12.79-4.36,7.23-4.05,9.43-11.63,5.57-18.92Z"/>
      <path class="cls-2" d="m149.52,440.69l-3.49-.88c-4.78-.13-9.39.79-13.1,1.98-8.34,2.67-13.33,6.88-13.17,11.1.03.74.23,1.5,1.17,2.15.84.57,2.21.99,3.65,1.33,3.56.84,7.68,1.25,11.77,1.55,5.34.39,11.7.51,15.31-1.08,1.6-.7,2.36-1.64,2.98-2.55.87-1.28,1.57-2.59,1.44-3.91-.33-3.35-5.87-6.34-6.56-9.69Z"/>
    </g>
    <g>
      <path class="cls-1" d="m182.7,173.11c.9,1.29,1.6,2.8,2.08,4.52.68,3.52.4,6.19-.51,8.08,10.36,9.75,28.8,30.89,26.23,23.12-7.3-22.11-9.96-43.6-28.57-48.03,0,0,0,0,0,0,1.62,2.57.72,5.78-5.47,7.61,0,0,0,0,0,0,2.66.98,4.74,2.54,6.24,4.7Zm3.53,0c-.43-.18-.86-.35-1.31-.5.45.11.89.28,1.31.5Z"/>
      <path class="cls-1" d="m250.9,204.49c5.72,6.07,22.42-.96,37.44-3.89-2.26-7.92,7.63-18.89,16.37-24,0,0,0,0,0,0-17.61,1.11-60.15,19.17-54.32,27.26.16.22.33.43.52.63Z"/>
      <path class="cls-1" d="m262.05,436.94c-2.06-3.09-5.41-6.02-8.65-8.96-5.34-4.83,4.44-39.64.67-45.02,15.01-17.78,43.2-23.03,63.89-12.13,2.12,1.12,4.44,2.01,6.78,2.56,11.5,2.7,22.17-.1,32.44-5.2.73-.36,1.45-.74,2.16-1.13,4.01,8.71,18.82,4.19,15.9-5.87-.45-1.54-.9-3.09-1.35-4.64,5.12-4.65,9.74-9.87,14.2-15.26,11.61-14.06,18.99-29.94,20.4-48.39,1.42-18.63-2.82-36.21-9.79-53.2-6.81-16.59-14.54-32.75-25.76-46.98-2.17-2.75-1.29-4.92,2.25-5.35,2.63-.33,5.36.02,8.04.15,8.32.39,16.7,1.69,24.94,1.07,19.55-1.46,36.59-16.97,40.75-36.21,2.12-9.81,2.72-19.73,1.59-29.76-8.51-75.72-86.85-100.29-136.14-76.51-13.64,6.58-23.33,16.45-25.79,31.98-1.39,8.77-.48,17.5,1.82,26.05,1.74,6.5,3.82,12.91,5.47,19.44.37,1.49.12,3.99-.84,4.73-1,.77-3.4.4-4.84-.24-4.43-1.98-8.63-4.44-13.01-6.52-17.85-8.48-36.64-10.27-56.08-8.12-11.38,1.26-13.78-2.19-9.15-12.92,3.32-7.7,6.62-15.29,7.28-23.82.75-9.74,1.02-19.43-2.03-28.85-5.98-18.47-21.55-29.69-42.71-30.79-25.58-1.33-48.33,6.71-68.91,21.42-15.78,11.27-26.76,26.13-32.07,44.88-4.17,14.72-3.98,29.17,4.7,42.43,7.81,11.95,19.62,18.09,33.05,21.67,4.02,1.07,8.01,2.34,11.86,3.9,2.84,1.16,2.85,3.19.16,4.66-2.59,1.42-5.31,2.65-8.1,3.61-14.54,4.99-25.92,14.12-34.98,26.36-11.76,15.88-18.63,33.93-23.49,52.88-3.65,14.26-5.32,28.63-2.83,43.26,3.51,20.6,13.44,36.62,28.43,48.96-.47,2.87-.87,5.75-1.21,8.65-.54,4.57,4.3,8.5,8.5,8.5s7.07-2.87,8.12-6.57h0s0,0,0,0c4.96,3.4,9.63,8.23,15.93,7.95h0c.23,0,.46,0,.69,0,.56-.02,1.14-.05,1.73-.06,1.37,0,2.8.12,3.9.56.07.03.15.06.22.1,3.29,1.54,4.44,2.62,2.93,6.07-.91,2.08-2.22,3.98-3.4,5.93-2.77,4.59-6,8.96-8.28,13.77-1.1,2.32-2.17,4.64-3.21,6.97-7.83,2.33-20.42,16.12-25.07,19.25-4.71,3.18-6.08,7.33-1.38,10.51l.6.58c-.9,3.58,7.07,7.12,16.26,7.21,3.51.04,7.29-.44,9.26-1.57,1.92-1.11,1.75-2.55,2.38-3.87,1.98-4.16,12.54-7.08,23.26-7.63,10.73-.55,21.49.8,31.41,2.49,6.54,1.12,13.92,3.02,13.44,5.81-.36,2.09-5.19,3.62-10.04,4.51-9.28,1.69-19.77,1.99-29.6,3.1-15.16,1.7-28.46,5.26-41.17,8.92-9.66,2.78-19.58,5.86-24.01,10.22-3.65,3.59-3.11,7.6-2.06,11.44.84,3.1,2.03,6.26,5.73,9.02,3.74,2.79,9.78,4.98,15.7,7.12,4.53,1.63,9.14,3.29,14.65,4.36,8.96,1.74,19.39,1.78,29.39,1.67,9.55-.11,19.08-.34,28.59-.67,4.11-.15,8.38-.33,11.87-1.19,5.36-1.32,7.64-3.86,10.15-6.14,3.23-2.91,7.43-5.66,12.47-8.15.91-.45,1.9-.91,3.24-1.14,3.51-.61,7.46.64,8.91,2.03,1.45,1.39,1.5,2.97,3.15,4.33,3.91,3.23,14.63,3.94,23.73,4.2,7.24.21,15.58.26,20.45-1.85,3.3-1.43,4.04-3.48,4.51-5.39,1.22-4.95,1.62-9.94,1.22-14.91-.28-3.46-.97-6.94-3.2-10.29Zm-107.41,17.34c-.63.91-1.38,1.84-2.98,2.55-3.61,1.59-9.97,1.48-15.31,1.08-4.09-.3-8.21-.71-11.77-1.55-1.44-.34-2.81-.77-3.65-1.33-.94-.64-1.14-1.41-1.17-2.15-.16-4.22,4.83-8.42,13.17-11.1,3.71-1.19,8.31-2.11,13.1-1.98l3.49.88c.69,3.34,6.24,6.33,6.56,9.69.13,1.32-.56,2.63-1.44,3.91Zm171-99.07c-18.53-2.78-37.05-3.53-55.49.84-3.29.78-6.47,1.71-9.55,2.78,10.14-19.27,24.57-36.32,42.37-48.96,4.55-3.23,9.28-6.23,14.18-8.89,4.23-2.3,6.83-3.39,10.46.06,8.14,7.72,13.97,17.57,18.61,27.7,3.29,7.18,5.91,14.67,8.26,22.23-8.29,4.6-17.94,5.87-28.84,4.24Zm-20.8-283.48c6.83-13.16,18.66-19.75,32.37-23.54,18.47-5.11,36.34-3.07,52.72,6.62,29.59,17.5,47.19,43.48,50.74,77.85,3,28.92-14.59,48.6-43.6,50.39-2.15.13-4.31.02-6.47.02,0,.12,0,.23,0,.35-2.96-.15-5.95-.1-8.88-.5-7.35-.99-9.49-5.98-4.69-11.55,2.41-2.79,5.71-4.84,8.74-7.04,4.14-3,8.72-5.46,12.56-8.78,15.27-13.17,18.82-32.25,9.66-50.16-11.61-22.71-37.52-36.1-62.69-32.42-18.08,2.65-27.69,15.19-25.83,33.67.31,3.08.69,6.19.6,9.27-.2,6.67-5.02,9.24-10.87,5.93-4.21-2.38-7.04-6.01-8.01-10.69-2.8-13.48-2.89-26.85,3.64-39.44Zm-185.91,70.79c-12.19-3.96-23.09-9.95-30.12-21.19-8.53-13.61-8.21-28.21-2.49-42.37,11.94-29.51,33.36-48.41,64.98-54.93.92-.19,1.86-.33,2.8-.4,2.29-.17,4.58-.27,6.87-.4,15.64,0,29.38,5.36,41.29,15.21,11.62,9.6,13.97,22.79,11.99,36.72-1.15,8.05-3.96,15.9-6.45,23.7-1.46,4.57-4.82,7.79-9.65,8.99-5.77,1.44-9.77-2.05-8.87-7.89.43-2.77,1.76-5.39,2.23-8.16,1.02-6.07,2.87-12.27,2.4-18.26-1.17-14.72-11.62-25.01-28.04-28.1-19.97-3.76-36.65,2.66-48.95,18.66-4.75,6.18-8.23,13.59-11.03,20.93-3.24,8.48-1.34,17.07,4.33,24.04,5.67,6.97,12.36,13.12,18.48,19.73,2.27,2.45,4.64,4.98,6.21,7.88,2.76,5.12.49,8.6-5.36,8.18-3.58-.25-7.17-1.22-10.61-2.34Zm-33.33,172.46c-22.07-28.32-22.88-72.76-1.39-100.74,9.39-12.23,21.84-19.84,36.69-23.66l1.81-.47c-1.27,2.52-1.11,4.8,1.09,6.64,4.53,3.77,26.71-10.02,42.54-14.67h0c-1.46-2.34-2.42-5.19-2.54-8.45-.2-5.54.72-9.44,2.26-12.07,0,0,0,0,0,0,0,0,0,0,0,0-6.4,2.77-20.27,9.52-30.76,16.69,8.61-23.2,26.96-35.91,50.7-41,45.53-9.76,88.14-1.42,126.99,24.5,4.87,3.25,9.22,7.52,13.13,11.93,10.43,11.75,14.08,25.17,8.92,40.51-.21.63-.39,1.22-.53,1.78-9.71-10.06-6.36-26.89-18.42-35.72h0c-1.5,2.51-3.67,3.64-6.53,3.38.37.17-.82,9.73-4.19,16.72.77.24,1.51.52,2.21.87,8.61,4.23,8.53,22.62,20.75,21.93-.07,0,6.29.97,9.01-.29h0c.66.25,1.42.47,2.29.66,22.35,4.8,35.29,19.51,41.42,40.46,7.63,26.05,3.97,50.66-11.77,73.2-.34.49-.68.97-1.03,1.43-6.17-17.95-14.25-35.29-27.8-48.77-5.62-5.6-12.31-9.17-20.43-7.87-6.76,1.08-12.96,5.01-18.68,8.59-11.06,6.93-21.34,15.3-30.33,24.76-4.9,5.16-9.47,10.66-13.64,16.45-1.28-6.07-2.75-12.1-4.43-18.08-.84-3-1.73-5.99-2.67-8.96,8.66,4.8,16.15,8.63,22.83,3.94,26.41-18.56,29.83-50.87,7.85-74.19-25.64-27.21-75.93-30.09-104.53-5.97-24.05,20.28-25.22,51.33-2.49,73.11,1.81,1.74,3.67,2.95,5.55,3.75-1.6,1.44-3.17,2.92-4.72,4.41-4.48,4.33-8.73,8.9-12.76,13.65-3.49-27.87-8.9-55.55-22.61-80.42-2.12-3.84-7.88-5.56-11.64-3.05-15.29,10.24-24.56,27.84-31.74,44.3-4.36,10.02-7.82,20.26-10.42,30.73Zm114.32-65.58c-11.23-11.23-7.44-24.68,7.84-28.96,4.15-1.16,8.55-1.44,11.07-1.84,14.84.82,26.9,4.29,36.94,12.87,3.09,2.64,5.85,6.03,7.75,9.62,3.86,7.29,1.66,14.87-5.57,18.92-3.88,2.17-8.4,3.92-12.79,4.36-17.19,1.75-32.81-2.53-45.25-14.96Zm22.87,133.58l-.26.09c-13.73,4.77-35.92,6.36-56.14,5.54-7.79-.32-28.84-.47-37.03-4.58-.6-.3-1.13-.62-1.58-.96-.04-.03-.08-.06-.12-.09-.03-.02-.06-.05-.09-.07.88-5.1,8.39-11.02,8.42-16.03.03-4.45.16-8.91.16-13.36,0-7.36-1.86-9.88-9.08-11.74-10.18-2.62-19.3-6.84-27.32-12.85,2.3-12.38,6-24.6,10.96-36.09,3.22-7.48,7-14.76,11.25-21.7,2.19-3.59,4.58-7.13,7.38-10.28,11.92,26.39,15.13,55.93,18.13,84.51.88,8.37,10.88,11.6,15.84,4.29,8.8-12.97,19.33-24.65,31.18-34.91,5.65-4.89,11.61-9.37,17.85-13.48,3.39-2.23,6.85-4.35,10.38-6.35,2.21,0,4.36.25,6.45.67.88,2.36,1.73,4.73,2.55,7.11,2.06,6.01,3.92,12.09,5.58,18.22,3.25,12.05,5.68,24.29,7.35,36.66.41,3.04,2.61,4.95,5.27,5.71-10.16,4.99-19.12,11.66-27.13,19.68Z"/>
      <path class="cls-1" d="m66.48,419.75c3.15-.41,6.68-1.32,8.24-4.24,1.68-3.15.27-7.07-1.17-10.36-1.18-2.68-2.52-5.53-4.98-6.95-1.44-.83-3.11-1.07-4.73-1.29-5.13-.68-10.28-1.24-15.43-1.69-15.07-1.3-30.89-1.44-44.51,5.49l-1.17.39c.33,4.55,1.38,9.04,3.08,13.24.54,1.32,1.17,2.65,2.22,3.55,2.06,1.77,5.03,1.42,7.65.97,2.15-.36,4.29-.73,6.43-1.09,1.08-.18,2.21-.37,3.27-.04,1.62.5,2.74,2.13,3.2,3.84.46,1.71.37,3.52.31,5.3-.39,11.8.63,23.66,3.03,35.19.53,2.55,1.16,5.14,2.55,7.3,1.58,2.42,3.99.94,6.34,2.49,3.32,2.2,6.93,4.43,10.84,4.26.67-.03,1.35-.14,1.92-.51.62-.41,1.02-1.08,1.41-1.73,2.31-3.9,4.63-4.79,5.51-9.3,1.08-5.52-.11-11.22-1.3-16.71-.9-4.16-1.79-8.32-2.69-12.48-.91-4.23-1.64-9.24,1.16-12.41,2.17-2.45,5.65-2.82,8.8-3.23Z"/>
      <path class="cls-1" d="m338.76,396.04c-.49-1.84-1.1-3.72-2.41-5.16-2.07-2.26-5.57-2.98-8.71-2.55-3.14.43-6.02,1.83-8.83,3.2-.84.41-1.71.84-2.3,1.54-.64.77-.86,1.76-1.05,2.72-1.86,9.38-2.07,19.04-.61,28.49.07.46.12.99-.21,1.33-.28.29-.73.33-1.14.36-1.37.1-2.74.21-4.12.31-2.89.22-6.14.33-8.32-1.47-1.99-1.64-2.44-4.34-2.76-6.81-.8-6.04-1.6-12.08-2.39-18.13-.39-2.98-1.02-6.34-3.68-8-1.93-1.21-4.43-1.17-6.74-1-6.51.46-12.96,1.54-19.23,3.24l-.85-.66c.82,8.01,2.13,15.97,3.43,23.93,3.08,18.78,6.16,37.56,9.23,56.34.09.51.24,1.12.76,1.31.37.14.78,0,1.16-.14,4.41-1.53,9.35-1.65,13.83-.33,1.88.55,3.7,1.35,5.65,1.53,1.96.19,4.17-.4,5.16-2,.59-.95.65-2.1.69-3.2.18-4.49.23-8.98.15-13.47-.06-3.8-.62-8.25-4.11-10.16,4.24-1.88,8.95-2.82,13.63-2.74.58,0,1.22.06,1.63.44.35.33.45.83.53,1.3,1.12,6.67,2.24,13.34,3.36,20.02.5,2.94,1.39,6.38,4.33,7.47,1.34.5,2.85.37,4.29.24,5.02-.46,10.04-.93,15.05-1.39,1.05-.1,2.16-.21,3-.82.99-.7,1.38-1.91,1.62-3.06,1.78-8.34-1.43-16.8-3.33-25.12-3.57-15.66-2.52-32.06-6.72-47.59Z"/>
      <path class="cls-1" d="m461.65,457.16c-.93-2.83-3.83-5-6.64-6.98-10.24-7.21-20.95-14.03-32.07-20.43-2.85-1.64-5.75-3.27-8.24-5.23-2.27-1.79-4.27-4.43-2.81-6.65,2.2-3.35,10.24-2.74,11.47-6.37.6-1.78-.94-3.53-2.4-4.99-3.16-3.16-6.31-6.32-9.46-9.48-.85-.85-1.77-1.74-3.08-2.1-1.66-.46-3.54.06-4.93.9s-2.43,1.95-3.65,2.92c-2.39,1.9-5.5,3.26-8.86,3.86-1.7-3.32-2.43-6.93-2.12-10.49.1-1.19.17-2.65-1.15-3.3-.57-.28-1.27-.33-1.95-.36-9.01-.49-18.08-.24-27.02.74l-4.44.71c.71,24.9,1.72,49.79,2.72,74.68.12,2.82.23,5.65.5,8.47.05.49.13,1.02.61,1.34.41.27.99.3,1.53.32,13.13.45,26.25.9,39.38,1.35.36.01.72.02,1.06-.06,1.64-.4,1.2-2.26.5-3.46-3.83-6.51-5.95-13.61-6.2-20.74-.09-2.62.04-5.34-1.37-7.73-.44-.75-1.04-1.59-.6-2.34.27-.45.85-.74,1.4-1,2-.95,4.01-1.89,6.02-2.84,2.78,5.26,7.09,9.94,11.37,14.57,6.91,7.49,13.82,14.98,20.74,22.47.55.6,1.29,1.26,2.24,1.19.58-.04,1.05-.36,1.47-.66,6.64-4.73,12.85-10.25,21.34-12.68,1.27-.36,2.62-.68,3.57-1.41,1.38-1.06,1.55-2.77,1.07-4.22Z"/>
    </g>
  </g>
</svg>