<?xml version="1.0" encoding="UTF-8"?>
<svg id="_Слой_2" data-name="Слой 2" xmlns="http://www.w3.org/2000/svg" viewBox="0 0 336.42 331.07">
  <defs>
    <style>
      .cls-1 {
        fill: #fff;
      }

      .cls-2 {
        fill: none;
      }
    </style>
  </defs>
  <g id="_Слой_1-2" data-name="Слой 1">
    <g>
      <path class="cls-2" d="m185.1,281.76l4.82-4.71c3.86-3.76,7.71-7.53,11.82-11.09.55-.47,1.1-.97,1.65-1.44.47-.38,1.02-.72,1.4-1.14.47-.55.47-1.27.04-1.83-.55-.67-1.48-.67-2.41-.76-1.15-.04-2.33-.04-3.47.05,0,.12-.05.25-.13.38-3.05,5.97-9.49,10.58-16.98,12.32,1.77,2.46,2.79,5.34,3.26,8.22Z"/>
      <path class="cls-2" d="m127.84,281.84c-.34-.04-.55-.13-.72-.3-2.41,1.99-4.78,4.03-6.99,6.23-.59.59-1.18,1.23-1.73,1.82,4.49-2.58,9.91-4.11,15.45-4.15.47,0,.77.21.89.47,3.31-2.93,7.84-5.04,12.75-4.83,4.32.21,8.51,2.37,10.21,5.67.51-2.71.8-5.54,1.61-8.21-10.21,2.54-20.84,3.64-31.47,3.3Z"/>
      <path class="cls-1" d="m89.18,14.95c-1.91.72-3.69,1.74-5.17,2.93-1.48,1.27-2.84,2.71-3.39,4.44-.46,1.44-.08,3.22,1.86,3.73,1.78.47,3.69-.13,5-1.14,1.61-1.27,2.5-3.05,3.3-4.75.05-.08.09-.17.17-.21-.12-.25-.25-.46-.33-.72-.64-1.4-1.11-2.84-1.44-4.28Z"/>
      <path class="cls-1" d="m105.48,23.81c.85-1.11,1.23-2.46.97-3.77-.25-1.57-1.31-3.09-2.2-4.49-.04-.09-.08-.17-.08-.26-1.15.34-2.29.68-3.48.94-1.27.29-1.82-1.36-.55-1.66,3.35-.76,6.53-1.94,9.36-3.6,1.27-.72,2.42-1.48,3.52-2.33,1.06-.84,2.12-1.82,2.58-3,.43-1.06.13-2.16-1.01-2.8-1.19-.63-2.63-.63-3.94-.34-2.8.64-5.42,2.21-7.5,3.86-2.12,1.65-3.81,3.64-5.04,5.8-.59,1.02-2.37.13-1.78-.85.43-.76.93-1.48,1.44-2.2-1.18-.68-3.09-.76-4.4-.3-1.74.55-2.46,2.12-2.5,3.56,0,1.44.42,2.84.89,4.19.34,1.15.8,2.25,1.4,3.31,1.06,1.95,2.62,3.89,5.04,4.78,1.18.43,2.37.47,3.64.51,1.52,0,2.75-.21,3.64-1.35Z"/>
      <path class="cls-1" d="m200.77,170.29c.12,2.46.25,4.91.38,7.37,1.73-3.3,4.06-6.44,6.86-9.19-1.44.47-2.88.89-4.36,1.23-.94.21-1.91.42-2.88.59Z"/>
      <path class="cls-1" d="m199.62,180.84c-.21-.13-.42-.38-.42-.68-.17-3.18-.34-6.4-.51-9.57-1.74.21-3.47.34-5.21.38v.08c.38,4.37.76,8.77,1.19,13.13,0,.17-.04.3-.09.38,1.7,3.82,2.54,7.88,2.5,11.9h.55c-.25-.17-.42-.38-.46-.67-.17-2.5-.09-4.96.34-7.41.38-2.55,1.14-5.09,2.11-7.54Z"/>
      <path class="cls-1" d="m182.26,170.04c.76.55,1.57,1.1,2.29,1.69,3.09,2.5,5.67,5.38,7.7,8.51-.29-3.04-.55-6.14-.84-9.19v-.04c-3.09-.08-6.19-.38-9.15-.97Z"/>
      <path class="cls-1" d="m201.1,223.36c-2.07.55-3.76,1.73-5.71,2.54.04.67.04,1.39.12,2.07.09.3.17.76.3,1.1.13.26.34.55.51.72.25.21.38.26.76.34.3.04.85,0,1.23-.08,1.14-.17,2.29-.6,3.35-1.06,1.14-.51,2.2-1.1,3.17-1.82.68-.51,1.36-1.06,1.1-1.82-.51-1.61-3.05-2.42-4.83-1.99Z"/>
      <path class="cls-1" d="m178.11,233.48c.21.08.42.12.63.12.68,0,1.32-.21,1.95-.33,1.78-.43,3.6-.43,5.38-.68.42-.04.85-.09,1.23-.21.08-.05.17-.09.21-.09.25-.21.47-.51.55-.72.38-.76.42-1.61.3-2.33-.04-.21-.09-.42-.17-.68,0-.08-.04-.16-.09-.25-.04-.13,0-.04-.08-.17-.09-.17-.17-.3-.3-.42h-.04s-.13-.17-.13-.17h-.04c-.85-.51-2.03-.68-3.09-.72-1.36-.13-2.75-.09-4.11.08-.97.09-1.99.3-2.84.6-.04.84-.17,1.69-.21,2.54-.04.59-.04,1.23.04,1.82.05.38.17.93.34,1.23.09.12.17.25.47.38Z"/>
      <path class="cls-1" d="m200.13,257.28c-.08.63-.3,1.23-.59,1.82,1.31-.09,2.62-.04,3.94.08,1.31.09,2.5.6,3.17,1.57.55.76.72,1.74.38,2.63-.38,1.14-1.61,1.9-2.58,2.71-2.33,1.99-4.57,4.02-6.82,6.14-4.06,3.85-8,7.79-12.07,11.69-.04.08-.12.12-.21.16.04,1.02.09,2,0,2.97-.25,5.97-2.62,11.81-6.35,16.9-3.6,4.91-8.43,9.14-13.81,12.74,0,0,0,.05-.04.05,1.4.42,2.84.72,4.28.8,8.26.64,16.34-2.96,20.28-9.02-.59-.34-1.18-.72-1.78-1.1-.46-.3-.38-.93,0-1.23.43-.34,1.02-.25,1.44,0,1.23.81,2.5,1.57,3.82,2.33,10.41,5.84,22.65,9.49,35.19,10.42,6.27.46,12.58.29,18.76-.59,6.44-.94,12.53-2.72,18.25-5.34,5.93-2.67,11.35-6.06,16.18-9.91,2.29-1.82,4.49-3.73,6.31-5.89,1.69-2.03,3.09-4.23,4.15-6.56,2.12-4.7,2.84-9.83,2.37-14.82-.21-2.5-.76-4.96-1.65-7.37-.76-2.08-2.08-4.32-4.49-5.38-2.71-1.19-5.67-.04-7.79,1.52-2.42,1.78-4.2,4.03-5.55,6.44-2.75,5-3.52,10.55-4.62,15.92-.21,1.06-2.2.6-1.99-.46.3-1.44.55-2.88.85-4.32.13-.47.21-.97.34-1.48-3.81-.64-7.71-.77-11.56-.38-12.96,1.18-24.31,8.21-29.69,18.08-.55.97-2.33.13-1.78-.89.21-.38.47-.81.68-1.19-.04-.12-.09-.21-.13-.34-.25-1.82-1.14-3.64-2.37-5.12-1.06-1.31-2.46-2.46-4.19-3.09-1.74-.59-3.64-.47-5.38.08-1.69.51-3.22,1.4-4.4,2.59-.05.12-.13.21-.26.29-1.23,1.32-1.99,2.88-2.07,4.53-.09,1.11-2.12,1.11-2.08,0,.13-1.99.98-3.89,2.42-5.5-.09-2.41.59-4.83,1.6-7.07,2.04-4.45,5.3-8.43,8.56-12.28,1.35-1.53,2.75-3.1,4.02-4.7.43-.56.89-1.15,1.27-1.78.09-.13.13-.26.21-.38,0-.05.09-.17.09-.22.04-.12.08-.21.13-.34v-.12s.04-.09.04-.13c-.3-.04-.55-.13-.85-.21-1.23-.38-.68-2.03.55-1.65,3.43,1.01,7.33,1.73,10.89.67,2.33-.67,4.49-2.32,5.04-4.4.55-2.12-.94-4.23-3.01-5.42-5.76-3.22-12.88.25-17.91,2.84-1.15.55-2.16-.93-1.06-1.48,1.44-.72,2.83-1.45,4.32-2.08-8.01-2.58-16.77-3.18-25.16-1.65.04.04.09.08.09.08,2.07,2.29,3.17,5,2.62,7.84Z"/>
      <path class="cls-1" d="m178.36,301.41c3.31-4.96,5.17-10.63,4.96-16.35-.09-2.84-.72-5.68-1.95-8.3-.97-2.12-2.54-4.28-4.79-5.63-.12,0-.21-.09-.29-.17-2.33-1.27-5.21-1.49-7.75-.47-2.88,1.1-4.96,3.22-6.14,5.63-2.8,5.51-1.87,11.82-4.62,17.37-.21.42-.68.72-1.27.59-.46-.13-.93-.64-.72-1.06.59-1.14.98-2.29,1.31-3.51-.33,0-.67-.22-.76-.6-.42-1.99-1.9-3.68-3.94-4.78-4.23-2.25-9.44-1.4-13.38.89-4.32,2.5-6.78,6.65-8.38,10.71-.43,1.02-2.42.59-1.99-.47,1.05-2.62,2.37-5.25,4.31-7.49.17-.21.34-.42.51-.59-7.83.12-15.45,3.47-19.99,8.8-.25.26-.55.39-.84.39-.43.55-.81,1.05-1.23,1.61-.68.93-2.46.08-1.78-.85,1.52-2.08,3.09-4.07,4.79-5.97,3-3.48,6.31-6.74,9.86-9.74,1.78-1.53,3.73-2.97,5.55-4.45,1.36-1.1,2.67-2.24,3.94-3.39-.42-.04-.81-.04-1.23-.08-1.31-.13-1.31-1.82,0-1.74,1.06.09,2.12.17,3.18.26.17-.05.29-.05.46,0,3.39.21,6.86.12,9.96-.98,2.88-1.02,5.54-3.09,6.18-5.72.68-2.62-1.27-5.21-3.98-6.52-3.18-1.48-7.2-1.06-10.29.43-3.22,1.52-5.47,4.06-7.03,6.77-.55,1.02-2.33.13-1.78-.85.89-1.48,1.95-2.92,3.22-4.19-.51-.12-.98-.25-1.49-.38-8.13-2.16-16.77-3.47-25.32-3.68-3.6-.09-7.33,0-10.8.84-1.35.3-2.75.72-3.85,1.49-1.49,1.1-2.67,2.92-1.99,4.57.72,1.69,3,2.37,4.91,2.75,2.2.47,4.49.68,6.73.85,2.63.21,5.25.34,7.92.51,1.99.08,3.69,1.27,3.56,3.05-.13,1.52-1.91,2.71-3.13,3.77-1.4,1.18-2.84,2.32-4.37,3.47-3.3,2.5-6.77,4.87-10.33,7.11-3.6,2.29-7.24,4.45-11.01,6.48-3.09,1.61-6.23,3.18-9.53,4.45-1.19.42-2.24-1.06-1.06-1.48.76-.3,1.48-.6,2.2-.89,1.06-.47,2.08-.93,3.1-1.4-6.78-1.36-13.85-2.24-20.76-.93-5.59,1.06-10.67,3.68-13.72,7.83-2.79,3.77-3.43,8.39-1.44,12.54,2.12,4.4,6.99,7.2,12.54,7.79,6.14.64,12.07-1.27,17.15-3.98-.47-.38-.89-.76-1.36-1.14-.88-.81.56-2.04,1.49-1.23,1.06.97,2.2,1.9,3.39,2.75,9.44,7.16,21.76,11.6,34.43,12.88,13.46,1.35,27.23-.85,39.38-5.76,4.66-1.91,9.23-4.2,13.42-6.91t.09-.04c6.35-4.07,11.94-9.02,15.75-14.86Z"/>
      <path class="cls-1" d="m20.36,93.6c.21.04.38.12.51.25.89-.51,1.86-.93,2.83-1.06.64-.08,1.19,0,1.78.13-.34-4.53.04-9.66,4.62-12.66.46-.34,1.01-.6,1.57-.85-.72-.17-1.4-.38-2.12-.55-1.32-.3-2.67-.64-4.03-.85-1.44-.21-2.58.09-3.72.81-1.02.63-1.82,1.44-2.46,2.37-.97,1.52-1.52,3.3-2.07,4.95-.47,1.49-.94,3.14-.55,4.66.42,1.57,1.77,2.42,3.64,2.8Z"/>
      <path class="cls-1" d="m8.54,100.71c2.59.76,5.34.26,7.88-.25v-.43c.04-1.65.89-3.21,2.16-4.44.17-.17.34-.34.55-.51-2.33-.64-4.07-2.03-4.45-4.15-.38-1.91.13-3.85.77-5.72.12-.34.25-.68.38-1.01-1.95.46-3.73,1.27-5.25,2.37-1.7,1.18-3.1,2.71-3.99,4.4-.84,1.74-1.01,3.56-1.01,5.42-.04.89.04,1.78.46,2.59.47.89,1.44,1.44,2.5,1.73Z"/>
      <path class="cls-1" d="m21.63,108.84c-1.57-1.14-2.84-2.58-3.77-4.1-.47-.81-.89-1.7-1.14-2.59-3.26.64-6.86,1.19-9.96-.21-1.22-.55-2.03-1.31-2.54-2.24-1.39,1.14-1.99,2.92-2.11,4.53-.13,1.82.21,3.81,1.14,5.5,1.18,1.99,3.39,3.56,5.93,4.24,5.12,1.39,10.67-1.02,12.45-5.13Z"/>
      <path class="cls-1" d="m29.04,111.85c-.72-1.65-3.09-2.67-5.08-1.99-.21.08-.43.08-.6,0-1.22,2.41-3.55,4.4-6.43,5.46-.64.21-1.32.38-1.99.51t-.05.04c-.5.38-1.18.55-1.86.77-.25.08-.04.04-.29.12-.09.04-.22.09-.22.09h-.04l-.04.04s0,.04.04.08c.38.85,1.36,1.57,2.2,2.21,1.15.8,2.33,1.06,3.81.97,2.8-.17,5.93-1.02,8.09-2.5,1.95-1.35,3.43-3.68,2.46-5.8Z"/>
      <path class="cls-1" d="m58.51,122.56c2.12-3.3,2.72-7.53.68-10.92-1.69-2.92-5.12-5.13-9.02-5.38-.04.25-.04.55-.08.8-.13,1.06-.21,2.21-.64,3.18-.42,1.06-2.45.59-1.99-.47.43-1.01.51-2.03.59-3.04.17-1.7.26-3.39.26-5.09.04-3.17-.04-6.35-.59-9.48-.22-1.32-.6-2.59-1.11-3.86-.8-1.99-1.82-3.98-3.6-5.54-1.65-1.44-4.02-2.42-6.43-2.5-2.46-.13-4.66.67-6.31,2.2-3.09,2.88-3.01,7.16-2.71,10.84.17,0,.38,0,.55-.04.55-.04,1.1.13,1.27.59.13.43-.17,1.02-.72,1.06-1.1.13-2.08.09-3.09-.21-.77-.21-1.27-.34-2.04-.09-2.03.68-3.93,2.21-4.7,3.9-.72,1.61-.21,3.39.6,4.91.84,1.61,2.07,3.05,3.64,4.19.29.05.59.22.76.47,1.57-.42,3.26-.08,4.66.68.04,0,.04-.04.08-.04,2.8-.13,5.81-1.02,7.84-2.67,2.07-1.61,3.09-4.11,3.09-6.44,0-1.1,2.08-1.1,2.08,0,0,2.8-1.28,5.72-3.73,7.67-2.03,1.61-4.74,2.58-7.5,2.96.38.47.64,1.02.81,1.53.89,2.75-.81,5.54-3.35,7.24,2.12,2.11,5.38,3.26,8.64,3.13,1.31-.04,1.31,1.69,0,1.74-2.29.08-4.57-.38-6.52-1.32-.76,1.57-.64,3.39.21,4.92,1.02,1.82,2.92,3.13,5.12,3.85,4.54,1.53,9.58.47,13.77-1.35,3.89-1.7,7.37-4.15,9.48-7.42Z"/>
      <path class="cls-1" d="m83.33,145.31c-2.45-1.61-4.78-3.43-6.99-5.3-3.81-3.17-7.32-6.65-10.63-10.2-1.9-2.04-3.77-4.15-5.46-6.36-.3.47-.59.89-.93,1.27-2.88,3.6-7.24,6.23-12.03,7.8-.25.08-.51.17-.76.25,1.52,1.78,3.47,3.35,4.83,5.21,1.27-.59,2.67-.93,4.19-1.02,1.31-.04,1.31,1.7,0,1.74-2.71.13-5.08,1.52-6.44,3.43-2.62,3.77-.38,8.64,3.77,10.88,2.37,1.27,5.25,1.7,7.63.22,2.32-1.49,3.26-3.9,4.1-6.15.43-1.01,2.42-.59,1.99.47-.72,1.86-1.56,3.85-2.96,5.42,1.65,1.53,3.22,3.09,4.78,4.62,1.95,1.9,4.11,3.64,6.31,5.29,2.38-.04,4.71-.38,6.78-1.35,2.63-1.27,4.24-3.43,5-5.85,1.23-3.73.17-7.62-3.18-10.37Z"/>
      <path class="cls-1" d="m315.58,103.46c-1.02-.21-2-.55-2.93-1.01-.08.04-.17.08-.25.08-2.46.34-2.75,2.76-1.74,4.28,1.91,2.84,6.44,3.85,9.95,2.8,3.48-1.02,5.51-4.07,5.34-7.03-3.3,1.1-6.9,1.65-10.37.88Z"/>
      <path class="cls-1" d="m329.76,87.71s-.12-.04-.21-.04c-3.81,3.09-9.15,3.73-14.14,2.79.72.43.55,1.61-.55,1.61-1.61-.04-3.1.72-3.94,1.82-.93,1.19-.98,2.63-.43,3.94,1.1,2.71,4.49,4.11,7.75,4.28,3.56.13,7.2-.97,10.25-2.46,2.88-1.44,5.51-3.68,5.85-6.56.29-2.46-1.49-5-4.58-5.38Z"/>
      <path class="cls-1" d="m310.75,82.12c1.01.68,1.69,1.78,1.73,2.88.05.89-.21,1.82-.72,2.67h.13c3.09,1.27,6.69,1.9,10.12,1.35,4.96-.76,9.57-4.32,9.06-8.8-.25-2.21-1.82-4.32-4.15-5.43-2.37-1.18-5.33-1.27-7.87-.42-.26,1.06-.76,2.12-1.53,3.09-1.61,2.04-4.02,3.73-6.77,4.66Z"/>
      <path class="cls-1" d="m308.8,80.89c3.18-.76,5.93-2.67,7.45-5.04,1.32-2.11,1.19-4.4-.21-6.43-1.35-1.95-3.64-3.43-6.27-3.98-5.54-1.15-10.84,3-11.85,7.36,4.74,1.23,8.38,4.58,10.88,8.09Z"/>
      <path class="cls-1" d="m310.7,101.18c-1.52-1.23-2.54-2.88-2.62-4.75-.21-3.13,2.79-6.05,6.65-6.09-1.36-.3-2.63-.68-3.9-1.19-.04,0-.08-.04-.17-.08-.46.5-1.01.97-1.56,1.35-1.87,1.27-4.15,2.08-6.57,2.2-4.83.26-9.36-2.5-10.92-6.26-.43-1.06,1.56-1.49,1.99-.47,1.56,3.73,6.52,5.84,11.01,4.66,2.24-.55,4.23-1.87,5.29-3.64.51-.85.85-1.99.21-2.88-.51-.72-1.48-1.1-2.41-.81-.55.21-1.15-.17-1.27-.59-.17-.42.08-.76.51-.98-1.44-2.03-3.22-3.98-5.51-5.42-3.77-2.41-9.36-3.26-13.34-.63-4.4,2.96-2.67,8.43-1.1,12.24.17.13.3.34.3.59-.13,3.01.93,5.89,3.04,8.3.3.38.05.93-.38,1.14-.5.26-1.1.09-1.39-.29-1.27-1.44-2.21-3.09-2.76-4.83h-.04c-3.34.25-7.03,1.91-8.55,4.45-1.61,2.62-1.02,5.97.5,8.51,1.61,2.75,4.37,4.91,7.29,6.69,3.01,1.78,6.52,3.85,10.33,3.94,2.84.08,6.23-1.44,6.27-4.07-2.37.13-4.79.05-6.9.17-1.36.09-1.32-1.65,0-1.73,2.62-.17,5.29,0,7.92-.21,2.45-.22,4.95-.77,6.6-2.42-.63-.76-1.06-1.65-1.18-2.58-.21-1.7.8-3.56,2.66-4.32Z"/>
      <path class="cls-1" d="m275.17,105.12c-.33-.72-.59-1.49-.76-2.29-1.52.89-3.05,1.78-4.61,2.71-.13.08-.3.08-.47.08.08,6.61.17,13.18.21,19.74.04,3.13,0,6.27-.08,9.4.21-.04.42,0,.63.13.89.46,1.91.89,3.01.85.8,0,1.65-.26,2.12-.85.46-.64.46-1.44.25-2.16-.21-.72-.63-1.4-1.1-2.03-.38.33-.81.63-1.19.97-.97.72-2.45-.47-1.48-1.23,5.85-4.49,11.31-9.23,16.43-14.27-1.78-.81-3.43-1.82-4.99-2.8-3.43-2.2-6.44-4.82-7.97-8.25Z"/>
      <path class="cls-1" d="m108.74,65.39c-1.78-2.41-3.26-4.95-4.45-7.58-2.45-5.33-3.76-11.09-3.89-16.81-.09-4.66.68-9.36,2.62-13.72-2.37,3.01-4.49,6.14-6.35,9.4-6.65,11.65-10.46,24.6-11.05,37.48,1.23-.76,2.54-1.4,3.98-1.69h.08c3.43-1.44,6.95-2.76,10.46-4.03,2.84-1.06,5.72-2.07,8.6-3.05Z"/>
      <path class="cls-1" d="m217.24,91.31c-.76-2.33-1.74-4.7-3.43-6.73-.3-.38-.55-.64-.97-.98-.43-.38-.68-.55-1.11-.76-.5-.3-.59-.34-1.14-.46-.13-.05-.25-.05-.38-.09h-1.1c-.13.04-.3.04-.42.09-.26.04-.56.12-.81.21-.3.08-.97.42-1.31.63-.89.55-1.57,1.36-2.12,2.25-1.35,2.2-1.86,4.87-2.12,7.32-.29,3.14-.21,6.27.09,9.4.12,1.57.29,3.14.55,4.71.04-.43.08-.85.17-1.28.12-.93.34-1.9,1.01-2.71.68-.72,1.7-1.22,2.84-1.1,1.02.09,1.82.64,2.42,1.32.67.76,1.05,1.73,1.44,2.62.46,1.02.8,2.03,1.1,3.05.59,2.03.84,4.11.89,6.23,2.37-.17,4.78,0,7.11.55v-.13c.04-.13.04-.3.09-.47v-.04c.04-.08.04-.17.04-.25.25-2.12.21-4.24.12-6.31-.12-2.8-.42-5.63-.88-8.43-.47-2.92-1.11-5.8-2.08-8.64Z"/>
      <path class="cls-1" d="m143.43,51.97c7.15-4.91,14.31-9.87,21.42-14.82.72-.51,1.49-1.02,2.21-1.53-3.01-2.67-6.4-5-10.13-6.99-7.28-3.89-15.66-6.52-24.26-7.58-8.22-1.01-16.94-.55-24.61,2.25-.08.25-.21.46-.34.72,3.27.42,6.44,1.31,9.41,2.54,12.45,5.25,19.69,15.63,26.3,25.41Z"/>
      <path class="cls-1" d="m245.4,111.72c-7.24-.93-14.99,1.06-21.26,3.98-6.6,3.05-12.19,7.58-15.96,13.01-.68.93-2.46.08-1.78-.89.51-.72,1.06-1.44,1.61-2.16,2.75-3.31,6.14-6.27,10.03-8.69-6.22-1.01-12.95.64-17.44,4.45-.93.76-2.37-.46-1.44-1.23,1.18-1.01,2.5-1.86,3.94-2.58-.13-.38-.22-.72-.3-1.1-1.44-5.63-2.37-11.44-2.63-17.24-.17-3.13-.08-6.35.55-9.48.51-2.46,1.44-5.09,3.43-6.99,1.66-1.61,4.28-2.58,6.82-2.12,2.42.47,4.15,2.25,5.34,3.98,1.61,2.37,2.62,5.04,3.39,7.67.93,3.05,1.52,6.14,1.94,9.27.39,2.84.64,5.68.68,8.56.04,1.48.04,3-.17,4.53,1.44-.72,2.92-1.36,4.41-1.91,7.03-2.62,15.71-4.19,23.16-1.9,1.48.46,2.88,1.1,4.15,1.9,0-1.06,0-2.07.04-3.09.05-8.68-.08-17.53-1.82-26.17-.29-1.53-.63-3.09-1.14-4.58-.42-1.27-.8-2.45-2.16-3.21-1.52-.89-3.47-1.23-5.25-1.49-2.16-.33-4.36-.67-6.57-.76-2.87-.17-5.8-.08-8.68-.04-2.92.04-5.84,0-8.76,0-6.06,0-12.11-.04-18.13-.04-11.98,0-23.97.29-35.91.8-5.89.21-11.6.85-17.41,1.53-5.29.63-10.63,1.27-15.92,1.82.04.34.13.72.21,1.06,1.36,7.07,2.2,14.14,2.92,21.26.94,9.06,1.57,18.16,2.04,27.27.5,10.16.76,20.37.84,30.57.05,10.55-.08,21.05-.55,31.55-.08,2.63-.29,5.21-.25,7.84,0,2.67.21,5.34.46,8.05.34,3.93,1.06,8,.77,11.94.42,0,.89,0,1.31-.04,7.96-.34,15.92-1.06,23.8-1.91,9.02-.93,18-2.03,26.98-3.18,8.51-1.1,17.02-2.28,25.49-3.55,6.27-.89,12.58-1.87,18.85-2.84,2.24-.34,4.49-.68,6.73-1.06.21-2.96.68-5.89,1.23-8.81.89-4.7,2.12-9.36,3.01-14.06.93-5.04,1.73-10.08,2.45-15.12,1.61-10.88,2.84-21.76,3.81-32.69-3.34,2.03-7.54,3.13-11.73,3.3-2.41.09-4.83-.17-7.11-.63,0,.68,0,1.35-.09,2.03-.46,6.99-3.6,13.81-8.76,19.35-3.22,3.48-7.2,6.36-11.69,8.56-.04.13-.13.25-.3.38-1.99,1.65-3.85,3.43-5.46,5.38-5.68,6.86-8.51,15.24-7.88,23.59,0,.29-.13.5-.34.63,2.8.04,5.59.68,7.96,1.99,1.15.59.09,2.12-1.01,1.48-4.83-2.62-11.65-2.32-16.01.89-.97.72-2.46-.5-1.44-1.22,1.91-1.4,4.19-2.33,6.61-2.8.08-2.37-.17-4.7-.77-7.03-2.24-8.85-9.02-16.9-18.54-21.39-.13-.08-.26-.12-.34-.25-7.12-2.63-13.17-6.95-17.45-12.41-4.41-5.55-6.95-12.15-6.99-18.8-2.07-.64-3.73-2.16-4.28-3.94-.34-1.1,1.66-1.52,1.99-.47.34,1.19,1.4,2.25,2.8,2.71.46-.21,1.19-.12,1.44.3,1.74.09,3.43-.68,4.32-1.9.68-.94,2.5-.09,1.78.88-1.27,1.7-3.56,2.76-5.97,2.72,0,.42,0,.84.04,1.22.42,6.65,3.43,13.09,8.26,18.34,4.99,5.42,11.98,9.44,19.9,11.31,8.13,1.9,17.03,1.61,24.94-.85,7.63-2.33,14.11-6.78,18.55-12.41,4.41-5.59,6.82-12.15,6.65-18.84-5.12-1.44-9.74-4.15-13.55-7.33-.93-.8.51-1.99,1.48-1.23,6.1,5.13,14.7,9.06,23.68,7.84,3.6-.51,7.07-1.74,9.78-3.86,2.58-1.99,4.23-4.74,4.57-7.7.34-2.84-.46-5.85-2.75-8.05-2.33-2.25-5.67-3.43-9.15-3.9Zm-60.56,8.51c-3.15-1.68-7.21-2.45-10.89-1.64-3.34.73-6.59,2.48-8.88,4.63-.87.83-2.33-.39-1.45-1.21.52-.5,1.11-.97,1.73-1.43,0,0,0-.01-.02-.02-.34-.51-.65-1.03-.94-1.57-1.47-2.75-2.47-5.67-3.26-8.6-.88-3.28-1.5-6.62-1.82-9.98-.28-2.92-.36-5.9.2-8.8.69-3.52,2.61-7.4,6.59-9.14,5.89-2.58,9.85,2.6,11.69,6.47,2.34,4.91,3.29,10.29,3.99,15.5.57,4.25.92,8.55.86,12.83,0,.05-.01.1-.02.14,1.15.35,2.25.8,3.26,1.34,1.12.6.08,2.08-1.04,1.48Z"/>
      <path class="cls-1" d="m118.74,245.93c-.05-1.19-.05-2.42,0-3.6.12-6.57.76-13.09,1.14-19.65.42-7.62.68-15.29.8-22.91.3-15.33.17-30.66-.12-45.99-.3-13.43-.72-26.85-.98-40.28-.12-5.5-.12-11.01-.21-16.47-.04-6.23-.42-12.5-1.69-18.59-.64-3.1-1.61-6.1-2.76-9.07-.46-1.27-1.05-2.58-1.14-3.89-.25.08-.51.17-.76.25-2.29.81-4.58,1.57-6.82,2.37-5.08,1.82-10.21,3.6-15.12,5.68.17,1.35.34,2.67.55,3.98.98,5.76,2.37,11.48,3.14,17.24.38,2.79.42,5.63.8,8.42.34,2.88.89,5.72,1.23,8.56.29,2.79.42,5.59.89,8.42.42,2.84.93,5.64,1.23,8.52.55,5.76.55,11.56.42,17.36s-.38,11.65-.42,17.45c-.05,5.97,0,11.94,0,17.91,0,9.53-.05,19.06-.34,28.63-.3,8.51-.72,17.07-.72,25.62v.34c-.05.93.17,1.82.76,2.58,1.19,1.61,3.39,2.54,5.42,3.26,2.2.81,4.53,1.4,6.82,2.04,2.58.72,5.21,1.35,7.88,1.82Z"/>
      <path class="cls-1" d="m175.58,88.93c-.85-1.66-1.89-3.3-3.52-4.46-.56-.41-1.28-.75-2.06-.91-2.03-.41-3.99.81-5.26,2-2.47,2.3-3.29,5.68-3.51,8.68-.21,2.97.04,5.96.47,8.91.4,2.68.99,5.35,1.77,7.97,0-.1-.03-.19-.04-.29-.15-2.03.52-4,1.61-5.81.47-.76,1.09-1.56,2.14-1.8,1.67-.38,3.33.51,4.41,1.49,1.8,1.64,2.49,3.98,2.85,6.11.33,1.95.41,3.93.27,5.89,1.94-.26,3.94-.18,5.87.19v-.65c-.02-4.32-.4-8.66-1.02-12.95-.71-4.83-1.68-9.86-3.98-14.37Z"/>
      <path d="m331.07,86.19c1.32-1.61,2.16-3.52,2.08-5.47-.08-2.71-1.69-5.29-4.28-6.94-2.71-1.7-6.43-2.16-9.65-1.27-.05-1.02-.3-1.99-.81-3.01-1.31-2.46-3.85-4.4-6.86-5.38-3.17-1.01-6.56-.68-9.4.85-3.09,1.61-5.59,4.4-6.23,7.45-.21-.04-.42-.08-.63-.08-2.63-.21-5.42.25-7.62,1.44-2.46,1.31-3.94,3.39-4.28,5.8-.51,2.96.51,6.01,1.65,8.85.04.09.13.17.17.25,0,.81.04,1.61.17,2.38-3.56.34-7.11,1.86-9.27,4.32-1.36,1.56-1.95,3.51-1.91,5.5-1.65.93-3.26,1.91-4.91,2.84-.05-4.19-.09-8.43-.13-12.62,0-5.72-.59-11.39-.76-17.11,0-.76.08-1.57-.13-2.33-.17-.63-.42-1.27-.63-1.91-.39-1.27-.81-2.58-1.61-3.76-1.32-1.99-3.86-2.63-6.31-3.27-3.18-.8-6.31-1.56-9.53-2.2-6.48-1.27-13.05-2.24-19.69-2.67-1.23-.08-2.46-.16-3.69-.21,6.78-4.27,13.04-9.14,18.59-14.48,2.92-2.8,5.63-5.68,8.13-8.72,2.54-3.1,4.79-6.36,6.23-9.91,2.54-6.31,2.12-13.94-3.56-19.02C250.7.56,242.4-.25,234.73.05c-4.15.17-8.3.63-12.28,1.56-4.15,1.02-8.05,2.67-11.65,4.54-6.39,3.34-12.07,7.49-17.78,11.47-8.13,5.64-16.27,11.27-24.4,16.9-5.8-5.25-13.25-9.19-21.21-11.86-8.26-2.79-17.32-4.23-26.26-3.68-4.32.25-8.55,1.01-12.58,2.33,0-.26.04-.47,0-.72-.08-2.08-1.4-4.11-2.54-5.93,0,0-.04,0-.04-.04,1.57-.6,3.05-1.32,4.49-2.12,2.75-1.57,5.84-3.52,7.03-6.23.55-1.31.42-2.79-.6-3.89-.97-1.06-2.49-1.65-4.06-1.78-3.47-.26-6.95,1.65-9.53,3.34-1.61,1.11-3.09,2.38-4.36,3.77-2.97-1.61-7.5-1.06-9.28,1.7-.76,1.14-.93,2.5-.8,3.81-2.25.76-4.32,1.86-6.06,3.26-1.9,1.52-3.64,3.39-4.23,5.55-.59,2.03.04,4.36,2.41,5.38,2.08.88,4.79.59,6.69-.47,2.16-1.19,3.39-3.05,4.41-5,1.06,1.61,2.5,3.01,4.4,3.9.68.34,1.36.55,2.08.72-7.41,5.46-13.3,12.36-17.66,19.73-4.75,8.05-7.84,16.82-8.73,25.75-.46,4.74-.29,9.53.72,14.19.05.13.09.21.17.3-1.56,2.03-2.79,4.19-3.98,6.35-1.61,2.79-3.09,5.59-4.74,8.38-1.48,2.54-3.01,5.13-5,7.41-2.24-2.28-5.46-3.85-9.06-4.1.04-.72.04-1.44.08-2.16.05-3.48-.04-6.99-.63-10.42-.21-1.53-.64-2.92-1.23-4.36-.93-2.16-2.07-4.32-3.94-5.98-2.58-2.28-6.39-3.47-9.99-3-2.46-1.1-5.34-1.74-8.01-2.2-1.65-.3-3.26-.34-4.78.33-1.4.6-2.59,1.57-3.47,2.59-.77.85-1.32,1.86-1.78,2.92h-.05c-5.04.8-9.52,3.85-11.64,7.75-1.1,2.03-1.36,4.24-1.36,6.48,0,.47.05.93.13,1.4-4.28,2.5-4.28,8.26-2.54,11.94,1.65,3.39,5.46,5.63,9.65,6.14-.21.25-.38.55-.33.93,0,1.15,1.22,2.16,2.11,2.88,1.23,1.06,2.63,1.87,4.41,2.03,1.9.17,3.94-.21,5.76-.67,1.18-.3,2.33-.68,3.43-1.19.63.59,1.31,1.14,2.07,1.65-1.1,1.99-1.01,4.24-.04,6.19-3.64,1.61-7.07,4.15-8.98,7.15-1.1,1.65-1.82,3.43-2.5,5.21-.72,1.91-1.56,3.73-2.41,5.59-3.52,7.75-5.29,16.01-5.72,24.31-.34,6.65.26,13.3,1.4,19.86.38,2.33.76,4.7,1.44,6.95.55,1.99,1.52,3.89,3.09,5.5,2.71,2.8,6.99,3.77,11.14,4.03,4.87.29,9.74-.17,14.61-.22,5.12-.04,10.46.26,15.25,2.04,5.84,2.16,9.99,6.22,12.83,10.92,1.01,1.7,1.9,3.43,3,5.04,1.02,1.48,2.16,2.88,3.48,4.2,1.99,2.03,4.44,3.81,7.2,5.03,3.98,1.83,8.38,2.38,12.87,2.29.3,0,.64,0,.97-.04v.38s-.04.13-.04.17c-.17,3.64,3.31,5.89,6.95,7.24,1.14.43,2.33.76,3.51,1.1-.25.34-.46.64-.68.93-.12-.25-.46-.5-.93-.5-6.9.08-14.01.59-20.58,2.45-2.45.72-4.91,1.53-7.24,2.5-2.5,1.02-4.96,2.25-6.99,3.85-.29.26-.59.51-.84.81-.17.04-.3.13-.43.3-1.95,2.28-2.96,5.2-3.43,7.96-.46,2.84-.04,5.5,1.78,7.96,3.98,5.29,11.94,7.28,18.8,8.6,3.94.76,8.01,1.31,12.07,1.44-.59.38-1.14.76-1.69,1.14-5,3.3-10.21,6.52-15.71,9.32-.13-.13-.26-.22-.47-.26-7.03-1.44-14.27-2.5-21.47-1.48-6.27.89-11.98,3.47-15.8,7.75-3.43,3.98-4.74,9.06-3.09,13.76,1.74,4.96,6.35,8.64,12.37,9.91,7.32,1.53,14.82-.55,21-3.89.13-.05.26-.17.3-.26,8.98,6.91,20.41,11.52,32.4,13.34,13.97,2.08,28.41.34,41.37-4.32,5.8-2.11,11.31-4.78,16.35-7.96,7.83,2.97,17.57,1.06,23.76-3.77,1.69-1.31,3.17-2.92,4.32-4.61,9.74,5.59,21,9.27,32.73,10.71,13.26,1.57,27.11.42,39.26-4.45,6.35-2.54,12.28-5.92,17.53-9.86,4.92-3.64,9.36-7.75,12.07-12.79,2.63-4.87,3.77-10.21,3.6-15.54-.12-2.63-.51-5.26-1.27-7.8-.72-2.41-1.69-4.87-3.77-6.73-2.07-1.91-5.21-2.67-8.17-1.91-3.09.85-5.55,2.93-7.45,5.09-3.35,3.72-4.96,8.25-6.06,12.79-13.81-2.29-28.29,1.82-37.44,10.71-1.39,1.35-2.66,2.79-3.81,4.32-.97-3.09-3.22-6.1-6.69-7.58-3.64-1.61-8-.68-11.09,1.44.46-3.81,2.66-7.41,4.99-10.63,2.67-3.69,5.89-7.07,8.73-10.63.8-1.02,1.78-2.2,2.03-3.43,2.84.59,5.8.8,8.6.13,3-.77,5.63-2.59,6.73-5.04,1.1-2.46.08-5.17-2.08-6.99-2.49-2.12-6.18-2.84-9.65-2.5-1.86.21-3.64.64-5.34,1.23-.17-.13-.34-.26-.59-.34-8.89-3.09-18.89-3.73-28.25-1.86-1.39-1.36-3-2.59-4.82-3.52,5.63-.8,11.22-1.74,16.81-2.79,9.44-1.82,18.84-4.07,27.82-7.12,7.79-2.67,15.42-5.93,21.9-10.46.93-.68,2.33-1.35,2.33-2.46,0-.29-.05-.55-.05-.8,0-.3.05-.55.05-.8.04-.13.04-.26.04-.39,0-.04.04-.21.04-.29.21-1.23.55-2.42.89-3.64,1.48-5.47,2.58-10.97,3.43-16.52,2.03-13.42,3.05-26.98,3.9-40.49.46-7.37.88-14.69,1.05-22.06,1.15.55,2.46.97,3.82.93,1.44-.08,2.79-.55,3.6-1.57,1.77-2.03.46-4.48-.89-6.39,4.95-3.98,9.65-8.17,14.1-12.54,1.57.6,3.22.98,4.91,1.11,4.07.21,8.73-2.12,8.73-5.85v-.08c2.62-.3,5.08-1.02,6.86-2.71.59.42,1.27.84,1.99,1.18,4.36,2.03,10.08,1.23,13.17-2.07,1.69-1.82,2.58-4.15,2.24-6.44,0-.08-.04-.17-.04-.25.13-.05.25-.13.42-.17,3.64-1.57,7.03-4.07,7.92-7.54.81-3.26-1.14-7.07-5.17-7.96ZM108.06,23.3c7.67-2.8,16.39-3.26,24.61-2.25,8.6,1.06,16.98,3.69,24.26,7.58,3.73,1.99,7.12,4.32,10.13,6.99-.72.51-1.49,1.02-2.21,1.53-7.11,4.95-14.27,9.91-21.42,14.82-6.61-9.78-13.85-20.16-26.3-25.41-2.97-1.23-6.14-2.12-9.41-2.54.13-.26.26-.47.34-.72Zm-17.28-3.14c-.8,1.7-1.69,3.48-3.3,4.75-1.31,1.01-3.22,1.61-5,1.14-1.94-.51-2.32-2.29-1.86-3.73.55-1.73,1.91-3.17,3.39-4.44,1.48-1.19,3.26-2.21,5.17-2.93.33,1.44.8,2.88,1.44,4.28.08.26.21.47.33.72-.08.04-.12.13-.17.21Zm7.42,4.49c-2.42-.89-3.98-2.83-5.04-4.78-.6-1.06-1.06-2.16-1.4-3.31-.47-1.35-.89-2.75-.89-4.19.04-1.44.76-3.01,2.5-3.56,1.31-.46,3.22-.38,4.4.3-.51.72-1.01,1.44-1.44,2.2-.59.98,1.19,1.87,1.78.85,1.23-2.16,2.92-4.15,5.04-5.8,2.08-1.65,4.7-3.22,7.5-3.86,1.31-.29,2.75-.29,3.94.34,1.14.64,1.44,1.74,1.01,2.8-.46,1.18-1.52,2.16-2.58,3-1.1.85-2.25,1.61-3.52,2.33-2.83,1.66-6.01,2.84-9.36,3.6-1.27.3-.72,1.95.55,1.66,1.19-.26,2.33-.6,3.48-.94,0,.09.04.17.08.26.89,1.4,1.95,2.92,2.2,4.49.26,1.31-.12,2.66-.97,3.77-.89,1.14-2.12,1.35-3.64,1.35-1.27-.04-2.46-.08-3.64-.51ZM17.27,86.14c.55-1.65,1.1-3.43,2.07-4.95.64-.93,1.44-1.74,2.46-2.37,1.14-.72,2.28-1.02,3.72-.81,1.36.21,2.71.55,4.03.85.72.17,1.4.38,2.12.55-.56.25-1.11.51-1.57.85-4.58,3-4.96,8.13-4.62,12.66-.59-.13-1.14-.21-1.78-.13-.97.13-1.94.55-2.83,1.06-.13-.13-.3-.21-.51-.25-1.87-.38-3.22-1.23-3.64-2.8-.39-1.52.08-3.17.55-4.66Zm-11.69,10.25c0-1.86.17-3.68,1.01-5.42.89-1.69,2.29-3.22,3.99-4.4,1.52-1.1,3.3-1.91,5.25-2.37-.13.33-.26.67-.38,1.01-.64,1.87-1.15,3.81-.77,5.72.38,2.12,2.12,3.51,4.45,4.15-.21.17-.38.34-.55.51-1.27,1.23-2.12,2.79-2.16,4.44v.43c-2.54.51-5.29,1.01-7.88.25-1.06-.29-2.03-.84-2.5-1.73-.42-.81-.5-1.7-.46-2.59Zm3.6,17.58c-2.54-.68-4.75-2.25-5.93-4.24-.93-1.69-1.27-3.68-1.14-5.5.12-1.61.72-3.39,2.11-4.53.51.93,1.32,1.69,2.54,2.24,3.1,1.4,6.7.85,9.96.21.25.89.67,1.78,1.14,2.59.93,1.52,2.2,2.96,3.77,4.1-1.78,4.11-7.33,6.52-12.45,5.13Zm17.4,3.68c-2.16,1.48-5.29,2.33-8.09,2.5-1.48.09-2.66-.17-3.81-.97-.84-.64-1.82-1.36-2.2-2.21-.04-.04-.04-.08-.04-.08l.04-.04h.04s.13-.05.22-.09c.25-.08.04-.04.29-.12.68-.22,1.36-.39,1.86-.77t.05-.04c.67-.13,1.35-.3,1.99-.51,2.88-1.06,5.21-3.05,6.43-5.46.17.08.39.08.6,0,1.99-.68,4.36.34,5.08,1.99.97,2.12-.51,4.45-2.46,5.8Zm8.68,13.68c-2.2-.72-4.1-2.03-5.12-3.85-.85-1.53-.97-3.35-.21-4.92,1.95.94,4.23,1.4,6.52,1.32,1.31-.05,1.31-1.78,0-1.74-3.26.13-6.52-1.02-8.64-3.13,2.54-1.7,4.24-4.49,3.35-7.24-.17-.51-.43-1.06-.81-1.53,2.76-.38,5.47-1.35,7.5-2.96,2.45-1.95,3.73-4.87,3.73-7.67,0-1.1-2.08-1.1-2.08,0,0,2.33-1.02,4.83-3.09,6.44-2.03,1.65-5.04,2.54-7.84,2.67-.04,0-.04.04-.08.04-1.4-.76-3.09-1.1-4.66-.68-.17-.25-.47-.42-.76-.47-1.57-1.14-2.8-2.58-3.64-4.19-.81-1.52-1.32-3.3-.6-4.91.77-1.69,2.67-3.22,4.7-3.9.77-.25,1.27-.12,2.04.09,1.01.3,1.99.34,3.09.21.55-.04.85-.63.72-1.06-.17-.46-.72-.63-1.27-.59-.17.04-.38.04-.55.04-.3-3.68-.38-7.96,2.71-10.84,1.65-1.53,3.85-2.33,6.31-2.2,2.41.08,4.78,1.06,6.43,2.5,1.78,1.56,2.8,3.55,3.6,5.54.51,1.27.89,2.54,1.11,3.86.55,3.13.63,6.31.59,9.48,0,1.7-.09,3.39-.26,5.09-.08,1.01-.16,2.03-.59,3.04-.46,1.06,1.57,1.53,1.99.47.43-.97.51-2.12.64-3.18.04-.25.04-.55.08-.8,3.9.25,7.33,2.46,9.02,5.38,2.04,3.39,1.44,7.62-.68,10.92-2.11,3.27-5.59,5.72-9.48,7.42-4.19,1.82-9.23,2.88-13.77,1.35Zm51.25,24.35c-.76,2.42-2.37,4.58-5,5.85-2.07.97-4.4,1.31-6.78,1.35-2.2-1.65-4.36-3.39-6.31-5.29-1.56-1.53-3.13-3.09-4.78-4.62,1.4-1.57,2.24-3.56,2.96-5.42.43-1.06-1.56-1.48-1.99-.47-.84,2.25-1.78,4.66-4.1,6.15-2.38,1.48-5.26,1.05-7.63-.22-4.15-2.24-6.39-7.11-3.77-10.88,1.36-1.91,3.73-3.3,6.44-3.43,1.31-.04,1.31-1.78,0-1.74-1.52.09-2.92.43-4.19,1.02-1.36-1.86-3.31-3.43-4.83-5.21.25-.08.51-.17.76-.25,4.79-1.57,9.15-4.2,12.03-7.8.34-.38.63-.8.93-1.27,1.69,2.21,3.56,4.32,5.46,6.36,3.31,3.55,6.82,7.03,10.63,10.2,2.21,1.87,4.54,3.69,6.99,5.3,3.35,2.75,4.41,6.64,3.18,10.37Zm3.09-83.21c-1.44.29-2.75.93-3.98,1.69.59-12.88,4.4-25.83,11.05-37.48,1.86-3.26,3.98-6.39,6.35-9.4-1.94,4.36-2.71,9.06-2.62,13.72.13,5.72,1.44,11.48,3.89,16.81,1.19,2.63,2.67,5.17,4.45,7.58-2.88.98-5.76,1.99-8.6,3.05-3.51,1.27-7.03,2.59-10.46,4.03h-.08Zm14.44,169.6c-2.03-.72-4.23-1.65-5.42-3.26-.59-.76-.81-1.65-.76-2.58v-.34c0-8.55.42-17.11.72-25.62.29-9.57.34-19.1.34-28.63,0-5.97-.05-11.94,0-17.91.04-5.8.29-11.65.42-17.45s.13-11.6-.42-17.36c-.3-2.88-.81-5.68-1.23-8.52-.47-2.83-.6-5.63-.89-8.42-.34-2.84-.89-5.68-1.23-8.56-.38-2.79-.42-5.63-.8-8.42-.77-5.76-2.16-11.48-3.14-17.24-.21-1.31-.38-2.63-.55-3.98,4.91-2.08,10.04-3.86,15.12-5.68,2.24-.8,4.53-1.56,6.82-2.37.25-.08.51-.17.76-.25.09,1.31.68,2.62,1.14,3.89,1.15,2.97,2.12,5.97,2.76,9.07,1.27,6.09,1.65,12.36,1.69,18.59.09,5.46.09,10.97.21,16.47.26,13.43.68,26.85.98,40.28.29,15.33.42,30.66.12,45.99-.12,7.62-.38,15.29-.8,22.91-.38,6.56-1.02,13.08-1.14,19.65-.05,1.18-.05,2.41,0,3.6-2.67-.47-5.3-1.1-7.88-1.82-2.29-.64-4.62-1.23-6.82-2.04Zm58.57,74.2s-.04.04-.09.04c-4.19,2.71-8.76,5-13.42,6.91-12.15,4.91-25.92,7.11-39.38,5.76-12.67-1.28-24.99-5.72-34.43-12.88-1.19-.85-2.33-1.78-3.39-2.75-.93-.81-2.37.42-1.49,1.23.47.38.89.76,1.36,1.14-5.08,2.71-11.01,4.62-17.15,3.98-5.55-.59-10.42-3.39-12.54-7.79-1.99-4.15-1.35-8.77,1.44-12.54,3.05-4.15,8.13-6.77,13.72-7.83,6.91-1.31,13.98-.43,20.76.93-1.02.47-2.04.93-3.1,1.4-.72.29-1.44.59-2.2.89-1.18.42-.13,1.9,1.06,1.48,3.3-1.27,6.44-2.84,9.53-4.45,3.77-2.03,7.41-4.19,11.01-6.48,3.56-2.24,7.03-4.61,10.33-7.11,1.53-1.15,2.97-2.29,4.37-3.47,1.22-1.06,3-2.25,3.13-3.77.13-1.78-1.57-2.97-3.56-3.05-2.67-.17-5.29-.3-7.92-.51-2.24-.17-4.53-.38-6.73-.85-1.91-.38-4.19-1.06-4.91-2.75-.68-1.65.5-3.47,1.99-4.57,1.1-.77,2.5-1.19,3.85-1.49,3.47-.84,7.2-.93,10.8-.84,8.55.21,17.19,1.52,25.32,3.68.51.13.98.26,1.49.38-1.27,1.27-2.33,2.71-3.22,4.19-.55.98,1.23,1.87,1.78.85,1.56-2.71,3.81-5.25,7.03-6.77,3.09-1.49,7.11-1.91,10.29-.43,2.71,1.31,4.66,3.9,3.98,6.52-.64,2.63-3.3,4.7-6.18,5.72-3.1,1.1-6.57,1.19-9.96.98-.17-.05-.29-.05-.46,0-1.06-.09-2.12-.17-3.18-.26-1.31-.08-1.31,1.61,0,1.74.42.04.81.04,1.23.08-1.27,1.15-2.58,2.29-3.94,3.39-1.82,1.48-3.77,2.92-5.55,4.45-3.55,3-6.86,6.26-9.86,9.74-1.7,1.9-3.27,3.89-4.79,5.97-.68.93,1.1,1.78,1.78.85.42-.56.8-1.06,1.23-1.61.29,0,.59-.13.84-.39,4.54-5.33,12.16-8.68,19.99-8.8-.17.17-.34.38-.51.59-1.94,2.24-3.26,4.87-4.31,7.49-.43,1.06,1.56,1.49,1.99.47,1.6-4.06,4.06-8.21,8.38-10.71,3.94-2.29,9.15-3.14,13.38-.89,2.04,1.1,3.52,2.79,3.94,4.78.09.38.43.6.76.6-.33,1.22-.72,2.37-1.31,3.51-.21.42.26.93.72,1.06.59.13,1.06-.17,1.27-.59,2.75-5.55,1.82-11.86,4.62-17.37,1.18-2.41,3.26-4.53,6.14-5.63,2.54-1.02,5.42-.8,7.75.47.08.08.17.17.29.17,2.25,1.35,3.82,3.51,4.79,5.63,1.23,2.62,1.86,5.46,1.95,8.3.21,5.72-1.65,11.39-4.96,16.35-3.81,5.84-9.4,10.79-15.75,14.86Zm-3.3-37.73c-.81,2.67-1.1,5.5-1.61,8.21-1.7-3.3-5.89-5.46-10.21-5.67-4.91-.21-9.44,1.9-12.75,4.83-.12-.26-.42-.47-.89-.47-5.54.04-10.96,1.57-15.45,4.15.55-.59,1.14-1.23,1.73-1.82,2.21-2.2,4.58-4.24,6.99-6.23.17.17.38.26.72.3,10.63.34,21.26-.76,31.47-3.3Zm17.95-48.49c.04-.85.17-1.7.21-2.54.85-.3,1.87-.51,2.84-.6,1.36-.17,2.75-.21,4.11-.08,1.06.04,2.24.21,3.09.72h.04s.09.13.13.17h.04c.13.12.21.25.3.42.08.13.04.04.08.17.05.09.09.17.09.25.08.26.13.47.17.68.12.72.08,1.57-.3,2.33-.08.21-.3.51-.55.72-.04,0-.13.04-.21.09-.38.12-.81.17-1.23.21-1.78.25-3.6.25-5.38.68-.63.12-1.27.33-1.95.33-.21,0-.42-.04-.63-.12-.3-.13-.38-.26-.47-.38-.17-.3-.29-.85-.34-1.23-.08-.59-.08-1.23-.04-1.82Zm45.32,20.96c-1.49.63-2.88,1.36-4.32,2.08-1.1.55-.09,2.03,1.06,1.48,5.03-2.59,12.15-6.06,17.91-2.84,2.07,1.19,3.56,3.3,3.01,5.42-.55,2.08-2.71,3.73-5.04,4.4-3.56,1.06-7.46.34-10.89-.67-1.23-.38-1.78,1.27-.55,1.65.3.08.55.17.85.21,0,.04,0,.09-.04.13v.12c-.05.13-.09.22-.13.34,0,.05-.09.17-.09.22-.08.12-.12.25-.21.38-.38.63-.84,1.22-1.27,1.78-1.27,1.6-2.67,3.17-4.02,4.7-3.26,3.85-6.52,7.83-8.56,12.28-1.01,2.24-1.69,4.66-1.6,7.07-1.44,1.61-2.29,3.51-2.42,5.5-.04,1.11,1.99,1.11,2.08,0,.08-1.65.84-3.21,2.07-4.53.13-.08.21-.17.26-.29,1.18-1.19,2.71-2.08,4.4-2.59,1.74-.55,3.64-.67,5.38-.08,1.73.63,3.13,1.78,4.19,3.09,1.23,1.48,2.12,3.3,2.37,5.12.04.13.09.22.13.34-.21.38-.47.81-.68,1.19-.55,1.02,1.23,1.86,1.78.89,5.38-9.87,16.73-16.9,29.69-18.08,3.85-.39,7.75-.26,11.56.38-.13.51-.21,1.01-.34,1.48-.3,1.44-.55,2.88-.85,4.32-.21,1.06,1.78,1.52,1.99.46,1.1-5.37,1.87-10.92,4.62-15.92,1.35-2.41,3.13-4.66,5.55-6.44,2.12-1.56,5.08-2.71,7.79-1.52,2.41,1.06,3.73,3.3,4.49,5.38.89,2.41,1.44,4.87,1.65,7.37.47,4.99-.25,10.12-2.37,14.82-1.06,2.33-2.46,4.53-4.15,6.56-1.82,2.16-4.02,4.07-6.31,5.89-4.83,3.85-10.25,7.24-16.18,9.91-5.72,2.62-11.81,4.4-18.25,5.34-6.18.88-12.49,1.05-18.76.59-12.54-.93-24.78-4.58-35.19-10.42-1.32-.76-2.59-1.52-3.82-2.33-.42-.25-1.01-.34-1.44,0-.38.3-.46.93,0,1.23.6.38,1.19.76,1.78,1.1-3.94,6.06-12.02,9.66-20.28,9.02-1.44-.08-2.88-.38-4.28-.8.04,0,.04-.05.04-.05,5.38-3.6,10.21-7.83,13.81-12.74,3.73-5.09,6.1-10.93,6.35-16.9.09-.97.04-1.95,0-2.97.09-.04.17-.08.21-.16,4.07-3.9,8.01-7.84,12.07-11.69,2.25-2.12,4.49-4.15,6.82-6.14.97-.81,2.2-1.57,2.58-2.71.34-.89.17-1.87-.38-2.63-.67-.97-1.86-1.48-3.17-1.57-1.32-.12-2.63-.17-3.94-.08.29-.59.51-1.19.59-1.82.55-2.84-.55-5.55-2.62-7.84,0,0-.05-.04-.09-.08,8.39-1.53,17.15-.93,25.16,1.65Zm-23.76,10.21c.08-.13.13-.26.13-.38,1.14-.09,2.32-.09,3.47-.05.93.09,1.86.09,2.41.76.43.56.43,1.28-.04,1.83-.38.42-.93.76-1.4,1.14-.55.47-1.1.97-1.65,1.44-4.11,3.56-7.96,7.33-11.82,11.09l-4.82,4.71c-.47-2.88-1.49-5.76-3.26-8.22,7.49-1.74,13.93-6.35,16.98-12.32Zm6.01-34.05c-.97.72-2.03,1.31-3.17,1.82-1.06.46-2.21.89-3.35,1.06-.38.08-.93.12-1.23.08-.38-.08-.51-.13-.76-.34-.17-.17-.38-.46-.51-.72-.13-.34-.21-.8-.3-1.1-.08-.68-.08-1.4-.12-2.07,1.95-.81,3.64-1.99,5.71-2.54,1.78-.43,4.32.38,4.83,1.99.26.76-.42,1.31-1.1,1.82Zm52.47-103.5c-.34,2.96-1.99,5.71-4.57,7.7-2.71,2.12-6.18,3.35-9.78,3.86-8.98,1.22-17.58-2.71-23.68-7.84-.97-.76-2.41.43-1.48,1.23,3.81,3.18,8.43,5.89,13.55,7.33.17,6.69-2.24,13.25-6.65,18.84-4.44,5.63-10.92,10.08-18.55,12.41-7.91,2.46-16.81,2.75-24.94.85-7.92-1.87-14.91-5.89-19.9-11.31-4.83-5.25-7.84-11.69-8.26-18.34-.04-.38-.04-.8-.04-1.22,2.41.04,4.7-1.02,5.97-2.72.72-.97-1.1-1.82-1.78-.88-.89,1.22-2.58,1.99-4.32,1.9-.25-.42-.98-.51-1.44-.3-1.4-.46-2.46-1.52-2.8-2.71-.33-1.05-2.33-.63-1.99.47.55,1.78,2.21,3.3,4.28,3.94.04,6.65,2.58,13.25,6.99,18.8,4.28,5.46,10.33,9.78,17.45,12.41.08.13.21.17.34.25,9.52,4.49,16.3,12.54,18.54,21.39.6,2.33.85,4.66.77,7.03-2.42.47-4.7,1.4-6.61,2.8-1.02.72.47,1.94,1.44,1.22,4.36-3.21,11.18-3.51,16.01-.89,1.1.64,2.16-.89,1.01-1.48-2.37-1.31-5.16-1.95-7.96-1.99.21-.13.34-.34.34-.63-.63-8.35,2.2-16.73,7.88-23.59,1.61-1.95,3.47-3.73,5.46-5.38.17-.13.26-.25.3-.38,4.49-2.2,8.47-5.08,11.69-8.56,5.16-5.54,8.3-12.36,8.76-19.35.09-.68.09-1.35.09-2.03,2.28.46,4.7.72,7.11.63,4.19-.17,8.39-1.27,11.73-3.3-.97,10.93-2.2,21.81-3.81,32.69-.72,5.04-1.52,10.08-2.45,15.12-.89,4.7-2.12,9.36-3.01,14.06-.55,2.92-1.02,5.85-1.23,8.81-2.24.38-4.49.72-6.73,1.06-6.27.97-12.58,1.95-18.85,2.84-8.47,1.27-16.98,2.45-25.49,3.55-8.98,1.15-17.96,2.25-26.98,3.18-7.88.85-15.84,1.57-23.8,1.91-.42.04-.89.04-1.31.04.29-3.94-.43-8.01-.77-11.94-.25-2.71-.46-5.38-.46-8.05-.04-2.63.17-5.21.25-7.84.47-10.5.6-21,.55-31.55-.08-10.2-.34-20.41-.84-30.57-.47-9.11-1.1-18.21-2.04-27.27-.72-7.12-1.56-14.19-2.92-21.26-.08-.34-.17-.72-.21-1.06,5.29-.55,10.63-1.19,15.92-1.82,5.81-.68,11.52-1.32,17.41-1.53,11.94-.51,23.93-.8,35.91-.8,6.02,0,12.07.04,18.13.04,2.92,0,5.84.04,8.76,0,2.88-.04,5.81-.13,8.68.04,2.21.09,4.41.43,6.57.76,1.78.26,3.73.6,5.25,1.49,1.36.76,1.74,1.94,2.16,3.21.51,1.49.85,3.05,1.14,4.58,1.74,8.64,1.87,17.49,1.82,26.17-.04,1.02-.04,2.03-.04,3.09-1.27-.8-2.67-1.44-4.15-1.9-7.45-2.29-16.13-.72-23.16,1.9-1.49.55-2.97,1.19-4.41,1.91.21-1.53.21-3.05.17-4.53-.04-2.88-.29-5.72-.68-8.56-.42-3.13-1.01-6.22-1.94-9.27-.77-2.63-1.78-5.3-3.39-7.67-1.19-1.73-2.92-3.51-5.34-3.98-2.54-.46-5.16.51-6.82,2.12-1.99,1.9-2.92,4.53-3.43,6.99-.63,3.13-.72,6.35-.55,9.48.26,5.8,1.19,11.61,2.63,17.24.08.38.17.72.3,1.1-1.44.72-2.76,1.57-3.94,2.58-.93.77.51,1.99,1.44,1.23,4.49-3.81,11.22-5.46,17.44-4.45-3.89,2.42-7.28,5.38-10.03,8.69-.55.72-1.1,1.44-1.61,2.16-.68.97,1.1,1.82,1.78.89,3.77-5.43,9.36-9.96,15.96-13.01,6.27-2.92,14.02-4.91,21.26-3.98,3.48.47,6.82,1.65,9.15,3.9,2.29,2.2,3.09,5.21,2.75,8.05Zm-49.29,44.8c-2.8,2.75-5.13,5.89-6.86,9.19-.13-2.46-.26-4.91-.38-7.37.97-.17,1.94-.38,2.88-.59,1.48-.34,2.92-.76,4.36-1.23Zm-10.84,27.32c.04.29.21.5.46.67h-.55c.04-4.02-.8-8.08-2.5-11.9.05-.08.09-.21.09-.38-.43-4.36-.81-8.76-1.19-13.13v-.08c1.74-.04,3.47-.17,5.21-.38.17,3.17.34,6.39.51,9.57,0,.3.21.55.42.68-.97,2.45-1.73,4.99-2.11,7.54-.43,2.45-.51,4.91-.34,7.41Zm-4.92-15.55c-2.03-3.13-4.61-6.01-7.7-8.51-.72-.59-1.53-1.14-2.29-1.69,2.96.59,6.06.89,9.15.97v.04c.29,3.05.55,6.15.84,9.19Zm27.83-65.55c0,.08,0,.17-.04.25v.04c-.05.17-.05.34-.09.47v.13c-2.33-.55-4.74-.72-7.11-.55-.05-2.12-.3-4.2-.89-6.23-.3-1.02-.64-2.03-1.1-3.05-.39-.89-.77-1.86-1.44-2.62-.6-.68-1.4-1.23-2.42-1.32-1.14-.12-2.16.38-2.84,1.1-.67.81-.89,1.78-1.01,2.71-.09.43-.13.85-.17,1.28-.26-1.57-.43-3.14-.55-4.71-.3-3.13-.38-6.26-.09-9.4.26-2.45.77-5.12,2.12-7.32.55-.89,1.23-1.7,2.12-2.25.34-.21,1.01-.55,1.31-.63.25-.09.55-.17.81-.21.12-.05.29-.05.42-.09h1.1c.13.04.25.04.38.09.55.12.64.16,1.14.46.43.21.68.38,1.11.76.42.34.67.6.97.98,1.69,2.03,2.67,4.4,3.43,6.73.97,2.84,1.61,5.72,2.08,8.64.46,2.8.76,5.63.88,8.43.09,2.07.13,4.19-.12,6.31Zm98.97-40.32c2.54-.85,5.5-.76,7.87.42,2.33,1.11,3.9,3.22,4.15,5.43.51,4.48-4.1,8.04-9.06,8.8-3.43.55-7.03-.08-10.12-1.35h-.13c.51-.85.77-1.78.72-2.67-.04-1.1-.72-2.2-1.73-2.88,2.75-.93,5.16-2.62,6.77-4.66.77-.97,1.27-2.03,1.53-3.09Zm-9.28-8.93c2.63.55,4.92,2.03,6.27,3.98,1.4,2.03,1.53,4.32.21,6.43-1.52,2.37-4.27,4.28-7.45,5.04-2.5-3.51-6.14-6.86-10.88-8.09,1.01-4.36,6.31-8.51,11.85-7.36Zm-38.07,65c-.97.76.51,1.95,1.48,1.23.38-.34.81-.64,1.19-.97.47.63.89,1.31,1.1,2.03.21.72.21,1.52-.25,2.16-.47.59-1.32.85-2.12.85-1.1.04-2.12-.39-3.01-.85-.21-.13-.42-.17-.63-.13.08-3.13.12-6.27.08-9.4-.04-6.56-.13-13.13-.21-19.74.17,0,.34,0,.47-.08,1.56-.93,3.09-1.82,4.61-2.71.17.8.43,1.57.76,2.29,1.53,3.43,4.54,6.05,7.97,8.25,1.56.98,3.21,1.99,4.99,2.8-5.12,5.04-10.58,9.78-16.43,14.27Zm36.34-24.94c.12.93.55,1.82,1.18,2.58-1.65,1.65-4.15,2.2-6.6,2.42-2.63.21-5.3.04-7.92.21-1.32.08-1.36,1.82,0,1.73,2.11-.12,4.53-.04,6.9-.17-.04,2.63-3.43,4.15-6.27,4.07-3.81-.09-7.32-2.16-10.33-3.94-2.92-1.78-5.68-3.94-7.29-6.69-1.52-2.54-2.11-5.89-.5-8.51,1.52-2.54,5.21-4.2,8.55-4.45h.04c.55,1.74,1.49,3.39,2.76,4.83.29.38.89.55,1.39.29.43-.21.68-.76.38-1.14-2.11-2.41-3.17-5.29-3.04-8.3,0-.25-.13-.46-.3-.59-1.57-3.81-3.3-9.28,1.1-12.24,3.98-2.63,9.57-1.78,13.34.63,2.29,1.44,4.07,3.39,5.51,5.42-.43.22-.68.56-.51.98.12.42.72.8,1.27.59.93-.29,1.9.09,2.41.81.64.89.3,2.03-.21,2.88-1.06,1.77-3.05,3.09-5.29,3.64-4.49,1.18-9.45-.93-11.01-4.66-.43-1.02-2.42-.59-1.99.47,1.56,3.76,6.09,6.52,10.92,6.26,2.42-.12,4.7-.93,6.57-2.2.55-.38,1.1-.85,1.56-1.35.09.04.13.08.17.08,1.27.51,2.54.89,3.9,1.19-3.86.04-6.86,2.96-6.65,6.09.08,1.87,1.1,3.52,2.62,4.75-1.86.76-2.87,2.62-2.66,4.32Zm12.57,4.11c-3.51,1.05-8.04.04-9.95-2.8-1.01-1.52-.72-3.94,1.74-4.28.08,0,.17-.04.25-.08.93.46,1.91.8,2.93,1.01,3.47.77,7.07.22,10.37-.88.17,2.96-1.86,6.01-5.34,7.03Zm13.73-16.52c-.34,2.88-2.97,5.12-5.85,6.56-3.05,1.49-6.69,2.59-10.25,2.46-3.26-.17-6.65-1.57-7.75-4.28-.55-1.31-.5-2.75.43-3.94.84-1.1,2.33-1.86,3.94-1.82,1.1,0,1.27-1.18.55-1.61,4.99.94,10.33.3,14.14-2.79.09,0,.17.04.21.04,3.09.38,4.87,2.92,4.58,5.38Z"/>
      <path d="m185.88,118.75c-1.01-.54-2.11-.99-3.26-1.34.01-.04.02-.09.02-.14.06-4.28-.29-8.58-.86-12.83-.7-5.21-1.65-10.59-3.99-15.5-1.84-3.87-5.8-9.05-11.69-6.47-3.98,1.74-5.9,5.62-6.59,9.14-.56,2.9-.48,5.88-.2,8.8.32,3.36.94,6.7,1.82,9.98.79,2.93,1.79,5.85,3.26,8.6.29.54.6,1.06.94,1.57.01.01.01.02.02.02-.62.46-1.21.93-1.73,1.43-.88.82.58,2.04,1.45,1.21,2.29-2.15,5.54-3.9,8.88-4.63,3.68-.81,7.74-.04,10.89,1.64,1.12.6,2.16-.88,1.04-1.48Zm-5.3-1.85c-1.93-.37-3.93-.45-5.87-.19.14-1.96.06-3.94-.27-5.89-.36-2.13-1.05-4.47-2.85-6.11-1.08-.98-2.74-1.87-4.41-1.49-1.05.24-1.67,1.04-2.14,1.8-1.09,1.81-1.76,3.78-1.61,5.81.01.1.03.19.04.29-.78-2.62-1.37-5.29-1.77-7.97-.43-2.95-.68-5.94-.47-8.91.22-3,1.04-6.38,3.51-8.68,1.27-1.19,3.23-2.41,5.26-2,.78.16,1.5.5,2.06.91,1.63,1.16,2.67,2.8,3.52,4.46,2.3,4.51,3.27,9.54,3.98,14.37.62,4.29,1,8.63,1.02,12.95v.65Z"/>
    </g>
  </g>
</svg>